G04 #@! TF.GenerationSoftware,KiCad,Pcbnew,7.0.1-0*
G04 #@! TF.CreationDate,2023-05-08T01:12:17+09:00*
G04 #@! TF.ProjectId,rp2040_jtag_debugger,72703230-3430-45f6-9a74-61675f646562,rev?*
G04 #@! TF.SameCoordinates,Original*
G04 #@! TF.FileFunction,Copper,L2,Bot*
G04 #@! TF.FilePolarity,Positive*
%FSLAX46Y46*%
G04 Gerber Fmt 4.6, Leading zero omitted, Abs format (unit mm)*
G04 Created by KiCad (PCBNEW 7.0.1-0) date 2023-05-08 01:12:17*
%MOMM*%
%LPD*%
G01*
G04 APERTURE LIST*
G04 Aperture macros list*
%AMRoundRect*
0 Rectangle with rounded corners*
0 $1 Rounding radius*
0 $2 $3 $4 $5 $6 $7 $8 $9 X,Y pos of 4 corners*
0 Add a 4 corners polygon primitive as box body*
4,1,4,$2,$3,$4,$5,$6,$7,$8,$9,$2,$3,0*
0 Add four circle primitives for the rounded corners*
1,1,$1+$1,$2,$3*
1,1,$1+$1,$4,$5*
1,1,$1+$1,$6,$7*
1,1,$1+$1,$8,$9*
0 Add four rect primitives between the rounded corners*
20,1,$1+$1,$2,$3,$4,$5,0*
20,1,$1+$1,$4,$5,$6,$7,0*
20,1,$1+$1,$6,$7,$8,$9,0*
20,1,$1+$1,$8,$9,$2,$3,0*%
G04 Aperture macros list end*
G04 #@! TA.AperFunction,ComponentPad*
%ADD10RoundRect,0.250000X-0.600000X-0.600000X0.600000X-0.600000X0.600000X0.600000X-0.600000X0.600000X0*%
G04 #@! TD*
G04 #@! TA.AperFunction,ComponentPad*
%ADD11C,1.700000*%
G04 #@! TD*
G04 #@! TA.AperFunction,ComponentPad*
%ADD12R,1.000000X1.000000*%
G04 #@! TD*
G04 #@! TA.AperFunction,ComponentPad*
%ADD13O,1.000000X1.000000*%
G04 #@! TD*
G04 #@! TA.AperFunction,ComponentPad*
%ADD14O,2.100000X1.000000*%
G04 #@! TD*
G04 #@! TA.AperFunction,ComponentPad*
%ADD15O,1.600000X1.000000*%
G04 #@! TD*
G04 #@! TA.AperFunction,ComponentPad*
%ADD16C,3.000000*%
G04 #@! TD*
G04 #@! TA.AperFunction,ViaPad*
%ADD17C,0.600000*%
G04 #@! TD*
G04 #@! TA.AperFunction,ViaPad*
%ADD18C,0.800000*%
G04 #@! TD*
G04 #@! TA.AperFunction,ViaPad*
%ADD19C,3.000000*%
G04 #@! TD*
G04 #@! TA.AperFunction,Conductor*
%ADD20C,0.700000*%
G04 #@! TD*
G04 #@! TA.AperFunction,Conductor*
%ADD21C,0.200000*%
G04 #@! TD*
G04 APERTURE END LIST*
D10*
X143750000Y-62150000D03*
D11*
X146290000Y-62150000D03*
X143750000Y-64690000D03*
X146290000Y-64690000D03*
X143750000Y-67230000D03*
X146290000Y-67230000D03*
X143750000Y-69770000D03*
X146290000Y-69770000D03*
X143750000Y-72310000D03*
X146290000Y-72310000D03*
X143750000Y-74850000D03*
X146290000Y-74850000D03*
X143750000Y-77390000D03*
X146290000Y-77390000D03*
X143750000Y-79930000D03*
X146290000Y-79930000D03*
X143750000Y-82470000D03*
X146290000Y-82470000D03*
X143750000Y-85010000D03*
X146290000Y-85010000D03*
D12*
X116951000Y-58760000D03*
D13*
X115681000Y-58760000D03*
X114411000Y-58760000D03*
D12*
X133600000Y-90300000D03*
D13*
X133600000Y-89030000D03*
D14*
X107280000Y-69255000D03*
D15*
X103100000Y-69255000D03*
D14*
X107280000Y-77895000D03*
D15*
X103100000Y-77895000D03*
D16*
X120206000Y-72600000D03*
D17*
X108940000Y-65060000D03*
X103490000Y-61770000D03*
X129080000Y-59660000D03*
X103950000Y-73600000D03*
X139010000Y-86700000D03*
X139050000Y-92530000D03*
X137280000Y-59680000D03*
X137240000Y-54670000D03*
X129070000Y-54550000D03*
X121200000Y-54400000D03*
X112570000Y-54210000D03*
X108760000Y-58480000D03*
X123186000Y-82380000D03*
X142000000Y-63440000D03*
X120000000Y-86050000D03*
X104200000Y-88300000D03*
X128000000Y-69000000D03*
X101000000Y-57000000D03*
X113700000Y-73350000D03*
X109900000Y-70300000D03*
X117700000Y-82500000D03*
X128500000Y-71500000D03*
X115675000Y-61050000D03*
X115050000Y-96275000D03*
X144100000Y-91225000D03*
X127050000Y-96275000D03*
X139000000Y-71060000D03*
X104500000Y-56950000D03*
X149150000Y-73600000D03*
X136000000Y-81220000D03*
X101000000Y-65300000D03*
X127500000Y-66500000D03*
X139000000Y-63440000D03*
X143125000Y-92600000D03*
X107050000Y-96275000D03*
D18*
X132500000Y-84200000D03*
D17*
X114800000Y-82500000D03*
X110925000Y-50875000D03*
X117550500Y-63200000D03*
X119250000Y-61100000D03*
X105840000Y-85832500D03*
X125700000Y-83925000D03*
X109100000Y-93350000D03*
X126810000Y-90550000D03*
X101000000Y-86050000D03*
X127700000Y-83925000D03*
X122250000Y-68054342D03*
X130925000Y-50875000D03*
X139000000Y-81220000D03*
X144050000Y-55850000D03*
X130000000Y-71060000D03*
X149150000Y-86050000D03*
X130000000Y-68520000D03*
X111050000Y-96275000D03*
X130000000Y-65980000D03*
X136000000Y-78680000D03*
X101000000Y-81900000D03*
X108680000Y-85832500D03*
X111960000Y-68550000D03*
X106000000Y-83800000D03*
X126980000Y-64740000D03*
X116400000Y-82500000D03*
X126925000Y-50875000D03*
X123050000Y-96275000D03*
X142000000Y-71060000D03*
X109400000Y-79500000D03*
X128450000Y-81200000D03*
X133000000Y-78680000D03*
X142000000Y-65980000D03*
X128950000Y-76150000D03*
X136000000Y-76140000D03*
X119430000Y-63240000D03*
X114925000Y-50875000D03*
X105875000Y-55975000D03*
X130000000Y-73600000D03*
X139050000Y-96275000D03*
D19*
X126422500Y-86977500D03*
D17*
X136000000Y-63440000D03*
X104525000Y-90275000D03*
X149150000Y-57000000D03*
X145575000Y-90250000D03*
X113375000Y-62225000D03*
X139000000Y-65980000D03*
X132450000Y-87950000D03*
X122500000Y-91100000D03*
X106925000Y-50875000D03*
X131700000Y-81200000D03*
X131050000Y-96275000D03*
X142000000Y-81220000D03*
X116350000Y-76200000D03*
X118025000Y-93400000D03*
X142000000Y-76140000D03*
X126820000Y-78680000D03*
X113802015Y-79367765D03*
X134200000Y-81200000D03*
X113000000Y-65300000D03*
X120886873Y-65420000D03*
X143075000Y-54400000D03*
X101000000Y-90200000D03*
X126100000Y-67800000D03*
X128800000Y-78700000D03*
X123756000Y-63640000D03*
X139000000Y-68520000D03*
X130250000Y-83050000D03*
X116300000Y-63100000D03*
X114975000Y-67275000D03*
X104190000Y-83472500D03*
X134925000Y-50875000D03*
X122550000Y-88200000D03*
X101000000Y-61150000D03*
X119050000Y-96275000D03*
X139000000Y-76140000D03*
X101000000Y-69450000D03*
X133000000Y-76140000D03*
X136000000Y-65980000D03*
X109800000Y-90650000D03*
X130000000Y-78680000D03*
X115150000Y-87900000D03*
X130190000Y-89800000D03*
X118925000Y-50875000D03*
X122925000Y-50875000D03*
X136000000Y-71060000D03*
X120150000Y-82700000D03*
X142000000Y-73600000D03*
X128000000Y-93300000D03*
X133000000Y-65980000D03*
X143050000Y-96275000D03*
X139000000Y-73600000D03*
X111970000Y-71610000D03*
X142000000Y-68520000D03*
X145525000Y-56925000D03*
X149150000Y-81900000D03*
X136000000Y-68520000D03*
X118300000Y-87800000D03*
X125103911Y-76696089D03*
X101000000Y-77750000D03*
X106900000Y-92725000D03*
X130150000Y-91050000D03*
X120000000Y-91100000D03*
X149150000Y-69450000D03*
X125650000Y-81800000D03*
X149150000Y-77750000D03*
X115450000Y-91000000D03*
X107250000Y-88350000D03*
X105900000Y-91275000D03*
X149150000Y-61150000D03*
X142925000Y-50875000D03*
X135050000Y-96275000D03*
X149150000Y-90200000D03*
X109900000Y-72250000D03*
D18*
X110125000Y-85775000D03*
D17*
X136000000Y-73600000D03*
X133000000Y-71060000D03*
X149150000Y-65300000D03*
X139000000Y-78680000D03*
X133000000Y-68520000D03*
X120050000Y-88500000D03*
X127550000Y-73600000D03*
X112450000Y-87900000D03*
X142000000Y-78680000D03*
X130000000Y-76140000D03*
X106950000Y-54525000D03*
X115200000Y-64250000D03*
X138925000Y-50875000D03*
X101000000Y-73600000D03*
X123750000Y-67925000D03*
D18*
X131300000Y-92200000D03*
D17*
X115606000Y-80590000D03*
X122510000Y-74620000D03*
X127120000Y-76440000D03*
X122500000Y-70980000D03*
X133000000Y-82500000D03*
X120010000Y-70390000D03*
X133000000Y-61800000D03*
X114063911Y-64416089D03*
X120916000Y-80570000D03*
X119195998Y-65384591D03*
X120286000Y-58710000D03*
X126202987Y-69840909D03*
X121180000Y-92220000D03*
X114860000Y-76490000D03*
X114070000Y-70830000D03*
X120080000Y-75050000D03*
X122446000Y-80590000D03*
X117340000Y-65717153D03*
X117150404Y-80592762D03*
X118050000Y-71580000D03*
X118210000Y-75030000D03*
X106960000Y-72590000D03*
X106260000Y-66850000D03*
X105690000Y-80210000D03*
X109600000Y-75300000D03*
X116490500Y-67300000D03*
X116490500Y-68600000D03*
X123800000Y-60100000D03*
X123800000Y-58000000D03*
D20*
X122510000Y-74717208D02*
X122510000Y-74620000D01*
X120916000Y-81766000D02*
X120916000Y-80570000D01*
X131300000Y-82700000D02*
X127800000Y-79200000D01*
X119778082Y-62210000D02*
X120336000Y-62767918D01*
X127800000Y-77120000D02*
X127120000Y-76440000D01*
X119778082Y-62210000D02*
X119778082Y-62207918D01*
X114063911Y-64416089D02*
X114063911Y-63936089D01*
X133000000Y-61800000D02*
X128150000Y-61800000D01*
X121150000Y-82000000D02*
X120916000Y-81766000D01*
X114000000Y-70760000D02*
X114070000Y-70830000D01*
X114063911Y-63936089D02*
X115790000Y-62210000D01*
X119215409Y-65384591D02*
X120336000Y-64264000D01*
X123392792Y-75600000D02*
X122510000Y-74717208D01*
X121180000Y-92220000D02*
X121150000Y-92190000D01*
X114900000Y-79884000D02*
X114900000Y-76530000D01*
X119195998Y-65384591D02*
X119215409Y-65384591D01*
X115606000Y-80590000D02*
X114900000Y-79884000D01*
X119725000Y-65913593D02*
X119725000Y-70105000D01*
X119778082Y-62207918D02*
X120336000Y-61650000D01*
X133000000Y-82500000D02*
X131500000Y-82500000D01*
X114000000Y-64480000D02*
X114000000Y-70760000D01*
X126280000Y-75600000D02*
X123392792Y-75600000D01*
X114900000Y-76530000D02*
X114860000Y-76490000D01*
X120336000Y-62810000D02*
X120336000Y-61650000D01*
X120336000Y-61650000D02*
X120336000Y-58760000D01*
X119516000Y-62210000D02*
X119778082Y-62210000D01*
X131300000Y-82950000D02*
X131300000Y-82700000D01*
X121150000Y-92190000D02*
X121150000Y-82000000D01*
X120336000Y-58760000D02*
X120286000Y-58710000D01*
X120336000Y-62210000D02*
X119516000Y-62210000D01*
X119725000Y-70105000D02*
X120010000Y-70390000D01*
X114063911Y-64416089D02*
X114000000Y-64480000D01*
X124850000Y-65100000D02*
X124850000Y-69490909D01*
X119195998Y-65384591D02*
X119725000Y-65913593D01*
X131300000Y-92200000D02*
X131300000Y-82950000D01*
X128150000Y-61800000D02*
X124850000Y-65100000D01*
X120336000Y-64264000D02*
X120336000Y-62810000D01*
X126202987Y-69840909D02*
X123639091Y-69840909D01*
X125200000Y-69840909D02*
X126202987Y-69840909D01*
X124850000Y-69490909D02*
X125200000Y-69840909D01*
X131500000Y-82500000D02*
X131300000Y-82700000D01*
X127800000Y-79200000D02*
X127800000Y-77120000D01*
X115790000Y-62210000D02*
X119516000Y-62210000D01*
X123639091Y-69840909D02*
X122500000Y-70980000D01*
X127120000Y-76440000D02*
X126280000Y-75600000D01*
X120336000Y-62767918D02*
X120336000Y-62810000D01*
X122446000Y-79746000D02*
X120080000Y-77380000D01*
X122446000Y-80590000D02*
X122446000Y-79746000D01*
X118210000Y-75030000D02*
X117300000Y-75940000D01*
X117340000Y-65717153D02*
X117340000Y-70870000D01*
X117340000Y-70870000D02*
X118050000Y-71580000D01*
X117300000Y-75940000D02*
X117300000Y-80443166D01*
X117300000Y-80443166D02*
X117150404Y-80592762D01*
X120080000Y-77380000D02*
X120080000Y-75050000D01*
D21*
X106490000Y-72590000D02*
X106960000Y-72590000D01*
X104850000Y-70950000D02*
X106490000Y-72590000D01*
X106100000Y-66850000D02*
X104850000Y-68100000D01*
X106260000Y-66850000D02*
X106100000Y-66850000D01*
X104850000Y-68100000D02*
X104850000Y-70950000D01*
X109250000Y-74950000D02*
X106000000Y-74950000D01*
X104750000Y-76200000D02*
X104750000Y-79270000D01*
X109600000Y-75300000D02*
X109250000Y-74950000D01*
X104750000Y-79270000D02*
X105690000Y-80210000D01*
X106000000Y-74950000D02*
X104750000Y-76200000D01*
X116490500Y-68600000D02*
X116490500Y-67300000D01*
X123800000Y-60100000D02*
X123800000Y-58000000D01*
G04 #@! TA.AperFunction,Conductor*
G36*
X148300000Y-86350000D02*
G01*
X148250000Y-87325000D01*
X144803282Y-86134899D01*
X145524310Y-86134899D01*
X145544697Y-86150767D01*
X145742628Y-86257882D01*
X145955491Y-86330957D01*
X146177470Y-86368000D01*
X146402530Y-86368000D01*
X146624508Y-86330957D01*
X146837368Y-86257883D01*
X147035305Y-86150764D01*
X147055688Y-86134899D01*
X147055689Y-86134898D01*
X146290001Y-85369210D01*
X146290000Y-85369210D01*
X145524310Y-86134899D01*
X144803282Y-86134899D01*
X144302806Y-85962092D01*
X144416041Y-85891981D01*
X144566764Y-85754579D01*
X144689673Y-85591821D01*
X144768062Y-85434393D01*
X144807386Y-85388192D01*
X144863747Y-85365725D01*
X144924074Y-85372205D01*
X144974378Y-85406128D01*
X144994601Y-85443935D01*
X144996984Y-85442891D01*
X145091580Y-85658548D01*
X145166922Y-85773866D01*
X145930789Y-85010001D01*
X146649210Y-85010001D01*
X147413076Y-85773867D01*
X147413077Y-85773866D01*
X147488418Y-85658551D01*
X147578819Y-85452457D01*
X147634068Y-85234283D01*
X147652653Y-85010000D01*
X147634068Y-84785716D01*
X147578819Y-84567543D01*
X147488417Y-84361446D01*
X147413076Y-84246132D01*
X146649210Y-85010000D01*
X146649210Y-85010001D01*
X145930789Y-85010001D01*
X145930790Y-85010000D01*
X145166922Y-84246133D01*
X145091580Y-84361451D01*
X144996984Y-84577109D01*
X144994602Y-84576064D01*
X144974373Y-84613877D01*
X144924068Y-84647796D01*
X144863743Y-84654273D01*
X144807385Y-84631806D01*
X144768060Y-84585603D01*
X144689673Y-84428179D01*
X144566764Y-84265421D01*
X144416041Y-84128019D01*
X144416038Y-84128017D01*
X144416037Y-84128016D01*
X144242640Y-84020653D01*
X144052456Y-83946976D01*
X144052455Y-83946975D01*
X143851976Y-83909500D01*
X143648024Y-83909500D01*
X143514370Y-83934484D01*
X143447543Y-83946976D01*
X143257359Y-84020653D01*
X143083962Y-84128016D01*
X142933235Y-84265422D01*
X142810328Y-84428177D01*
X142719417Y-84610752D01*
X142663603Y-84806914D01*
X142644785Y-85009999D01*
X142663603Y-85213085D01*
X142713426Y-85388192D01*
X142719418Y-85409250D01*
X142723099Y-85416642D01*
X138287514Y-83885101D01*
X145524310Y-83885101D01*
X146289999Y-84650790D01*
X146290000Y-84650790D01*
X147055689Y-83885100D01*
X147055688Y-83885099D01*
X147035302Y-83869232D01*
X147001265Y-83850812D01*
X146952994Y-83804495D01*
X146935236Y-83739997D01*
X146952996Y-83675500D01*
X147001268Y-83629184D01*
X147035306Y-83610763D01*
X147055688Y-83594899D01*
X147055689Y-83594898D01*
X146290001Y-82829210D01*
X146290000Y-82829210D01*
X145524310Y-83594899D01*
X145544699Y-83610768D01*
X145578733Y-83629187D01*
X145627004Y-83675503D01*
X145644763Y-83740000D01*
X145627004Y-83804497D01*
X145578733Y-83850813D01*
X145544702Y-83869229D01*
X145524310Y-83885099D01*
X145524310Y-83885101D01*
X138287514Y-83885101D01*
X134189157Y-82470000D01*
X142644785Y-82470000D01*
X142663603Y-82673085D01*
X142713426Y-82848192D01*
X142719418Y-82869250D01*
X142810327Y-83051821D01*
X142933236Y-83214579D01*
X143083959Y-83351981D01*
X143083961Y-83351982D01*
X143083962Y-83351983D01*
X143257359Y-83459346D01*
X143257361Y-83459346D01*
X143257363Y-83459348D01*
X143447544Y-83533024D01*
X143648024Y-83570500D01*
X143851974Y-83570500D01*
X143851976Y-83570500D01*
X144052456Y-83533024D01*
X144242637Y-83459348D01*
X144416041Y-83351981D01*
X144566764Y-83214579D01*
X144689673Y-83051821D01*
X144768062Y-82894393D01*
X144807386Y-82848192D01*
X144863747Y-82825725D01*
X144924074Y-82832205D01*
X144974378Y-82866128D01*
X144994601Y-82903935D01*
X144996984Y-82902891D01*
X145091580Y-83118548D01*
X145166922Y-83233866D01*
X145930789Y-82470001D01*
X146649210Y-82470001D01*
X147413076Y-83233867D01*
X147413077Y-83233866D01*
X147488418Y-83118551D01*
X147578819Y-82912457D01*
X147634068Y-82694283D01*
X147652653Y-82470000D01*
X147634068Y-82245716D01*
X147578819Y-82027543D01*
X147488417Y-81821446D01*
X147413076Y-81706132D01*
X146649210Y-82470000D01*
X146649210Y-82470001D01*
X145930789Y-82470001D01*
X145930790Y-82470000D01*
X145166922Y-81706133D01*
X145091580Y-81821451D01*
X144996984Y-82037109D01*
X144994602Y-82036064D01*
X144974373Y-82073877D01*
X144924068Y-82107796D01*
X144863743Y-82114273D01*
X144807385Y-82091806D01*
X144768060Y-82045603D01*
X144689673Y-81888179D01*
X144566764Y-81725421D01*
X144416041Y-81588019D01*
X144416038Y-81588017D01*
X144416037Y-81588016D01*
X144242640Y-81480653D01*
X144052456Y-81406976D01*
X144052455Y-81406975D01*
X143851976Y-81369500D01*
X143648024Y-81369500D01*
X143514370Y-81394484D01*
X143447543Y-81406976D01*
X143257359Y-81480653D01*
X143083962Y-81588016D01*
X142933235Y-81725422D01*
X142810328Y-81888177D01*
X142719417Y-82070752D01*
X142663603Y-82266914D01*
X142644785Y-82470000D01*
X134189157Y-82470000D01*
X133545492Y-82247752D01*
X133524535Y-82197157D01*
X133428282Y-82071717D01*
X133302842Y-81975464D01*
X133156761Y-81914955D01*
X133039361Y-81899500D01*
X132536897Y-81899500D01*
X130931272Y-81345101D01*
X145524310Y-81345101D01*
X146289999Y-82110790D01*
X146290000Y-82110790D01*
X147055689Y-81345100D01*
X147055688Y-81345099D01*
X147035302Y-81329232D01*
X147001265Y-81310812D01*
X146952994Y-81264495D01*
X146935236Y-81199997D01*
X146952996Y-81135500D01*
X147001268Y-81089184D01*
X147035306Y-81070763D01*
X147055688Y-81054899D01*
X147055689Y-81054898D01*
X146290001Y-80289210D01*
X146290000Y-80289210D01*
X145524310Y-81054899D01*
X145544699Y-81070768D01*
X145578733Y-81089187D01*
X145627004Y-81135503D01*
X145644763Y-81200000D01*
X145627004Y-81264497D01*
X145578733Y-81310813D01*
X145544702Y-81329229D01*
X145524310Y-81345099D01*
X145524310Y-81345101D01*
X130931272Y-81345101D01*
X130722120Y-81272884D01*
X129379235Y-79930000D01*
X142644785Y-79930000D01*
X142663603Y-80133085D01*
X142713426Y-80308192D01*
X142719418Y-80329250D01*
X142810327Y-80511821D01*
X142933236Y-80674579D01*
X143083959Y-80811981D01*
X143083961Y-80811982D01*
X143083962Y-80811983D01*
X143257359Y-80919346D01*
X143257361Y-80919346D01*
X143257363Y-80919348D01*
X143447544Y-80993024D01*
X143648024Y-81030500D01*
X143851974Y-81030500D01*
X143851976Y-81030500D01*
X144052456Y-80993024D01*
X144242637Y-80919348D01*
X144416041Y-80811981D01*
X144566764Y-80674579D01*
X144689673Y-80511821D01*
X144768062Y-80354393D01*
X144807386Y-80308192D01*
X144863747Y-80285725D01*
X144924074Y-80292205D01*
X144974378Y-80326128D01*
X144994601Y-80363935D01*
X144996984Y-80362891D01*
X145091580Y-80578548D01*
X145166922Y-80693866D01*
X145930789Y-79930001D01*
X146649210Y-79930001D01*
X147413076Y-80693867D01*
X147413077Y-80693866D01*
X147488418Y-80578551D01*
X147578819Y-80372457D01*
X147634068Y-80154283D01*
X147652653Y-79930000D01*
X147634068Y-79705716D01*
X147578819Y-79487543D01*
X147488417Y-79281446D01*
X147413076Y-79166132D01*
X146649210Y-79930000D01*
X146649210Y-79930001D01*
X145930789Y-79930001D01*
X145930790Y-79930000D01*
X145166922Y-79166133D01*
X145091580Y-79281451D01*
X144996984Y-79497109D01*
X144994602Y-79496064D01*
X144974373Y-79533877D01*
X144924068Y-79567796D01*
X144863743Y-79574273D01*
X144807385Y-79551806D01*
X144768060Y-79505603D01*
X144766685Y-79502841D01*
X144689673Y-79348179D01*
X144566764Y-79185421D01*
X144416041Y-79048019D01*
X144416038Y-79048017D01*
X144416037Y-79048016D01*
X144242640Y-78940653D01*
X144052456Y-78866976D01*
X144052455Y-78866975D01*
X143851976Y-78829500D01*
X143648024Y-78829500D01*
X143514370Y-78854484D01*
X143447543Y-78866976D01*
X143257359Y-78940653D01*
X143083962Y-79048016D01*
X142933235Y-79185422D01*
X142810328Y-79348177D01*
X142719417Y-79530752D01*
X142663603Y-79726914D01*
X142644785Y-79930000D01*
X129379235Y-79930000D01*
X128437405Y-78988170D01*
X128410091Y-78947293D01*
X128400500Y-78899075D01*
X128400500Y-78805101D01*
X145524310Y-78805101D01*
X146289999Y-79570790D01*
X146290000Y-79570790D01*
X147055689Y-78805100D01*
X147055688Y-78805099D01*
X147035302Y-78789232D01*
X147001265Y-78770812D01*
X146952994Y-78724495D01*
X146935236Y-78659997D01*
X146952996Y-78595500D01*
X147001268Y-78549184D01*
X147035306Y-78530763D01*
X147055688Y-78514899D01*
X147055689Y-78514898D01*
X146290001Y-77749210D01*
X146290000Y-77749210D01*
X145524310Y-78514899D01*
X145544699Y-78530768D01*
X145578733Y-78549187D01*
X145627004Y-78595503D01*
X145644763Y-78660000D01*
X145627004Y-78724497D01*
X145578733Y-78770813D01*
X145544702Y-78789229D01*
X145524310Y-78805099D01*
X145524310Y-78805101D01*
X128400500Y-78805101D01*
X128400500Y-77389999D01*
X142644785Y-77389999D01*
X142663603Y-77593085D01*
X142713426Y-77768192D01*
X142719418Y-77789250D01*
X142810327Y-77971821D01*
X142933236Y-78134579D01*
X143083959Y-78271981D01*
X143083961Y-78271982D01*
X143083962Y-78271983D01*
X143257359Y-78379346D01*
X143257361Y-78379346D01*
X143257363Y-78379348D01*
X143447544Y-78453024D01*
X143648024Y-78490500D01*
X143851974Y-78490500D01*
X143851976Y-78490500D01*
X144052456Y-78453024D01*
X144242637Y-78379348D01*
X144416041Y-78271981D01*
X144566764Y-78134579D01*
X144689673Y-77971821D01*
X144768062Y-77814393D01*
X144807386Y-77768192D01*
X144863747Y-77745725D01*
X144924074Y-77752205D01*
X144974378Y-77786128D01*
X144994601Y-77823935D01*
X144996984Y-77822891D01*
X145091580Y-78038548D01*
X145166922Y-78153866D01*
X145930789Y-77390001D01*
X146649210Y-77390001D01*
X147413076Y-78153867D01*
X147413077Y-78153866D01*
X147488418Y-78038551D01*
X147578819Y-77832457D01*
X147634068Y-77614283D01*
X147652653Y-77389999D01*
X147634068Y-77165716D01*
X147578819Y-76947543D01*
X147488417Y-76741446D01*
X147413076Y-76626132D01*
X146649210Y-77390000D01*
X146649210Y-77390001D01*
X145930789Y-77390001D01*
X145930790Y-77390000D01*
X145166922Y-76626133D01*
X145091580Y-76741451D01*
X144996984Y-76957109D01*
X144994602Y-76956064D01*
X144974373Y-76993877D01*
X144924068Y-77027796D01*
X144863743Y-77034273D01*
X144807385Y-77011806D01*
X144768060Y-76965603D01*
X144689673Y-76808179D01*
X144566764Y-76645421D01*
X144416041Y-76508019D01*
X144416038Y-76508017D01*
X144416037Y-76508016D01*
X144242640Y-76400653D01*
X144052456Y-76326976D01*
X144052455Y-76326975D01*
X143851976Y-76289500D01*
X143648024Y-76289500D01*
X143514370Y-76314484D01*
X143447543Y-76326976D01*
X143257359Y-76400653D01*
X143083962Y-76508016D01*
X142933235Y-76645422D01*
X142810328Y-76808177D01*
X142719417Y-76990752D01*
X142663603Y-77186914D01*
X142644785Y-77389999D01*
X128400500Y-77389999D01*
X128400500Y-77167619D01*
X128401578Y-77151173D01*
X128401673Y-77150444D01*
X128405682Y-77120000D01*
X128385044Y-76963238D01*
X128324536Y-76817159D01*
X128252450Y-76723215D01*
X128228282Y-76691718D01*
X128228280Y-76691717D01*
X128228280Y-76691716D01*
X128203328Y-76672569D01*
X128190937Y-76661702D01*
X127794336Y-76265101D01*
X145524310Y-76265101D01*
X146289999Y-77030790D01*
X146290000Y-77030790D01*
X147055689Y-76265100D01*
X147055688Y-76265099D01*
X147035302Y-76249232D01*
X147001265Y-76230812D01*
X146952994Y-76184495D01*
X146935236Y-76119997D01*
X146952996Y-76055500D01*
X147001268Y-76009184D01*
X147035306Y-75990763D01*
X147055688Y-75974899D01*
X147055689Y-75974898D01*
X146290001Y-75209210D01*
X146290000Y-75209210D01*
X145524310Y-75974899D01*
X145544699Y-75990768D01*
X145578733Y-76009187D01*
X145627004Y-76055503D01*
X145644763Y-76120000D01*
X145627004Y-76184497D01*
X145578733Y-76230813D01*
X145544702Y-76249229D01*
X145524310Y-76265099D01*
X145524310Y-76265101D01*
X127794336Y-76265101D01*
X127446497Y-75917262D01*
X127449692Y-74850000D01*
X142644785Y-74850000D01*
X142663603Y-75053085D01*
X142713426Y-75228192D01*
X142719418Y-75249250D01*
X142810327Y-75431821D01*
X142933236Y-75594579D01*
X143083959Y-75731981D01*
X143083961Y-75731982D01*
X143083962Y-75731983D01*
X143257359Y-75839346D01*
X143257361Y-75839346D01*
X143257363Y-75839348D01*
X143447544Y-75913024D01*
X143648024Y-75950500D01*
X143851974Y-75950500D01*
X143851976Y-75950500D01*
X144052456Y-75913024D01*
X144242637Y-75839348D01*
X144416041Y-75731981D01*
X144566764Y-75594579D01*
X144689673Y-75431821D01*
X144768062Y-75274393D01*
X144807386Y-75228192D01*
X144863747Y-75205725D01*
X144924074Y-75212205D01*
X144974378Y-75246128D01*
X144994601Y-75283935D01*
X144996984Y-75282891D01*
X145091580Y-75498548D01*
X145166922Y-75613866D01*
X145930789Y-74850001D01*
X146649210Y-74850001D01*
X147413076Y-75613867D01*
X147413077Y-75613866D01*
X147488418Y-75498551D01*
X147578819Y-75292457D01*
X147634068Y-75074283D01*
X147652653Y-74849999D01*
X147634068Y-74625716D01*
X147578819Y-74407543D01*
X147488417Y-74201446D01*
X147413076Y-74086132D01*
X146649210Y-74850000D01*
X146649210Y-74850001D01*
X145930789Y-74850001D01*
X145930790Y-74850000D01*
X145166922Y-74086133D01*
X145091580Y-74201451D01*
X144996984Y-74417109D01*
X144994602Y-74416064D01*
X144974373Y-74453877D01*
X144924068Y-74487796D01*
X144863743Y-74494273D01*
X144807385Y-74471806D01*
X144768060Y-74425603D01*
X144689673Y-74268179D01*
X144566764Y-74105421D01*
X144416041Y-73968019D01*
X144416038Y-73968017D01*
X144416037Y-73968016D01*
X144242640Y-73860653D01*
X144052456Y-73786976D01*
X144052455Y-73786975D01*
X143851976Y-73749500D01*
X143648024Y-73749500D01*
X143514370Y-73774484D01*
X143447543Y-73786976D01*
X143257359Y-73860653D01*
X143083962Y-73968016D01*
X142933235Y-74105422D01*
X142810328Y-74268177D01*
X142719417Y-74450752D01*
X142663603Y-74646914D01*
X142644785Y-74850000D01*
X127449692Y-74850000D01*
X127453060Y-73725101D01*
X145524310Y-73725101D01*
X146289999Y-74490790D01*
X146290000Y-74490790D01*
X147055689Y-73725100D01*
X147055688Y-73725099D01*
X147035302Y-73709232D01*
X147001265Y-73690812D01*
X146952994Y-73644495D01*
X146935236Y-73579997D01*
X146952996Y-73515500D01*
X147001268Y-73469184D01*
X147035306Y-73450763D01*
X147055688Y-73434899D01*
X147055689Y-73434898D01*
X146290001Y-72669210D01*
X146290000Y-72669210D01*
X145524310Y-73434899D01*
X145544699Y-73450768D01*
X145578733Y-73469187D01*
X145627004Y-73515503D01*
X145644763Y-73580000D01*
X145627004Y-73644497D01*
X145578733Y-73690813D01*
X145544702Y-73709229D01*
X145524310Y-73725099D01*
X145524310Y-73725101D01*
X127453060Y-73725101D01*
X127457297Y-72309999D01*
X142644785Y-72309999D01*
X142663603Y-72513085D01*
X142713426Y-72688192D01*
X142719418Y-72709250D01*
X142810327Y-72891821D01*
X142933236Y-73054579D01*
X143083959Y-73191981D01*
X143083961Y-73191982D01*
X143083962Y-73191983D01*
X143257359Y-73299346D01*
X143257361Y-73299346D01*
X143257363Y-73299348D01*
X143447544Y-73373024D01*
X143648024Y-73410500D01*
X143851974Y-73410500D01*
X143851976Y-73410500D01*
X144052456Y-73373024D01*
X144242637Y-73299348D01*
X144416041Y-73191981D01*
X144566764Y-73054579D01*
X144689673Y-72891821D01*
X144768062Y-72734393D01*
X144807386Y-72688192D01*
X144863747Y-72665725D01*
X144924074Y-72672205D01*
X144974378Y-72706128D01*
X144994601Y-72743935D01*
X144996984Y-72742891D01*
X145091580Y-72958548D01*
X145166922Y-73073866D01*
X145930789Y-72310001D01*
X146649210Y-72310001D01*
X147413076Y-73073867D01*
X147413077Y-73073866D01*
X147488418Y-72958551D01*
X147578819Y-72752457D01*
X147634068Y-72534283D01*
X147652653Y-72310000D01*
X147634068Y-72085716D01*
X147578819Y-71867543D01*
X147488417Y-71661446D01*
X147413076Y-71546132D01*
X146649210Y-72310000D01*
X146649210Y-72310001D01*
X145930789Y-72310001D01*
X145930790Y-72310000D01*
X145166922Y-71546133D01*
X145091580Y-71661451D01*
X144996984Y-71877109D01*
X144994602Y-71876064D01*
X144974373Y-71913877D01*
X144924068Y-71947796D01*
X144863743Y-71954273D01*
X144807385Y-71931806D01*
X144768060Y-71885603D01*
X144689673Y-71728179D01*
X144566764Y-71565421D01*
X144416041Y-71428019D01*
X144416038Y-71428017D01*
X144416037Y-71428016D01*
X144242640Y-71320653D01*
X144052456Y-71246976D01*
X144052455Y-71246975D01*
X143851976Y-71209500D01*
X143648024Y-71209500D01*
X143514370Y-71234483D01*
X143447543Y-71246976D01*
X143257359Y-71320653D01*
X143083962Y-71428016D01*
X142933235Y-71565422D01*
X142810328Y-71728177D01*
X142719417Y-71910752D01*
X142663603Y-72106914D01*
X142644785Y-72309999D01*
X127457297Y-72309999D01*
X127460665Y-71185101D01*
X145524310Y-71185101D01*
X146289999Y-71950790D01*
X146290000Y-71950790D01*
X147055689Y-71185100D01*
X147055688Y-71185099D01*
X147035302Y-71169232D01*
X147001265Y-71150812D01*
X146952994Y-71104495D01*
X146935236Y-71039997D01*
X146952996Y-70975500D01*
X147001268Y-70929184D01*
X147035306Y-70910763D01*
X147055688Y-70894899D01*
X147055689Y-70894898D01*
X146290001Y-70129210D01*
X146290000Y-70129210D01*
X145524310Y-70894899D01*
X145544699Y-70910768D01*
X145578733Y-70929187D01*
X145627004Y-70975503D01*
X145644763Y-71040000D01*
X145627004Y-71104497D01*
X145578733Y-71150813D01*
X145544702Y-71169229D01*
X145524310Y-71185099D01*
X145524310Y-71185101D01*
X127460665Y-71185101D01*
X127464902Y-69769999D01*
X142644785Y-69769999D01*
X142663603Y-69973085D01*
X142713426Y-70148192D01*
X142719418Y-70169250D01*
X142810327Y-70351821D01*
X142933236Y-70514579D01*
X143083959Y-70651981D01*
X143083961Y-70651982D01*
X143083962Y-70651983D01*
X143257359Y-70759346D01*
X143257361Y-70759346D01*
X143257363Y-70759348D01*
X143447544Y-70833024D01*
X143648024Y-70870500D01*
X143851974Y-70870500D01*
X143851976Y-70870500D01*
X144052456Y-70833024D01*
X144242637Y-70759348D01*
X144416041Y-70651981D01*
X144566764Y-70514579D01*
X144689673Y-70351821D01*
X144768062Y-70194393D01*
X144807386Y-70148192D01*
X144863747Y-70125725D01*
X144924074Y-70132205D01*
X144974378Y-70166128D01*
X144994601Y-70203935D01*
X144996984Y-70202891D01*
X145091580Y-70418548D01*
X145166922Y-70533866D01*
X145930789Y-69770001D01*
X146649210Y-69770001D01*
X147413076Y-70533867D01*
X147413077Y-70533866D01*
X147488418Y-70418551D01*
X147578819Y-70212457D01*
X147634068Y-69994283D01*
X147652653Y-69769999D01*
X147634068Y-69545716D01*
X147578819Y-69327543D01*
X147488417Y-69121446D01*
X147413076Y-69006132D01*
X146649210Y-69770000D01*
X146649210Y-69770001D01*
X145930789Y-69770001D01*
X145930790Y-69770000D01*
X145166922Y-69006133D01*
X145091580Y-69121451D01*
X144996984Y-69337109D01*
X144994602Y-69336064D01*
X144974373Y-69373877D01*
X144924068Y-69407796D01*
X144863743Y-69414273D01*
X144807385Y-69391806D01*
X144768060Y-69345603D01*
X144689673Y-69188179D01*
X144566764Y-69025421D01*
X144416041Y-68888019D01*
X144416038Y-68888017D01*
X144416037Y-68888016D01*
X144242640Y-68780653D01*
X144052456Y-68706976D01*
X143851976Y-68669500D01*
X143648024Y-68669500D01*
X143514370Y-68694484D01*
X143447543Y-68706976D01*
X143257359Y-68780653D01*
X143083962Y-68888016D01*
X142933235Y-69025422D01*
X142810328Y-69188177D01*
X142719417Y-69370752D01*
X142663603Y-69566914D01*
X142644785Y-69769999D01*
X127464902Y-69769999D01*
X127468270Y-68645101D01*
X145524310Y-68645101D01*
X146289999Y-69410790D01*
X146290000Y-69410790D01*
X147055689Y-68645100D01*
X147055688Y-68645099D01*
X147035302Y-68629232D01*
X147001265Y-68610812D01*
X146952994Y-68564495D01*
X146935236Y-68499997D01*
X146952996Y-68435500D01*
X147001268Y-68389184D01*
X147035306Y-68370763D01*
X147055688Y-68354899D01*
X147055689Y-68354898D01*
X146290001Y-67589210D01*
X146290000Y-67589210D01*
X145524310Y-68354899D01*
X145544699Y-68370768D01*
X145578733Y-68389187D01*
X145627004Y-68435503D01*
X145644763Y-68500000D01*
X145627004Y-68564497D01*
X145578733Y-68610813D01*
X145544702Y-68629229D01*
X145524310Y-68645099D01*
X145524310Y-68645101D01*
X127468270Y-68645101D01*
X127472507Y-67230000D01*
X142644785Y-67230000D01*
X142663603Y-67433085D01*
X142713426Y-67608192D01*
X142719418Y-67629250D01*
X142810327Y-67811821D01*
X142933236Y-67974579D01*
X143083959Y-68111981D01*
X143083961Y-68111982D01*
X143083962Y-68111983D01*
X143257359Y-68219346D01*
X143257361Y-68219346D01*
X143257363Y-68219348D01*
X143447544Y-68293024D01*
X143648024Y-68330500D01*
X143851974Y-68330500D01*
X143851976Y-68330500D01*
X144052456Y-68293024D01*
X144242637Y-68219348D01*
X144416041Y-68111981D01*
X144566764Y-67974579D01*
X144689673Y-67811821D01*
X144768062Y-67654393D01*
X144807386Y-67608192D01*
X144863747Y-67585725D01*
X144924074Y-67592205D01*
X144974378Y-67626128D01*
X144994601Y-67663935D01*
X144996984Y-67662891D01*
X145091580Y-67878548D01*
X145166922Y-67993866D01*
X145930789Y-67230001D01*
X146649210Y-67230001D01*
X147413076Y-67993867D01*
X147413077Y-67993866D01*
X147488418Y-67878551D01*
X147578819Y-67672457D01*
X147634068Y-67454283D01*
X147652653Y-67230000D01*
X147634068Y-67005716D01*
X147578819Y-66787543D01*
X147488417Y-66581446D01*
X147413076Y-66466132D01*
X146649210Y-67230000D01*
X146649210Y-67230001D01*
X145930789Y-67230001D01*
X145930790Y-67230000D01*
X145166922Y-66466133D01*
X145091580Y-66581451D01*
X144996984Y-66797109D01*
X144994602Y-66796064D01*
X144974373Y-66833877D01*
X144924068Y-66867796D01*
X144863743Y-66874273D01*
X144807385Y-66851806D01*
X144768060Y-66805603D01*
X144689673Y-66648179D01*
X144566764Y-66485421D01*
X144416041Y-66348019D01*
X144416038Y-66348017D01*
X144416037Y-66348016D01*
X144242640Y-66240653D01*
X144052456Y-66166976D01*
X143851976Y-66129500D01*
X143648024Y-66129500D01*
X143514370Y-66154483D01*
X143447543Y-66166976D01*
X143257359Y-66240653D01*
X143083962Y-66348016D01*
X142933235Y-66485422D01*
X142810328Y-66648177D01*
X142719417Y-66830752D01*
X142663603Y-67026914D01*
X142644785Y-67230000D01*
X127472507Y-67230000D01*
X127475875Y-66105101D01*
X145524310Y-66105101D01*
X146289999Y-66870790D01*
X146290000Y-66870790D01*
X147055689Y-66105100D01*
X147055688Y-66105099D01*
X147035302Y-66089232D01*
X147001265Y-66070812D01*
X146952994Y-66024495D01*
X146935236Y-65959997D01*
X146952996Y-65895500D01*
X147001268Y-65849184D01*
X147035306Y-65830763D01*
X147055688Y-65814899D01*
X147055689Y-65814898D01*
X146290001Y-65049210D01*
X146290000Y-65049210D01*
X145524310Y-65814899D01*
X145544699Y-65830768D01*
X145578733Y-65849187D01*
X145627004Y-65895503D01*
X145644763Y-65960000D01*
X145627004Y-66024497D01*
X145578733Y-66070813D01*
X145544702Y-66089229D01*
X145524310Y-66105099D01*
X145524310Y-66105101D01*
X127475875Y-66105101D01*
X127480112Y-64690000D01*
X142644785Y-64690000D01*
X142663603Y-64893085D01*
X142713426Y-65068192D01*
X142719418Y-65089250D01*
X142810327Y-65271821D01*
X142933236Y-65434579D01*
X143083959Y-65571981D01*
X143083961Y-65571982D01*
X143083962Y-65571983D01*
X143257359Y-65679346D01*
X143257361Y-65679346D01*
X143257363Y-65679348D01*
X143447544Y-65753024D01*
X143648024Y-65790500D01*
X143851974Y-65790500D01*
X143851976Y-65790500D01*
X144052456Y-65753024D01*
X144242637Y-65679348D01*
X144416041Y-65571981D01*
X144566764Y-65434579D01*
X144689673Y-65271821D01*
X144768062Y-65114393D01*
X144807386Y-65068192D01*
X144863747Y-65045725D01*
X144924074Y-65052205D01*
X144974378Y-65086128D01*
X144994601Y-65123935D01*
X144996984Y-65122891D01*
X145091580Y-65338548D01*
X145166922Y-65453866D01*
X145930789Y-64690001D01*
X146649210Y-64690001D01*
X147413076Y-65453867D01*
X147413077Y-65453866D01*
X147488418Y-65338551D01*
X147578819Y-65132457D01*
X147634068Y-64914283D01*
X147652653Y-64689999D01*
X147634068Y-64465716D01*
X147578819Y-64247543D01*
X147488417Y-64041446D01*
X147413076Y-63926132D01*
X146649210Y-64690000D01*
X146649210Y-64690001D01*
X145930789Y-64690001D01*
X145930790Y-64690000D01*
X145166922Y-63926133D01*
X145091580Y-64041451D01*
X144996984Y-64257109D01*
X144994602Y-64256064D01*
X144974373Y-64293877D01*
X144924068Y-64327796D01*
X144863743Y-64334273D01*
X144807385Y-64311806D01*
X144768060Y-64265603D01*
X144689673Y-64108179D01*
X144566764Y-63945421D01*
X144416041Y-63808019D01*
X144416038Y-63808017D01*
X144416037Y-63808016D01*
X144242640Y-63700653D01*
X144052456Y-63626976D01*
X143851976Y-63589500D01*
X143648024Y-63589500D01*
X143514370Y-63614483D01*
X143447543Y-63626976D01*
X143257359Y-63700653D01*
X143083962Y-63808016D01*
X142933235Y-63945422D01*
X142810328Y-64108177D01*
X142719417Y-64290752D01*
X142663603Y-64486914D01*
X142644785Y-64690000D01*
X127480112Y-64690000D01*
X127482462Y-63905146D01*
X142649500Y-61642829D01*
X142649500Y-62797874D01*
X142655908Y-62857481D01*
X142706204Y-62992331D01*
X142792453Y-63107546D01*
X142869563Y-63165270D01*
X142907669Y-63193796D01*
X143042517Y-63244091D01*
X143102127Y-63250500D01*
X144397872Y-63250499D01*
X144397874Y-63250499D01*
X144427677Y-63247295D01*
X144457483Y-63244091D01*
X144592331Y-63193796D01*
X144707546Y-63107546D01*
X144793796Y-62992331D01*
X144844091Y-62857483D01*
X144850500Y-62797873D01*
X144850499Y-61502128D01*
X144844091Y-61442517D01*
X144799207Y-61322177D01*
X145770465Y-61177305D01*
X145623960Y-61268018D01*
X145623958Y-61268019D01*
X145623959Y-61268019D01*
X145510207Y-61371718D01*
X145473235Y-61405422D01*
X145350328Y-61568177D01*
X145259417Y-61750752D01*
X145203603Y-61946914D01*
X145184785Y-62150000D01*
X145203603Y-62353085D01*
X145217094Y-62400500D01*
X145259418Y-62549250D01*
X145350327Y-62731821D01*
X145473236Y-62894579D01*
X145623959Y-63031981D01*
X145623961Y-63031982D01*
X145623962Y-63031983D01*
X145797359Y-63139346D01*
X145797361Y-63139346D01*
X145797363Y-63139348D01*
X145864280Y-63165271D01*
X145914073Y-63200350D01*
X145941595Y-63254689D01*
X145940411Y-63315589D01*
X145910797Y-63368818D01*
X145859675Y-63401935D01*
X145742627Y-63442118D01*
X145544700Y-63549231D01*
X145524310Y-63565099D01*
X145524310Y-63565101D01*
X146289999Y-64330790D01*
X146290000Y-64330790D01*
X147055689Y-63565100D01*
X147055688Y-63565099D01*
X147035302Y-63549232D01*
X146837372Y-63442118D01*
X146720324Y-63401935D01*
X146669202Y-63368818D01*
X146639588Y-63315589D01*
X146638404Y-63254689D01*
X146665926Y-63200350D01*
X146715719Y-63165271D01*
X146782637Y-63139348D01*
X146956041Y-63031981D01*
X147106764Y-62894579D01*
X147229673Y-62731821D01*
X147320582Y-62549250D01*
X147376397Y-62353083D01*
X147395215Y-62150000D01*
X147376397Y-61946917D01*
X147320582Y-61750750D01*
X147229673Y-61568179D01*
X147106764Y-61405421D01*
X146956041Y-61268019D01*
X146956038Y-61268017D01*
X146956037Y-61268016D01*
X146782640Y-61160653D01*
X146592451Y-61086974D01*
X146496418Y-61069022D01*
X148300000Y-60800000D01*
X148300000Y-86350000D01*
G37*
G04 #@! TD.AperFunction*
G04 #@! TA.AperFunction,Conductor*
G36*
X128127906Y-80377141D02*
G01*
X127433862Y-80137498D01*
X127435218Y-79684453D01*
X128127906Y-80377141D01*
G37*
G04 #@! TD.AperFunction*
G04 #@! TA.AperFunction,Conductor*
G36*
X132102474Y-81749500D02*
G01*
X131563853Y-81749500D01*
X131545593Y-81748170D01*
X131521977Y-81744711D01*
X131473930Y-81748914D01*
X131419854Y-81741794D01*
X131373855Y-81712488D01*
X131046126Y-81384758D01*
X132102474Y-81749500D01*
G37*
G04 #@! TD.AperFunction*
G04 #@! TA.AperFunction,Conductor*
G36*
X143411977Y-50517381D02*
G01*
X143458096Y-50563500D01*
X143474977Y-50626500D01*
X143474977Y-54726063D01*
X145199977Y-56526063D01*
X149373500Y-56526063D01*
X149436500Y-56542944D01*
X149482619Y-56589063D01*
X149499500Y-56652063D01*
X149499500Y-90473977D01*
X149482619Y-90536977D01*
X149436500Y-90583096D01*
X149373500Y-90599977D01*
X145273937Y-90599977D01*
X144393086Y-91444125D01*
X143473937Y-92324976D01*
X143473937Y-96523500D01*
X143457056Y-96586500D01*
X143410937Y-96632619D01*
X143347937Y-96649500D01*
X106651023Y-96649500D01*
X106588023Y-96632619D01*
X106541904Y-96586500D01*
X106525023Y-96523500D01*
X106525023Y-92423938D01*
X106525023Y-92423937D01*
X104800023Y-90623937D01*
X100626500Y-90623937D01*
X100563500Y-90607056D01*
X100517381Y-90560937D01*
X100500500Y-90497937D01*
X100500500Y-78149000D01*
X101823693Y-78149000D01*
X101864223Y-78282609D01*
X101957823Y-78457723D01*
X102083787Y-78611212D01*
X102237276Y-78737176D01*
X102412390Y-78830776D01*
X102602396Y-78888415D01*
X102750479Y-78903000D01*
X102846000Y-78903000D01*
X103354000Y-78903000D01*
X103449521Y-78903000D01*
X103597603Y-78888415D01*
X103787609Y-78830776D01*
X103962726Y-78737174D01*
X104043567Y-78670831D01*
X104108076Y-78643178D01*
X104177372Y-78654327D01*
X104229952Y-78700820D01*
X104249500Y-78768230D01*
X104249500Y-79202643D01*
X104246620Y-79229426D01*
X104245641Y-79233925D01*
X104249179Y-79283391D01*
X104249500Y-79292380D01*
X104249500Y-79305798D01*
X104251410Y-79319088D01*
X104252370Y-79328019D01*
X104255909Y-79377484D01*
X104257518Y-79381798D01*
X104264178Y-79407891D01*
X104264834Y-79412454D01*
X104264834Y-79412455D01*
X104264835Y-79412457D01*
X104279564Y-79444710D01*
X104285431Y-79457555D01*
X104288872Y-79465865D01*
X104306202Y-79512329D01*
X104308966Y-79516021D01*
X104322709Y-79539184D01*
X104324621Y-79543372D01*
X104357091Y-79580844D01*
X104362733Y-79587846D01*
X104370774Y-79598588D01*
X104370778Y-79598592D01*
X104370779Y-79598593D01*
X104380275Y-79608089D01*
X104386392Y-79614659D01*
X104418872Y-79652143D01*
X104422749Y-79654635D01*
X104443723Y-79671537D01*
X104953909Y-80181723D01*
X104978099Y-80215659D01*
X104989895Y-80255630D01*
X105004859Y-80378871D01*
X105065181Y-80537929D01*
X105067729Y-80541620D01*
X105161817Y-80677929D01*
X105289148Y-80790734D01*
X105439775Y-80869790D01*
X105604944Y-80910500D01*
X105775054Y-80910500D01*
X105775056Y-80910500D01*
X105940225Y-80869790D01*
X106090852Y-80790734D01*
X106218183Y-80677929D01*
X106314818Y-80537930D01*
X106375140Y-80378872D01*
X106395645Y-80210000D01*
X106375140Y-80041128D01*
X106314818Y-79882070D01*
X106218183Y-79742071D01*
X106090852Y-79629266D01*
X105940225Y-79550210D01*
X105775056Y-79509500D01*
X105775054Y-79509500D01*
X105749504Y-79509500D01*
X105701286Y-79499909D01*
X105660409Y-79472595D01*
X105287405Y-79099591D01*
X105260091Y-79058714D01*
X105250500Y-79010496D01*
X105250500Y-78149000D01*
X105753693Y-78149000D01*
X105794223Y-78282609D01*
X105887823Y-78457723D01*
X106013787Y-78611212D01*
X106167276Y-78737176D01*
X106342390Y-78830776D01*
X106532396Y-78888415D01*
X106680479Y-78903000D01*
X107026000Y-78903000D01*
X107026000Y-78149000D01*
X107534000Y-78149000D01*
X107534000Y-78903000D01*
X107879521Y-78903000D01*
X108027603Y-78888415D01*
X108217609Y-78830776D01*
X108392723Y-78737176D01*
X108546212Y-78611212D01*
X108672176Y-78457723D01*
X108765776Y-78282609D01*
X108806307Y-78149000D01*
X107534000Y-78149000D01*
X107026000Y-78149000D01*
X105753693Y-78149000D01*
X105250500Y-78149000D01*
X105250500Y-77640999D01*
X105753692Y-77640999D01*
X105753693Y-77641000D01*
X108806307Y-77641000D01*
X108806307Y-77640999D01*
X108765776Y-77507390D01*
X108672176Y-77332276D01*
X108546212Y-77178787D01*
X108392723Y-77052823D01*
X108217609Y-76959223D01*
X108027603Y-76901584D01*
X107879521Y-76887000D01*
X107386691Y-76887000D01*
X107327295Y-76872122D01*
X107281926Y-76831002D01*
X107261298Y-76773350D01*
X107270282Y-76712782D01*
X107295730Y-76651344D01*
X107310687Y-76615236D01*
X107330466Y-76465000D01*
X107310687Y-76314764D01*
X107252698Y-76174767D01*
X107160451Y-76054549D01*
X107040233Y-75962302D01*
X107040232Y-75962301D01*
X106900235Y-75904312D01*
X106787720Y-75889500D01*
X106712280Y-75889500D01*
X106599764Y-75904312D01*
X106459767Y-75962301D01*
X106339549Y-76054549D01*
X106247301Y-76174767D01*
X106189312Y-76314764D01*
X106169534Y-76464999D01*
X106189312Y-76615235D01*
X106247301Y-76755232D01*
X106295553Y-76818115D01*
X106318528Y-76867212D01*
X106318750Y-76921419D01*
X106296177Y-76970702D01*
X106254987Y-77005941D01*
X106167274Y-77052824D01*
X106013787Y-77178787D01*
X105887823Y-77332276D01*
X105794223Y-77507390D01*
X105753692Y-77640999D01*
X105250500Y-77640999D01*
X105250500Y-76459504D01*
X105260091Y-76411286D01*
X105287405Y-76370409D01*
X106170409Y-75487405D01*
X106211286Y-75460091D01*
X106259504Y-75450500D01*
X108820921Y-75450500D01*
X108870309Y-75460583D01*
X108911793Y-75489217D01*
X108938733Y-75531821D01*
X108969848Y-75613867D01*
X108975182Y-75627930D01*
X109071817Y-75767929D01*
X109199148Y-75880734D01*
X109349775Y-75959790D01*
X109514944Y-76000500D01*
X109685054Y-76000500D01*
X109685056Y-76000500D01*
X109850225Y-75959790D01*
X110000852Y-75880734D01*
X110128183Y-75767929D01*
X110224818Y-75627930D01*
X110285140Y-75468872D01*
X110305645Y-75300000D01*
X110285140Y-75131128D01*
X110224818Y-74972070D01*
X110128183Y-74832071D01*
X110000852Y-74719266D01*
X109850225Y-74640210D01*
X109685056Y-74599500D01*
X109685054Y-74599500D01*
X109658897Y-74599500D01*
X109619106Y-74593052D01*
X109583387Y-74574368D01*
X109578591Y-74570778D01*
X109567842Y-74562731D01*
X109560844Y-74557091D01*
X109523372Y-74524621D01*
X109519184Y-74522709D01*
X109496021Y-74508966D01*
X109492329Y-74506202D01*
X109445865Y-74488872D01*
X109437566Y-74485435D01*
X109392457Y-74464835D01*
X109392455Y-74464834D01*
X109392454Y-74464834D01*
X109387891Y-74464178D01*
X109361798Y-74457518D01*
X109357484Y-74455909D01*
X109308019Y-74452370D01*
X109299088Y-74451410D01*
X109290028Y-74450108D01*
X109285799Y-74449500D01*
X109285798Y-74449500D01*
X109272380Y-74449500D01*
X109263391Y-74449179D01*
X109213927Y-74445641D01*
X109213926Y-74445641D01*
X109209426Y-74446620D01*
X109182643Y-74449500D01*
X106067357Y-74449500D01*
X106040574Y-74446620D01*
X106036074Y-74445641D01*
X106036073Y-74445641D01*
X105986609Y-74449179D01*
X105977620Y-74449500D01*
X105964201Y-74449500D01*
X105958646Y-74450298D01*
X105950912Y-74451410D01*
X105941981Y-74452370D01*
X105892513Y-74455909D01*
X105888195Y-74457520D01*
X105862108Y-74464178D01*
X105857541Y-74464834D01*
X105812434Y-74485434D01*
X105804128Y-74488875D01*
X105757666Y-74506205D01*
X105753970Y-74508972D01*
X105730822Y-74522706D01*
X105726629Y-74524621D01*
X105689153Y-74557093D01*
X105682156Y-74562731D01*
X105671406Y-74570778D01*
X105661908Y-74580276D01*
X105655333Y-74586398D01*
X105617854Y-74618874D01*
X105615361Y-74622754D01*
X105598463Y-74643721D01*
X104443721Y-75798463D01*
X104422754Y-75815361D01*
X104418874Y-75817854D01*
X104386398Y-75855333D01*
X104380276Y-75861908D01*
X104370778Y-75871406D01*
X104362731Y-75882156D01*
X104357093Y-75889153D01*
X104324621Y-75926629D01*
X104322706Y-75930822D01*
X104308972Y-75953970D01*
X104306205Y-75957666D01*
X104288875Y-76004128D01*
X104285434Y-76012434D01*
X104264834Y-76057541D01*
X104264178Y-76062108D01*
X104257520Y-76088195D01*
X104255909Y-76092513D01*
X104252370Y-76141981D01*
X104251410Y-76150912D01*
X104249500Y-76164202D01*
X104249500Y-76177620D01*
X104249179Y-76186609D01*
X104245641Y-76236074D01*
X104246620Y-76240574D01*
X104249500Y-76267357D01*
X104249500Y-77021770D01*
X104229952Y-77089180D01*
X104177372Y-77135673D01*
X104108076Y-77146822D01*
X104043567Y-77119169D01*
X103962726Y-77052825D01*
X103787609Y-76959223D01*
X103597603Y-76901584D01*
X103449521Y-76887000D01*
X103354000Y-76887000D01*
X103354000Y-78903000D01*
X102846000Y-78903000D01*
X102846000Y-78149000D01*
X101823693Y-78149000D01*
X100500500Y-78149000D01*
X100500500Y-77640999D01*
X101823692Y-77640999D01*
X101823693Y-77641000D01*
X102846000Y-77641000D01*
X102846000Y-76887000D01*
X102750479Y-76887000D01*
X102602396Y-76901584D01*
X102412390Y-76959223D01*
X102237276Y-77052823D01*
X102083787Y-77178787D01*
X101957823Y-77332276D01*
X101864223Y-77507390D01*
X101823692Y-77640999D01*
X100500500Y-77640999D01*
X100500500Y-69509000D01*
X101823693Y-69509000D01*
X101864223Y-69642609D01*
X101957823Y-69817723D01*
X102083787Y-69971212D01*
X102237276Y-70097176D01*
X102412390Y-70190776D01*
X102602396Y-70248415D01*
X102750479Y-70263000D01*
X102846000Y-70263000D01*
X103354000Y-70263000D01*
X103449521Y-70263000D01*
X103597603Y-70248415D01*
X103787609Y-70190776D01*
X103962723Y-70097176D01*
X104116212Y-69971212D01*
X104126100Y-69959164D01*
X104175282Y-69922688D01*
X104235850Y-69913704D01*
X104293502Y-69934332D01*
X104334622Y-69979701D01*
X104349500Y-70039097D01*
X104349500Y-70882643D01*
X104346620Y-70909426D01*
X104345688Y-70913713D01*
X104345641Y-70913927D01*
X104347000Y-70932921D01*
X104349179Y-70963391D01*
X104349500Y-70972380D01*
X104349500Y-70985798D01*
X104351410Y-70999088D01*
X104352370Y-71008019D01*
X104355909Y-71057484D01*
X104357518Y-71061798D01*
X104364178Y-71087891D01*
X104364834Y-71092454D01*
X104364834Y-71092455D01*
X104364835Y-71092457D01*
X104382174Y-71130425D01*
X104385431Y-71137555D01*
X104388872Y-71145865D01*
X104406202Y-71192329D01*
X104408966Y-71196021D01*
X104422709Y-71219184D01*
X104424621Y-71223372D01*
X104457091Y-71260844D01*
X104462733Y-71267846D01*
X104470774Y-71278588D01*
X104470778Y-71278592D01*
X104470779Y-71278593D01*
X104480275Y-71288089D01*
X104486392Y-71294659D01*
X104518872Y-71332143D01*
X104522749Y-71334635D01*
X104543723Y-71351537D01*
X106088459Y-72896272D01*
X106105362Y-72917246D01*
X106107856Y-72921127D01*
X106145345Y-72953611D01*
X106151916Y-72959729D01*
X106161407Y-72969220D01*
X106161409Y-72969222D01*
X106172142Y-72977256D01*
X106179148Y-72982902D01*
X106216626Y-73015377D01*
X106220815Y-73017290D01*
X106243982Y-73031036D01*
X106247669Y-73033796D01*
X106294128Y-73051124D01*
X106302437Y-73054565D01*
X106344699Y-73073866D01*
X106347543Y-73075165D01*
X106352099Y-73075820D01*
X106378203Y-73082482D01*
X106382517Y-73084091D01*
X106425671Y-73087177D01*
X106465538Y-73096713D01*
X106500236Y-73118543D01*
X106559148Y-73170734D01*
X106709775Y-73249790D01*
X106874944Y-73290500D01*
X107045054Y-73290500D01*
X107045056Y-73290500D01*
X107210225Y-73249790D01*
X107360852Y-73170734D01*
X107488183Y-73057929D01*
X107584818Y-72917930D01*
X107645140Y-72758872D01*
X107665645Y-72590000D01*
X107645140Y-72421128D01*
X107584818Y-72262070D01*
X107488183Y-72122071D01*
X107360852Y-72009266D01*
X107210225Y-71930210D01*
X107045056Y-71889500D01*
X106874944Y-71889500D01*
X106709775Y-71930210D01*
X106709774Y-71930210D01*
X106709772Y-71930211D01*
X106679230Y-71946241D01*
X106628283Y-71960443D01*
X106575995Y-71952485D01*
X106531581Y-71923768D01*
X105963509Y-71355696D01*
X105387405Y-70779591D01*
X105360091Y-70738714D01*
X105350500Y-70690496D01*
X105350500Y-69509000D01*
X105753693Y-69509000D01*
X105794223Y-69642609D01*
X105887823Y-69817723D01*
X106013787Y-69971212D01*
X106167278Y-70097177D01*
X106254986Y-70144058D01*
X106296177Y-70179296D01*
X106318751Y-70228580D01*
X106318529Y-70282787D01*
X106295553Y-70331884D01*
X106247302Y-70394765D01*
X106189312Y-70534764D01*
X106169534Y-70685000D01*
X106189312Y-70835235D01*
X106247301Y-70975232D01*
X106265607Y-70999088D01*
X106339549Y-71095451D01*
X106459767Y-71187698D01*
X106599764Y-71245687D01*
X106712280Y-71260500D01*
X106787720Y-71260500D01*
X106900236Y-71245687D01*
X107040233Y-71187698D01*
X107160451Y-71095451D01*
X107252698Y-70975233D01*
X107310687Y-70835236D01*
X107323485Y-70738023D01*
X113244711Y-70738023D01*
X113247424Y-70769039D01*
X113249021Y-70787289D01*
X113249500Y-70798269D01*
X113249500Y-70803713D01*
X113253090Y-70834432D01*
X113253462Y-70838073D01*
X113260123Y-70914201D01*
X113264273Y-70932921D01*
X113272560Y-70955689D01*
X113288355Y-70999088D01*
X113290402Y-71004710D01*
X113291604Y-71008170D01*
X113315631Y-71080678D01*
X113323988Y-71097940D01*
X113365966Y-71161765D01*
X113367923Y-71164836D01*
X113407288Y-71228656D01*
X113408037Y-71229870D01*
X113420139Y-71244725D01*
X113475707Y-71297150D01*
X113478302Y-71299670D01*
X113525101Y-71346469D01*
X113570223Y-71391591D01*
X113673324Y-71473112D01*
X113800085Y-71532222D01*
X113832327Y-71547257D01*
X114004144Y-71582734D01*
X114179512Y-71577631D01*
X114348976Y-71532223D01*
X114503400Y-71448959D01*
X114634459Y-71332326D01*
X114695124Y-71245687D01*
X114735086Y-71188615D01*
X114735086Y-71188614D01*
X114735088Y-71188612D01*
X114799862Y-71025567D01*
X114825289Y-70851977D01*
X114809999Y-70677203D01*
X114805929Y-70664921D01*
X114756896Y-70516947D01*
X114750500Y-70477314D01*
X114750500Y-64751080D01*
X114763902Y-64694532D01*
X114774593Y-64673244D01*
X114780880Y-64655156D01*
X114786621Y-64627350D01*
X114796343Y-64580263D01*
X114797104Y-64576828D01*
X114814411Y-64503810D01*
X114814411Y-64503806D01*
X114814739Y-64502422D01*
X114816686Y-64483369D01*
X114816172Y-64465716D01*
X114814464Y-64406989D01*
X114814411Y-64403325D01*
X114814411Y-64299147D01*
X114824002Y-64250929D01*
X114851316Y-64210052D01*
X116063962Y-62997405D01*
X116104839Y-62970091D01*
X116153057Y-62960500D01*
X119415023Y-62960500D01*
X119463240Y-62970091D01*
X119504117Y-62997404D01*
X119548594Y-63041880D01*
X119575909Y-63082757D01*
X119585500Y-63130976D01*
X119585500Y-63900941D01*
X119575909Y-63949159D01*
X119548595Y-63990037D01*
X118798219Y-64740411D01*
X118768928Y-64762218D01*
X118762598Y-64765631D01*
X118744760Y-64781505D01*
X118730240Y-64792646D01*
X118710303Y-64805759D01*
X118676366Y-64841729D01*
X118668486Y-64849383D01*
X118631536Y-64882266D01*
X118617842Y-64901823D01*
X118606286Y-64916009D01*
X118589905Y-64933373D01*
X118565174Y-64976207D01*
X118559271Y-64985473D01*
X118530909Y-65025979D01*
X118522094Y-65048167D01*
X118514119Y-65064639D01*
X118502185Y-65085309D01*
X118488002Y-65132681D01*
X118484396Y-65143057D01*
X118466135Y-65189024D01*
X118462675Y-65212643D01*
X118458714Y-65230509D01*
X118451868Y-65253377D01*
X118448991Y-65302759D01*
X118447874Y-65313688D01*
X118440708Y-65362613D01*
X118442788Y-65386393D01*
X118443054Y-65404691D01*
X118441666Y-65428525D01*
X118450254Y-65477232D01*
X118451688Y-65488127D01*
X118455998Y-65537385D01*
X118463508Y-65560051D01*
X118467987Y-65577796D01*
X118472132Y-65601302D01*
X118491715Y-65646700D01*
X118495624Y-65656972D01*
X118511182Y-65703922D01*
X118523713Y-65724239D01*
X118532164Y-65740474D01*
X118541620Y-65762394D01*
X118571146Y-65802055D01*
X118577318Y-65811148D01*
X118603284Y-65853245D01*
X118603285Y-65853246D01*
X118603286Y-65853247D01*
X118620168Y-65870129D01*
X118632135Y-65883976D01*
X118646389Y-65903123D01*
X118684268Y-65934907D01*
X118692372Y-65942333D01*
X118937595Y-66187556D01*
X118964909Y-66228433D01*
X118974500Y-66276651D01*
X118974500Y-68400000D01*
X118090500Y-68400000D01*
X118090500Y-65673444D01*
X118087965Y-65651759D01*
X118075241Y-65542898D01*
X118015237Y-65378036D01*
X118005093Y-65362613D01*
X117918830Y-65231456D01*
X117791218Y-65111061D01*
X117639283Y-65023341D01*
X117497734Y-64980964D01*
X117471210Y-64973023D01*
X117296065Y-64962822D01*
X117123289Y-64993288D01*
X116962193Y-65062777D01*
X116821471Y-65167541D01*
X116708698Y-65301938D01*
X116657094Y-65404691D01*
X116629960Y-65458720D01*
X116597837Y-65594259D01*
X116589500Y-65629434D01*
X116589500Y-66473500D01*
X116572619Y-66536500D01*
X116526500Y-66582619D01*
X116463500Y-66599500D01*
X116405444Y-66599500D01*
X116240275Y-66640210D01*
X116145154Y-66690134D01*
X116089648Y-66719266D01*
X115962316Y-66832072D01*
X115865681Y-66972070D01*
X115805359Y-67131128D01*
X115784855Y-67299999D01*
X115805359Y-67468871D01*
X115865681Y-67627929D01*
X115967696Y-67775722D01*
X115984295Y-67809812D01*
X115990000Y-67847298D01*
X115990000Y-68052702D01*
X115984295Y-68090188D01*
X115967696Y-68124278D01*
X115865681Y-68272070D01*
X115805359Y-68431128D01*
X115784855Y-68600000D01*
X115805359Y-68768871D01*
X115865681Y-68927929D01*
X115865682Y-68927930D01*
X115962317Y-69067929D01*
X116000000Y-69101313D01*
X116000000Y-76750000D01*
X115650500Y-76750000D01*
X115650500Y-76593852D01*
X115651830Y-76575592D01*
X115655289Y-76551977D01*
X115650979Y-76502711D01*
X115650500Y-76491731D01*
X115650500Y-76486295D01*
X115650500Y-76486291D01*
X115646899Y-76455491D01*
X115646537Y-76451950D01*
X115639999Y-76377203D01*
X115639997Y-76377198D01*
X115639874Y-76375787D01*
X115635728Y-76357086D01*
X115635241Y-76355749D01*
X115635241Y-76355745D01*
X115609576Y-76285231D01*
X115608419Y-76281902D01*
X115584814Y-76210666D01*
X115584812Y-76210663D01*
X115584364Y-76209310D01*
X115576015Y-76192067D01*
X115575237Y-76190885D01*
X115575237Y-76190883D01*
X115536106Y-76131388D01*
X115534028Y-76128228D01*
X115532081Y-76125172D01*
X115492712Y-76061345D01*
X115492711Y-76061344D01*
X115491970Y-76060142D01*
X115479862Y-76045279D01*
X115478832Y-76044307D01*
X115478830Y-76044304D01*
X115424280Y-75992840D01*
X115421687Y-75990320D01*
X115391157Y-75959790D01*
X115359777Y-75928409D01*
X115357526Y-75926629D01*
X115256675Y-75846887D01*
X115097674Y-75772743D01*
X114925857Y-75737266D01*
X114925856Y-75737266D01*
X114838171Y-75739817D01*
X114750487Y-75742369D01*
X114581023Y-75787777D01*
X114426600Y-75871040D01*
X114295538Y-75987676D01*
X114194913Y-76131384D01*
X114130138Y-76294433D01*
X114104711Y-76468022D01*
X114120001Y-76642799D01*
X114143104Y-76712516D01*
X114149500Y-76752150D01*
X114149500Y-79820147D01*
X114148170Y-79838407D01*
X114144858Y-79861021D01*
X114144711Y-79862023D01*
X114145950Y-79876188D01*
X114149021Y-79911289D01*
X114149500Y-79922269D01*
X114149500Y-79927713D01*
X114153090Y-79958432D01*
X114153462Y-79962073D01*
X114160123Y-80038201D01*
X114164273Y-80056921D01*
X114190402Y-80128710D01*
X114191604Y-80132170D01*
X114215631Y-80204678D01*
X114223988Y-80221940D01*
X114265966Y-80285765D01*
X114267935Y-80288855D01*
X114308037Y-80353870D01*
X114320139Y-80368725D01*
X114375707Y-80421150D01*
X114378302Y-80423670D01*
X115106223Y-81151591D01*
X115186067Y-81214723D01*
X115209324Y-81233112D01*
X115318050Y-81283812D01*
X115368327Y-81307257D01*
X115540144Y-81342734D01*
X115650000Y-81339537D01*
X115650000Y-81350000D01*
X117200000Y-81350000D01*
X117200000Y-81341789D01*
X117303201Y-81332761D01*
X117469738Y-81277576D01*
X117619060Y-81185474D01*
X117785538Y-81018993D01*
X117799385Y-81007027D01*
X117818530Y-80992776D01*
X117850317Y-80954892D01*
X117857740Y-80946792D01*
X117861591Y-80942942D01*
X117880802Y-80918644D01*
X117883086Y-80915839D01*
X117931302Y-80858380D01*
X117931303Y-80858376D01*
X117932217Y-80857288D01*
X117942508Y-80841134D01*
X117943108Y-80839846D01*
X117943111Y-80839843D01*
X117974801Y-80771881D01*
X117976396Y-80768588D01*
X118010684Y-80700316D01*
X118016966Y-80682240D01*
X118017253Y-80680845D01*
X118017257Y-80680839D01*
X118032444Y-80607278D01*
X118033192Y-80603910D01*
X118050500Y-80530887D01*
X118050500Y-80530884D01*
X118050828Y-80529500D01*
X118052775Y-80510445D01*
X118052295Y-80493952D01*
X118050553Y-80434069D01*
X118050500Y-80430405D01*
X118050500Y-76800000D01*
X119300000Y-76800000D01*
X119300000Y-81500000D01*
X120165500Y-81500000D01*
X120165500Y-81702147D01*
X120164170Y-81720407D01*
X120161038Y-81741794D01*
X120160711Y-81744023D01*
X120164553Y-81787950D01*
X120165021Y-81793289D01*
X120165500Y-81804269D01*
X120165500Y-81809713D01*
X120169090Y-81840432D01*
X120169462Y-81844073D01*
X120176123Y-81920201D01*
X120180273Y-81938921D01*
X120180759Y-81940255D01*
X120195759Y-81981470D01*
X120206402Y-82010710D01*
X120207604Y-82014170D01*
X120231631Y-82086678D01*
X120239988Y-82103940D01*
X120281966Y-82167765D01*
X120283935Y-82170855D01*
X120324037Y-82235870D01*
X120336139Y-82250725D01*
X120359966Y-82273204D01*
X120389195Y-82314947D01*
X120399500Y-82364853D01*
X120399500Y-92126147D01*
X120398170Y-92144407D01*
X120394711Y-92168023D01*
X120398553Y-92211950D01*
X120399021Y-92217289D01*
X120399500Y-92228269D01*
X120399500Y-92233713D01*
X120403090Y-92264432D01*
X120403462Y-92268073D01*
X120410123Y-92344201D01*
X120414273Y-92362921D01*
X120440402Y-92434710D01*
X120441604Y-92438170D01*
X120465631Y-92510678D01*
X120473988Y-92527940D01*
X120515966Y-92591765D01*
X120517935Y-92594855D01*
X120558037Y-92659870D01*
X120570136Y-92674721D01*
X120625700Y-92727144D01*
X120628328Y-92729696D01*
X120680223Y-92781590D01*
X120783323Y-92863111D01*
X120942327Y-92937256D01*
X121114144Y-92972733D01*
X121289512Y-92967631D01*
X121458975Y-92922223D01*
X121613400Y-92838959D01*
X121744459Y-92722326D01*
X121845087Y-92578612D01*
X121901576Y-92436423D01*
X121909861Y-92415569D01*
X121909861Y-92415568D01*
X121909862Y-92415566D01*
X121935289Y-92241977D01*
X121919998Y-92067202D01*
X121906895Y-92027659D01*
X121900500Y-91988027D01*
X121900500Y-82063853D01*
X121901830Y-82045593D01*
X121902635Y-82040090D01*
X121905289Y-82021977D01*
X121900979Y-81972711D01*
X121900500Y-81961731D01*
X121900500Y-81956295D01*
X121898469Y-81938921D01*
X121896899Y-81925491D01*
X121896537Y-81921950D01*
X121889999Y-81847203D01*
X121889997Y-81847198D01*
X121889874Y-81845787D01*
X121885728Y-81827086D01*
X121885241Y-81825749D01*
X121885241Y-81825745D01*
X121859576Y-81755231D01*
X121858419Y-81751902D01*
X121834814Y-81680666D01*
X121834813Y-81680664D01*
X121834366Y-81679315D01*
X121826017Y-81662068D01*
X121784038Y-81598242D01*
X121782070Y-81595152D01*
X121741965Y-81530132D01*
X121729866Y-81515282D01*
X121728830Y-81514305D01*
X121728830Y-81514304D01*
X121713669Y-81500000D01*
X123225000Y-81500000D01*
X123225000Y-76800000D01*
X124400000Y-76800000D01*
X124400000Y-76350500D01*
X125916941Y-76350500D01*
X125965159Y-76360091D01*
X126006036Y-76387404D01*
X126518463Y-76899830D01*
X126518465Y-76899833D01*
X126527287Y-76908655D01*
X126527288Y-76908656D01*
X126784348Y-77165716D01*
X127012595Y-77393962D01*
X127039909Y-77434840D01*
X127049500Y-77483058D01*
X127049500Y-79136147D01*
X127048170Y-79154407D01*
X127044711Y-79178021D01*
X127049021Y-79227289D01*
X127049500Y-79238269D01*
X127049500Y-79243713D01*
X127053090Y-79274432D01*
X127053462Y-79278073D01*
X127060123Y-79354201D01*
X127064273Y-79372921D01*
X127090402Y-79444710D01*
X127091604Y-79448170D01*
X127115631Y-79520678D01*
X127123988Y-79537940D01*
X127165966Y-79601765D01*
X127167923Y-79604836D01*
X127197103Y-79652143D01*
X127208037Y-79669870D01*
X127220139Y-79684725D01*
X127275708Y-79737151D01*
X127278337Y-79739705D01*
X127434585Y-79895953D01*
X127433862Y-80137498D01*
X127803898Y-80265265D01*
X130512595Y-82973962D01*
X130539909Y-83014839D01*
X130549500Y-83063057D01*
X130549500Y-91899691D01*
X130542429Y-91941306D01*
X130514632Y-92020742D01*
X130494435Y-92200000D01*
X130514632Y-92379257D01*
X130574210Y-92549521D01*
X130670184Y-92702263D01*
X130797736Y-92829815D01*
X130950478Y-92925789D01*
X131070055Y-92967631D01*
X131120745Y-92985368D01*
X131300000Y-93005565D01*
X131479255Y-92985368D01*
X131649522Y-92925789D01*
X131802262Y-92829816D01*
X131929816Y-92702262D01*
X132025789Y-92549522D01*
X132085368Y-92379255D01*
X132105565Y-92200000D01*
X132085368Y-92020745D01*
X132057570Y-91941305D01*
X132050500Y-91899691D01*
X132050500Y-90554000D01*
X132592000Y-90554000D01*
X132592000Y-90848589D01*
X132598505Y-90909093D01*
X132649554Y-91045962D01*
X132737095Y-91162904D01*
X132854037Y-91250445D01*
X132990906Y-91301494D01*
X133051411Y-91308000D01*
X133346000Y-91308000D01*
X133346000Y-90554000D01*
X133854000Y-90554000D01*
X133854000Y-91308000D01*
X134148589Y-91308000D01*
X134209093Y-91301494D01*
X134345962Y-91250445D01*
X134462904Y-91162904D01*
X134550445Y-91045962D01*
X134601494Y-90909093D01*
X134608000Y-90848589D01*
X134608000Y-90554000D01*
X133854000Y-90554000D01*
X133346000Y-90554000D01*
X132592000Y-90554000D01*
X132050500Y-90554000D01*
X132050500Y-90046000D01*
X132592000Y-90046000D01*
X134608000Y-90046000D01*
X134608000Y-89751411D01*
X134601494Y-89690906D01*
X134550445Y-89554037D01*
X134468354Y-89444375D01*
X134444917Y-89389464D01*
X134449389Y-89329929D01*
X134485674Y-89218255D01*
X134505460Y-89030000D01*
X134485674Y-88841744D01*
X134485674Y-88841742D01*
X134427179Y-88661716D01*
X134332534Y-88497785D01*
X134205870Y-88357111D01*
X134052727Y-88245847D01*
X133879807Y-88168857D01*
X133879803Y-88168856D01*
X133694646Y-88129500D01*
X133505354Y-88129500D01*
X133344016Y-88163793D01*
X133320192Y-88168857D01*
X133147272Y-88245847D01*
X132994129Y-88357111D01*
X132867465Y-88497785D01*
X132772820Y-88661716D01*
X132714325Y-88841742D01*
X132694540Y-89030000D01*
X132714325Y-89218255D01*
X132750611Y-89329929D01*
X132755083Y-89389464D01*
X132731646Y-89444375D01*
X132649554Y-89554037D01*
X132598505Y-89690906D01*
X132592000Y-89751411D01*
X132592000Y-90046000D01*
X132050500Y-90046000D01*
X132050500Y-83376500D01*
X132067381Y-83313500D01*
X132113500Y-83267381D01*
X132176500Y-83250500D01*
X133043709Y-83250500D01*
X133174255Y-83235241D01*
X133339117Y-83175237D01*
X133485696Y-83078830D01*
X133606092Y-82951218D01*
X133693812Y-82799281D01*
X133744130Y-82631210D01*
X133754331Y-82456065D01*
X133728756Y-82311031D01*
X142548160Y-85356239D01*
X142570424Y-85439329D01*
X142662898Y-85637639D01*
X142788404Y-85816880D01*
X142943119Y-85971595D01*
X142943122Y-85971597D01*
X142943123Y-85971598D01*
X143122361Y-86097102D01*
X143320670Y-86189575D01*
X143532023Y-86246207D01*
X143750000Y-86265277D01*
X143967977Y-86246207D01*
X144179330Y-86189575D01*
X144377639Y-86097102D01*
X144482059Y-86023986D01*
X148250000Y-87325000D01*
X148300000Y-86350000D01*
X148300000Y-60800000D01*
X146825506Y-61019935D01*
X146719329Y-60970424D01*
X146507977Y-60913793D01*
X146290000Y-60894723D01*
X146072023Y-60913793D01*
X145860670Y-60970425D01*
X145860667Y-60970426D01*
X145860668Y-60970426D01*
X145662360Y-61062898D01*
X145483119Y-61188404D01*
X145445788Y-61225734D01*
X144954479Y-61299018D01*
X144951744Y-61289603D01*
X144951744Y-61289602D01*
X144868081Y-61148135D01*
X144868079Y-61148133D01*
X144868078Y-61148131D01*
X144751868Y-61031921D01*
X144751865Y-61031919D01*
X144610398Y-60948256D01*
X144452569Y-60902402D01*
X144415694Y-60899500D01*
X143084306Y-60899500D01*
X143054805Y-60901821D01*
X143047430Y-60902402D01*
X142889602Y-60948256D01*
X142748131Y-61031921D01*
X142631921Y-61148131D01*
X142548256Y-61289602D01*
X142509618Y-61422595D01*
X142502402Y-61447431D01*
X142499500Y-61484306D01*
X142499500Y-61665203D01*
X127482462Y-63905146D01*
X127447130Y-75705763D01*
X126855831Y-75114463D01*
X126843860Y-75100611D01*
X126840320Y-75095856D01*
X126829610Y-75081470D01*
X126791732Y-75049686D01*
X126783638Y-75042270D01*
X126779777Y-75038409D01*
X126779776Y-75038408D01*
X126779774Y-75038406D01*
X126755459Y-75019181D01*
X126752652Y-75016894D01*
X126695214Y-74968698D01*
X126695213Y-74968697D01*
X126694128Y-74967787D01*
X126677961Y-74957487D01*
X126608722Y-74925200D01*
X126605425Y-74923604D01*
X126567647Y-74904631D01*
X126538433Y-74889960D01*
X126538431Y-74889959D01*
X126537164Y-74889323D01*
X126519063Y-74883030D01*
X126444227Y-74867577D01*
X126440652Y-74866784D01*
X126366336Y-74849171D01*
X126347280Y-74847224D01*
X126270904Y-74849447D01*
X126267240Y-74849500D01*
X124400000Y-74849500D01*
X124400000Y-70591409D01*
X125110451Y-70591409D01*
X125132719Y-70593684D01*
X125134142Y-70593642D01*
X125134144Y-70593643D01*
X125209095Y-70591462D01*
X125212760Y-70591409D01*
X126246696Y-70591409D01*
X126377242Y-70576150D01*
X126431172Y-70556520D01*
X126457127Y-70550094D01*
X126526989Y-70540507D01*
X126591332Y-70522507D01*
X126692499Y-70478637D01*
X126778107Y-70409133D01*
X126823769Y-70360359D01*
X126887484Y-70270364D01*
X126924599Y-70166533D01*
X126938325Y-70101146D01*
X126946096Y-69991153D01*
X126946095Y-69991149D01*
X126947136Y-69976419D01*
X126946987Y-69974342D01*
X126947116Y-69972121D01*
X126947117Y-69972119D01*
X126957318Y-69796974D01*
X126926852Y-69624198D01*
X126857364Y-69463105D01*
X126857362Y-69463102D01*
X126752598Y-69322380D01*
X126746640Y-69317381D01*
X126618201Y-69209607D01*
X126461420Y-69130869D01*
X126461418Y-69130868D01*
X126451935Y-69126106D01*
X126405311Y-69085836D01*
X126345838Y-69001000D01*
X125679798Y-68050912D01*
X125623327Y-67970358D01*
X125606342Y-67935952D01*
X125600500Y-67898030D01*
X125600500Y-65463058D01*
X125610091Y-65414840D01*
X125637405Y-65373963D01*
X128423963Y-62587405D01*
X128464840Y-62560091D01*
X128513058Y-62550500D01*
X133043709Y-62550500D01*
X133174255Y-62535241D01*
X133339117Y-62475237D01*
X133485696Y-62378830D01*
X133606092Y-62251218D01*
X133693812Y-62099281D01*
X133744130Y-61931210D01*
X133754331Y-61756065D01*
X133723865Y-61583289D01*
X133654377Y-61422196D01*
X133549610Y-61281470D01*
X133415214Y-61168698D01*
X133258433Y-61089960D01*
X133087721Y-61049500D01*
X133087719Y-61049500D01*
X128213853Y-61049500D01*
X128195593Y-61048170D01*
X128171978Y-61044711D01*
X128171977Y-61044711D01*
X128132439Y-61048170D01*
X128122711Y-61049021D01*
X128111731Y-61049500D01*
X128106287Y-61049500D01*
X128075533Y-61053094D01*
X128071890Y-61053466D01*
X127995802Y-61060123D01*
X127977074Y-61064275D01*
X127905286Y-61090402D01*
X127901831Y-61091603D01*
X127829320Y-61115632D01*
X127812059Y-61123988D01*
X127748240Y-61165963D01*
X127745151Y-61167931D01*
X127680142Y-61208030D01*
X127665278Y-61220137D01*
X127612848Y-61275709D01*
X127610295Y-61278336D01*
X124364464Y-64524166D01*
X124350616Y-64536134D01*
X124331472Y-64550387D01*
X124299688Y-64588265D01*
X124292268Y-64596363D01*
X124288406Y-64600225D01*
X124269202Y-64624512D01*
X124266890Y-64627350D01*
X124217793Y-64685863D01*
X124207486Y-64702041D01*
X124175200Y-64771277D01*
X124173605Y-64774572D01*
X124157943Y-64805759D01*
X124140831Y-64839834D01*
X124139321Y-64842840D01*
X124133027Y-64860948D01*
X124117576Y-64935772D01*
X124116784Y-64939346D01*
X124099171Y-65013662D01*
X124097224Y-65032719D01*
X124099447Y-65109096D01*
X124099500Y-65112760D01*
X124099500Y-68015162D01*
X124092503Y-68056565D01*
X124072290Y-68093371D01*
X123829542Y-68400000D01*
X120475500Y-68400000D01*
X120475500Y-65977446D01*
X120476830Y-65959186D01*
X120479298Y-65942333D01*
X120480289Y-65935570D01*
X120475979Y-65886304D01*
X120475500Y-65875324D01*
X120475500Y-65869888D01*
X120475500Y-65869884D01*
X120471899Y-65839084D01*
X120471537Y-65835543D01*
X120464999Y-65760796D01*
X120464997Y-65760791D01*
X120464874Y-65759380D01*
X120460728Y-65740679D01*
X120460241Y-65739342D01*
X120460241Y-65739338D01*
X120434576Y-65668824D01*
X120433419Y-65665495D01*
X120409814Y-65594259D01*
X120409812Y-65594256D01*
X120409364Y-65592903D01*
X120401015Y-65575660D01*
X120400237Y-65574478D01*
X120400237Y-65574476D01*
X120359028Y-65511821D01*
X120357078Y-65508761D01*
X120331372Y-65467084D01*
X120313330Y-65414356D01*
X120319800Y-65358998D01*
X120349517Y-65311849D01*
X120821539Y-64839827D01*
X120835378Y-64827867D01*
X120854530Y-64813610D01*
X120886313Y-64775731D01*
X120893728Y-64767638D01*
X120897591Y-64763777D01*
X120916827Y-64739446D01*
X120919060Y-64736704D01*
X120967302Y-64679214D01*
X120967304Y-64679208D01*
X120968219Y-64678119D01*
X120978507Y-64661972D01*
X121010798Y-64592723D01*
X121012396Y-64589422D01*
X121031999Y-64550390D01*
X121046040Y-64522433D01*
X121046040Y-64522429D01*
X121046682Y-64521153D01*
X121052969Y-64503067D01*
X121057330Y-64481945D01*
X121068432Y-64428174D01*
X121069193Y-64424739D01*
X121086500Y-64351721D01*
X121086500Y-64351717D01*
X121086828Y-64350333D01*
X121088775Y-64331280D01*
X121086553Y-64254904D01*
X121086500Y-64251240D01*
X121086500Y-62831771D01*
X121087830Y-62813511D01*
X121088664Y-62807814D01*
X121091289Y-62789895D01*
X121086978Y-62740631D01*
X121086500Y-62729651D01*
X121086500Y-62235510D01*
X121086713Y-62228184D01*
X121086728Y-62227913D01*
X121090331Y-62166065D01*
X121088414Y-62155192D01*
X121086500Y-62133314D01*
X121086500Y-61739543D01*
X121088774Y-61717281D01*
X121086553Y-61640924D01*
X121086500Y-61637260D01*
X121086500Y-60099999D01*
X123094355Y-60099999D01*
X123114859Y-60268871D01*
X123175181Y-60427929D01*
X123175182Y-60427930D01*
X123271817Y-60567929D01*
X123399148Y-60680734D01*
X123549775Y-60759790D01*
X123714944Y-60800500D01*
X123885054Y-60800500D01*
X123885056Y-60800500D01*
X124050225Y-60759790D01*
X124200852Y-60680734D01*
X124328183Y-60567929D01*
X124424818Y-60427930D01*
X124485140Y-60268872D01*
X124505645Y-60100000D01*
X124485140Y-59931128D01*
X124424818Y-59772070D01*
X124328183Y-59632071D01*
X124322804Y-59624278D01*
X124306205Y-59590188D01*
X124300500Y-59552702D01*
X124300500Y-58547298D01*
X124306205Y-58509812D01*
X124322804Y-58475722D01*
X124380789Y-58391716D01*
X124424818Y-58327930D01*
X124485140Y-58168872D01*
X124505645Y-58000000D01*
X124485140Y-57831128D01*
X124424818Y-57672070D01*
X124328183Y-57532071D01*
X124200852Y-57419266D01*
X124050225Y-57340210D01*
X123885056Y-57299500D01*
X123714944Y-57299500D01*
X123549775Y-57340210D01*
X123399148Y-57419265D01*
X123399148Y-57419266D01*
X123271816Y-57532072D01*
X123175181Y-57672070D01*
X123114859Y-57831128D01*
X123094355Y-58000000D01*
X123114859Y-58168871D01*
X123175181Y-58327929D01*
X123277196Y-58475722D01*
X123293795Y-58509812D01*
X123299500Y-58547298D01*
X123299500Y-59552702D01*
X123293795Y-59590188D01*
X123277196Y-59624278D01*
X123175181Y-59772070D01*
X123114859Y-59931128D01*
X123094355Y-60099999D01*
X121086500Y-60099999D01*
X121086500Y-58823853D01*
X121087830Y-58805593D01*
X121088635Y-58800090D01*
X121091289Y-58781977D01*
X121086979Y-58732711D01*
X121086500Y-58721731D01*
X121086500Y-58716295D01*
X121086500Y-58716291D01*
X121082899Y-58685491D01*
X121082537Y-58681950D01*
X121075999Y-58607203D01*
X121075997Y-58607198D01*
X121075874Y-58605787D01*
X121071728Y-58587086D01*
X121071241Y-58585749D01*
X121071241Y-58585745D01*
X121045576Y-58515231D01*
X121044419Y-58511902D01*
X121020814Y-58440666D01*
X121020812Y-58440663D01*
X121020364Y-58439310D01*
X121012015Y-58422067D01*
X121011237Y-58420885D01*
X121011237Y-58420883D01*
X120970028Y-58358228D01*
X120968081Y-58355172D01*
X120928712Y-58291345D01*
X120928711Y-58291344D01*
X120927969Y-58290141D01*
X120915859Y-58275274D01*
X120860282Y-58222839D01*
X120857687Y-58220319D01*
X120785777Y-58148409D01*
X120713223Y-58091041D01*
X120682675Y-58066887D01*
X120523674Y-57992743D01*
X120351857Y-57957266D01*
X120351856Y-57957266D01*
X120264172Y-57959817D01*
X120176487Y-57962369D01*
X120007023Y-58007777D01*
X119852600Y-58091040D01*
X119721538Y-58207676D01*
X119620913Y-58351384D01*
X119556138Y-58514433D01*
X119530711Y-58688022D01*
X119546001Y-58862799D01*
X119566922Y-58925933D01*
X119574319Y-58948256D01*
X119579104Y-58962694D01*
X119585500Y-59002328D01*
X119585500Y-61286942D01*
X119575909Y-61335160D01*
X119548595Y-61376037D01*
X119502037Y-61422595D01*
X119461160Y-61449909D01*
X119412942Y-61459500D01*
X115853853Y-61459500D01*
X115835593Y-61458170D01*
X115811978Y-61454711D01*
X115811977Y-61454711D01*
X115807897Y-61455068D01*
X115762714Y-61459021D01*
X115751733Y-61459500D01*
X115746289Y-61459500D01*
X115715519Y-61463096D01*
X115711876Y-61463468D01*
X115635795Y-61470124D01*
X115617071Y-61474275D01*
X115545245Y-61500417D01*
X115541787Y-61501619D01*
X115469319Y-61525632D01*
X115452060Y-61533988D01*
X115388215Y-61575979D01*
X115385126Y-61577947D01*
X115320140Y-61618031D01*
X115305278Y-61630137D01*
X115252849Y-61685708D01*
X115250296Y-61688335D01*
X113578375Y-63360255D01*
X113564527Y-63372223D01*
X113545383Y-63386476D01*
X113513599Y-63424354D01*
X113506179Y-63432452D01*
X113502317Y-63436314D01*
X113483113Y-63460601D01*
X113480801Y-63463439D01*
X113431704Y-63521952D01*
X113421397Y-63538130D01*
X113389111Y-63607366D01*
X113387516Y-63610661D01*
X113353232Y-63678929D01*
X113346938Y-63697037D01*
X113331487Y-63771861D01*
X113330695Y-63775435D01*
X113313082Y-63849751D01*
X113311135Y-63868808D01*
X113313358Y-63945185D01*
X113313411Y-63948849D01*
X113313411Y-64145009D01*
X113300009Y-64201557D01*
X113289322Y-64222835D01*
X113283027Y-64240947D01*
X113267576Y-64315772D01*
X113266784Y-64319346D01*
X113249171Y-64393662D01*
X113247224Y-64412719D01*
X113249447Y-64489096D01*
X113249500Y-64492760D01*
X113249500Y-70696147D01*
X113248170Y-70714407D01*
X113245653Y-70731595D01*
X113244711Y-70738023D01*
X107323485Y-70738023D01*
X107330466Y-70685000D01*
X107310687Y-70534764D01*
X107270282Y-70437218D01*
X107261298Y-70376650D01*
X107281926Y-70318998D01*
X107327295Y-70277878D01*
X107386691Y-70263000D01*
X107879521Y-70263000D01*
X108027603Y-70248415D01*
X108217609Y-70190776D01*
X108392723Y-70097176D01*
X108546212Y-69971212D01*
X108672176Y-69817723D01*
X108765776Y-69642609D01*
X108806307Y-69509000D01*
X105753693Y-69509000D01*
X105350500Y-69509000D01*
X105350500Y-69000999D01*
X105753692Y-69000999D01*
X105753693Y-69001000D01*
X107026000Y-69001000D01*
X107026000Y-68247000D01*
X107534000Y-68247000D01*
X107534000Y-69001000D01*
X108806307Y-69001000D01*
X108806307Y-69000999D01*
X108765776Y-68867390D01*
X108672176Y-68692276D01*
X108546212Y-68538787D01*
X108392723Y-68412823D01*
X108217609Y-68319223D01*
X108027603Y-68261584D01*
X107879521Y-68247000D01*
X107534000Y-68247000D01*
X107026000Y-68247000D01*
X106680479Y-68247000D01*
X106532396Y-68261584D01*
X106342390Y-68319223D01*
X106167276Y-68412823D01*
X106013787Y-68538787D01*
X105887823Y-68692276D01*
X105794223Y-68867390D01*
X105753692Y-69000999D01*
X105350500Y-69000999D01*
X105350500Y-68359505D01*
X105360091Y-68311287D01*
X105387404Y-68270410D01*
X105550268Y-68107546D01*
X106070437Y-67587375D01*
X106125646Y-67555114D01*
X106159645Y-67554580D01*
X106159645Y-67550500D01*
X106345054Y-67550500D01*
X106345056Y-67550500D01*
X106510225Y-67509790D01*
X106660852Y-67430734D01*
X106788183Y-67317929D01*
X106884818Y-67177930D01*
X106945140Y-67018872D01*
X106965645Y-66850000D01*
X106945140Y-66681128D01*
X106884818Y-66522070D01*
X106788183Y-66382071D01*
X106660852Y-66269266D01*
X106510225Y-66190210D01*
X106345056Y-66149500D01*
X106174944Y-66149500D01*
X106009775Y-66190210D01*
X105944516Y-66224461D01*
X105859148Y-66269266D01*
X105731816Y-66382072D01*
X105635182Y-66522069D01*
X105592882Y-66633605D01*
X105564165Y-66678019D01*
X104543721Y-67698463D01*
X104522754Y-67715361D01*
X104518874Y-67717854D01*
X104486398Y-67755333D01*
X104480276Y-67761908D01*
X104470778Y-67771406D01*
X104462731Y-67782156D01*
X104457093Y-67789153D01*
X104424621Y-67826629D01*
X104422706Y-67830822D01*
X104408972Y-67853970D01*
X104406205Y-67857666D01*
X104388875Y-67904128D01*
X104385434Y-67912434D01*
X104364834Y-67957541D01*
X104364178Y-67962108D01*
X104357520Y-67988195D01*
X104355909Y-67992513D01*
X104352370Y-68041981D01*
X104351410Y-68050912D01*
X104349500Y-68064202D01*
X104349500Y-68077620D01*
X104349179Y-68086609D01*
X104345641Y-68136074D01*
X104346620Y-68140574D01*
X104349500Y-68167357D01*
X104349500Y-68470903D01*
X104334622Y-68530299D01*
X104293502Y-68575668D01*
X104235850Y-68596296D01*
X104175282Y-68587312D01*
X104126100Y-68550836D01*
X104116212Y-68538787D01*
X103962723Y-68412823D01*
X103787609Y-68319223D01*
X103597603Y-68261584D01*
X103449521Y-68247000D01*
X103354000Y-68247000D01*
X103354000Y-70263000D01*
X102846000Y-70263000D01*
X102846000Y-69509000D01*
X101823693Y-69509000D01*
X100500500Y-69509000D01*
X100500500Y-69000999D01*
X101823692Y-69000999D01*
X101823693Y-69001000D01*
X102846000Y-69001000D01*
X102846000Y-68247000D01*
X102750479Y-68247000D01*
X102602396Y-68261584D01*
X102412390Y-68319223D01*
X102237276Y-68412823D01*
X102083787Y-68538787D01*
X101957823Y-68692276D01*
X101864223Y-68867390D01*
X101823692Y-69000999D01*
X100500500Y-69000999D01*
X100500500Y-58760000D01*
X113505540Y-58760000D01*
X113525325Y-58948257D01*
X113583820Y-59128283D01*
X113678465Y-59292214D01*
X113678467Y-59292216D01*
X113805129Y-59432888D01*
X113958270Y-59544151D01*
X113958271Y-59544151D01*
X113958272Y-59544152D01*
X114131192Y-59621142D01*
X114131197Y-59621144D01*
X114316354Y-59660500D01*
X114505644Y-59660500D01*
X114505646Y-59660500D01*
X114690803Y-59621144D01*
X114863730Y-59544151D01*
X114882494Y-59530518D01*
X114932782Y-59508717D01*
X114987570Y-59510331D01*
X115036489Y-59535055D01*
X115118276Y-59602176D01*
X115293390Y-59695776D01*
X115426999Y-59736307D01*
X115427000Y-59736307D01*
X115427000Y-57783693D01*
X115426999Y-57783692D01*
X115935000Y-57783692D01*
X115935000Y-59736307D01*
X116068611Y-59695776D01*
X116184090Y-59634050D01*
X116242250Y-59619177D01*
X116300689Y-59632904D01*
X116325696Y-59645646D01*
X116419481Y-59660500D01*
X117482518Y-59660499D01*
X117576304Y-59645646D01*
X117689342Y-59588050D01*
X117779050Y-59498342D01*
X117836646Y-59385304D01*
X117851500Y-59291519D01*
X117851499Y-58228482D01*
X117851388Y-58227784D01*
X117842058Y-58168871D01*
X117836646Y-58134696D01*
X117779050Y-58021658D01*
X117779049Y-58021657D01*
X117779048Y-58021655D01*
X117689344Y-57931951D01*
X117576304Y-57874354D01*
X117482519Y-57859500D01*
X117482517Y-57859500D01*
X116419481Y-57859500D01*
X116325694Y-57874354D01*
X116300689Y-57887095D01*
X116242249Y-57900822D01*
X116184090Y-57885950D01*
X116068607Y-57824222D01*
X115935000Y-57783692D01*
X115426999Y-57783692D01*
X115293390Y-57824223D01*
X115118276Y-57917823D01*
X115036487Y-57984945D01*
X114987569Y-58009668D01*
X114932782Y-58011282D01*
X114882494Y-57989482D01*
X114876249Y-57984945D01*
X114863730Y-57975849D01*
X114863729Y-57975848D01*
X114863727Y-57975847D01*
X114690807Y-57898857D01*
X114690803Y-57898856D01*
X114505646Y-57859500D01*
X114316354Y-57859500D01*
X114186529Y-57887095D01*
X114131192Y-57898857D01*
X113958272Y-57975847D01*
X113805129Y-58087111D01*
X113678465Y-58227785D01*
X113583820Y-58391716D01*
X113525325Y-58571742D01*
X113505540Y-58760000D01*
X100500500Y-58760000D01*
X100500500Y-56651000D01*
X100517381Y-56588000D01*
X100563500Y-56541881D01*
X100626500Y-56525000D01*
X104724999Y-56525000D01*
X104725000Y-56525000D01*
X106525000Y-54800000D01*
X106525000Y-50626500D01*
X106541881Y-50563500D01*
X106588000Y-50517381D01*
X106651000Y-50500500D01*
X143348977Y-50500500D01*
X143411977Y-50517381D01*
G37*
G04 #@! TD.AperFunction*
G04 #@! TA.AperFunction,Conductor*
G36*
X118974500Y-70041294D02*
G01*
X118973191Y-70059264D01*
X118969711Y-70083023D01*
X118974028Y-70132369D01*
X118974500Y-70143176D01*
X118974500Y-70148708D01*
X118978098Y-70179496D01*
X118978464Y-70183081D01*
X118985110Y-70259041D01*
X118989329Y-70278071D01*
X118989758Y-70279251D01*
X118989759Y-70279255D01*
X119015413Y-70349742D01*
X119016582Y-70353107D01*
X119040580Y-70425524D01*
X119049075Y-70443072D01*
X119090979Y-70506784D01*
X119092889Y-70509782D01*
X119132288Y-70573656D01*
X119132952Y-70574732D01*
X119145253Y-70589830D01*
X119146168Y-70590693D01*
X119146170Y-70590696D01*
X119185422Y-70627728D01*
X119200708Y-70642150D01*
X119203294Y-70644662D01*
X119510223Y-70951591D01*
X119613323Y-71033111D01*
X119772327Y-71107257D01*
X119944144Y-71142734D01*
X120119513Y-71137631D01*
X120288976Y-71092223D01*
X120443400Y-71008959D01*
X120574459Y-70892326D01*
X120675088Y-70748612D01*
X120739862Y-70585567D01*
X120765289Y-70411977D01*
X120749999Y-70237203D01*
X120694814Y-70070666D01*
X120602712Y-69921345D01*
X120511816Y-69830449D01*
X120484939Y-69790224D01*
X120475500Y-69742771D01*
X120475500Y-68400000D01*
X123829542Y-68400000D01*
X123117371Y-69299581D01*
X123110348Y-69307703D01*
X123101924Y-69316633D01*
X123099406Y-69319225D01*
X121938412Y-70480219D01*
X121856888Y-70583324D01*
X121782742Y-70742328D01*
X121747266Y-70914140D01*
X121752369Y-71089512D01*
X121797777Y-71258977D01*
X121881040Y-71413399D01*
X121997674Y-71544459D01*
X122141386Y-71645087D01*
X122141387Y-71645087D01*
X122141388Y-71645088D01*
X122304433Y-71709862D01*
X122478023Y-71735289D01*
X122652797Y-71719999D01*
X122819334Y-71664814D01*
X122968656Y-71572712D01*
X123913640Y-70627728D01*
X123953868Y-70600848D01*
X124001321Y-70591409D01*
X124400000Y-70591409D01*
X124400000Y-74849500D01*
X123755021Y-74849500D01*
X123707568Y-74840061D01*
X123667340Y-74813181D01*
X123450760Y-74596601D01*
X123233399Y-74379239D01*
X123204558Y-74333968D01*
X123185237Y-74280883D01*
X123088829Y-74134303D01*
X122961219Y-74013908D01*
X122809281Y-73926188D01*
X122641210Y-73875870D01*
X122615156Y-73874352D01*
X122466065Y-73865668D01*
X122319188Y-73891567D01*
X122293289Y-73896135D01*
X122223618Y-73926188D01*
X122132195Y-73965623D01*
X121991469Y-74070390D01*
X121878699Y-74204783D01*
X121799958Y-74361570D01*
X121759500Y-74532277D01*
X121759500Y-74653502D01*
X121758191Y-74671472D01*
X121754711Y-74695231D01*
X121759028Y-74744577D01*
X121759500Y-74755384D01*
X121759500Y-74760916D01*
X121763098Y-74791704D01*
X121763464Y-74795289D01*
X121770110Y-74871249D01*
X121774329Y-74890279D01*
X121774758Y-74891459D01*
X121774759Y-74891463D01*
X121800413Y-74961950D01*
X121801582Y-74965315D01*
X121825580Y-75037732D01*
X121834075Y-75055280D01*
X121875979Y-75118992D01*
X121877889Y-75121990D01*
X121917288Y-75185864D01*
X121917952Y-75186940D01*
X121930253Y-75202039D01*
X121985710Y-75254360D01*
X121988297Y-75256873D01*
X122817061Y-76085637D01*
X122828841Y-76099268D01*
X122843180Y-76118528D01*
X122843181Y-76118529D01*
X122843182Y-76118530D01*
X122881135Y-76150376D01*
X122889109Y-76157684D01*
X122893016Y-76161591D01*
X122917329Y-76180815D01*
X122920129Y-76183096D01*
X122978546Y-76232115D01*
X122994957Y-76242569D01*
X122996111Y-76243107D01*
X122996115Y-76243110D01*
X123064120Y-76274821D01*
X123067243Y-76276333D01*
X123134359Y-76310040D01*
X123135496Y-76310611D01*
X123153876Y-76316998D01*
X123155113Y-76317253D01*
X123155119Y-76317256D01*
X123228654Y-76332439D01*
X123232001Y-76333181D01*
X123305071Y-76350500D01*
X123305073Y-76350500D01*
X123306297Y-76350790D01*
X123325668Y-76352769D01*
X123326932Y-76352732D01*
X123326936Y-76352733D01*
X123401902Y-76350552D01*
X123405508Y-76350500D01*
X124400000Y-76350500D01*
X124400000Y-76800000D01*
X123225000Y-76800000D01*
X123225000Y-76600000D01*
X120830500Y-76600000D01*
X120830500Y-75006291D01*
X120815241Y-74875745D01*
X120755237Y-74710883D01*
X120658830Y-74564304D01*
X120624886Y-74532279D01*
X120531219Y-74443908D01*
X120379281Y-74356188D01*
X120342532Y-74345186D01*
X120211210Y-74305870D01*
X120185156Y-74304352D01*
X120036065Y-74295668D01*
X119889188Y-74321567D01*
X119863289Y-74326135D01*
X119793618Y-74356188D01*
X119702195Y-74395623D01*
X119561469Y-74500390D01*
X119448699Y-74634783D01*
X119369958Y-74791570D01*
X119329500Y-74962277D01*
X119329500Y-76600000D01*
X119300000Y-76600000D01*
X119300000Y-76800000D01*
X118050500Y-76800000D01*
X118050500Y-76302230D01*
X118059939Y-76254777D01*
X118086819Y-76214549D01*
X118250150Y-76051218D01*
X118771590Y-75529777D01*
X118853111Y-75426677D01*
X118927256Y-75267673D01*
X118962733Y-75095856D01*
X118957631Y-74920488D01*
X118912223Y-74751025D01*
X118869329Y-74671472D01*
X118828960Y-74596601D01*
X118800217Y-74564303D01*
X118712326Y-74465541D01*
X118568612Y-74364913D01*
X118405566Y-74300138D01*
X118231977Y-74274711D01*
X118231975Y-74274711D01*
X118057202Y-74290001D01*
X117890664Y-74345186D01*
X117741342Y-74437288D01*
X116814358Y-75364272D01*
X116800727Y-75376053D01*
X116781467Y-75390392D01*
X116749633Y-75428329D01*
X116742341Y-75436289D01*
X116738408Y-75440222D01*
X116719176Y-75464545D01*
X116716902Y-75467337D01*
X116667894Y-75525744D01*
X116657418Y-75542187D01*
X116625192Y-75611294D01*
X116623622Y-75614536D01*
X116589393Y-75682692D01*
X116582996Y-75701098D01*
X116567573Y-75775788D01*
X116566793Y-75779305D01*
X116549208Y-75853505D01*
X116547229Y-75872878D01*
X116549448Y-75949131D01*
X116549500Y-75952737D01*
X116549500Y-76750000D01*
X116000000Y-76750000D01*
X116000000Y-69101313D01*
X116089648Y-69180734D01*
X116240275Y-69259790D01*
X116405444Y-69300500D01*
X116405445Y-69300500D01*
X116465500Y-69300500D01*
X116527500Y-69317113D01*
X116572887Y-69362500D01*
X116589500Y-69424500D01*
X116589500Y-70806294D01*
X116588191Y-70824264D01*
X116584711Y-70848023D01*
X116589028Y-70897369D01*
X116589500Y-70908176D01*
X116589500Y-70913708D01*
X116593098Y-70944496D01*
X116593464Y-70948081D01*
X116600110Y-71024041D01*
X116604329Y-71043071D01*
X116604758Y-71044251D01*
X116604759Y-71044255D01*
X116630413Y-71114742D01*
X116631582Y-71118107D01*
X116655580Y-71190524D01*
X116664075Y-71208072D01*
X116705979Y-71271784D01*
X116707889Y-71274782D01*
X116747288Y-71338656D01*
X116747952Y-71339732D01*
X116760253Y-71354831D01*
X116815710Y-71407152D01*
X116818297Y-71409665D01*
X117550225Y-72141592D01*
X117653321Y-72223110D01*
X117653322Y-72223110D01*
X117653323Y-72223111D01*
X117812328Y-72297257D01*
X117984145Y-72332734D01*
X118159513Y-72327631D01*
X118328976Y-72282223D01*
X118483400Y-72198959D01*
X118614460Y-72082326D01*
X118715088Y-71938612D01*
X118779862Y-71775567D01*
X118805289Y-71601977D01*
X118789999Y-71427203D01*
X118734814Y-71260666D01*
X118642712Y-71111345D01*
X118642711Y-71111343D01*
X118126819Y-70595451D01*
X118099939Y-70555223D01*
X118090500Y-70507770D01*
X118090500Y-68400000D01*
X118974500Y-68400000D01*
X118974500Y-70041294D01*
G37*
G04 #@! TD.AperFunction*
G04 #@! TA.AperFunction,Conductor*
G36*
X119529500Y-77368439D02*
G01*
X119529427Y-77372740D01*
X119527238Y-77436827D01*
X119536941Y-77476646D01*
X119539349Y-77489319D01*
X119544929Y-77529918D01*
X119552010Y-77546219D01*
X119558858Y-77566581D01*
X119563067Y-77583853D01*
X119583154Y-77619580D01*
X119588890Y-77631128D01*
X119605219Y-77668718D01*
X119605220Y-77668720D01*
X119616435Y-77682505D01*
X119628522Y-77700264D01*
X119637235Y-77715760D01*
X119666209Y-77744734D01*
X119674853Y-77754311D01*
X119700722Y-77786108D01*
X119715242Y-77796357D01*
X119731675Y-77810200D01*
X121858595Y-79937119D01*
X121885909Y-79977996D01*
X121895500Y-80026214D01*
X121895500Y-80627661D01*
X121900723Y-80665665D01*
X121910930Y-80739920D01*
X121971220Y-80878720D01*
X122066722Y-80996108D01*
X122190353Y-81083377D01*
X122332944Y-81134054D01*
X122483921Y-81144381D01*
X122632085Y-81113592D01*
X122766447Y-81043971D01*
X122877044Y-80940680D01*
X122955672Y-80811382D01*
X122996500Y-80665665D01*
X122996500Y-79757561D01*
X122996573Y-79753260D01*
X122996585Y-79752901D01*
X122998762Y-79689174D01*
X122989058Y-79649356D01*
X122986650Y-79636686D01*
X122981070Y-79596080D01*
X122973988Y-79579778D01*
X122967139Y-79559408D01*
X122962934Y-79542150D01*
X122962933Y-79542148D01*
X122942838Y-79506409D01*
X122937114Y-79494885D01*
X122920780Y-79457280D01*
X122909558Y-79443488D01*
X122897475Y-79425734D01*
X122888765Y-79410241D01*
X122859794Y-79381270D01*
X122851149Y-79371691D01*
X122825279Y-79339892D01*
X122810752Y-79329638D01*
X122794319Y-79315795D01*
X120667405Y-77188880D01*
X120640091Y-77148003D01*
X120630500Y-77099785D01*
X120630500Y-76600000D01*
X123225000Y-76600000D01*
X123225000Y-81500000D01*
X121470328Y-81500000D01*
X121466500Y-81484290D01*
X121466500Y-80532339D01*
X121451070Y-80420083D01*
X121451070Y-80420080D01*
X121390780Y-80281280D01*
X121295278Y-80163892D01*
X121171647Y-80076623D01*
X121029056Y-80025946D01*
X120953567Y-80020782D01*
X120878081Y-80015619D01*
X120878080Y-80015619D01*
X120729915Y-80046408D01*
X120729914Y-80046408D01*
X120729911Y-80046409D01*
X120595554Y-80116027D01*
X120484955Y-80219319D01*
X120406328Y-80348615D01*
X120365500Y-80494336D01*
X120365500Y-81500000D01*
X119300000Y-81500000D01*
X119300000Y-76600000D01*
X119529500Y-76600000D01*
X119529500Y-77368439D01*
G37*
G04 #@! TD.AperFunction*
G04 #@! TA.AperFunction,Conductor*
G36*
X124973665Y-67772997D02*
G01*
X125016380Y-67810978D01*
X126519280Y-69954820D01*
X126541475Y-70017839D01*
X126527749Y-70083226D01*
X126482087Y-70132000D01*
X126417744Y-70150000D01*
X123384986Y-70150000D01*
X123377251Y-70149758D01*
X123217791Y-70139791D01*
X123154803Y-70117887D01*
X123112271Y-70066524D01*
X123102496Y-70000557D01*
X123128303Y-69939068D01*
X124817623Y-67805190D01*
X124862474Y-67769760D01*
X124918453Y-67758211D01*
X124973665Y-67772997D01*
G37*
G04 #@! TD.AperFunction*
G04 #@! TA.AperFunction,Conductor*
G36*
X116749500Y-80167993D02*
G01*
X116742928Y-80208154D01*
X116723898Y-80244126D01*
X116666042Y-80320420D01*
X116625120Y-80424194D01*
X116610528Y-80461198D01*
X116595052Y-80611734D01*
X116620764Y-80760861D01*
X116685757Y-80897526D01*
X116785211Y-81011583D01*
X116821719Y-81035528D01*
X116911751Y-81094579D01*
X117055988Y-81140358D01*
X117200000Y-81145277D01*
X117200000Y-81350000D01*
X115650000Y-81350000D01*
X115650000Y-81141037D01*
X115774101Y-81119640D01*
X115910762Y-81054647D01*
X116024821Y-80955193D01*
X116107818Y-80828654D01*
X116153596Y-80684416D01*
X116158763Y-80533174D01*
X116122933Y-80386148D01*
X116048766Y-80254241D01*
X115650000Y-79855475D01*
X115650000Y-76750000D01*
X116749500Y-76750000D01*
X116749500Y-80167993D01*
G37*
G04 #@! TD.AperFunction*
M02*
