M48
; DRILL file {KiCad 7.0.1-0} date 2023 May 08, Monday 01:12:31
; FORMAT={-:-/ absolute / metric / decimal}
; #@! TF.CreationDate,2023-05-08T01:12:31+09:00
; #@! TF.GenerationSoftware,Kicad,Pcbnew,7.0.1-0
; #@! TF.FileFunction,Plated,1,2,PTH
FMAT,2
METRIC
; #@! TA.AperFunction,Plated,PTH,ViaDrill
T1C0.300
; #@! TA.AperFunction,Plated,PTH,ViaDrill
T2C0.400
; #@! TA.AperFunction,Plated,PTH,ComponentDrill
T3C0.600
; #@! TA.AperFunction,Plated,PTH,ComponentDrill
T4C0.650
; #@! TA.AperFunction,Plated,PTH,ComponentDrill
T5C1.000
; #@! TA.AperFunction,Plated,PTH,ViaDrill
T6C2.000
; #@! TA.AperFunction,Plated,PTH,ComponentDrill
T7C2.000
%
G90
G05
T1
X101.0Y-57.0
X101.0Y-61.15
X101.0Y-65.3
X101.0Y-69.45
X101.0Y-73.6
X101.0Y-77.75
X101.0Y-81.9
X101.0Y-86.05
X101.0Y-90.2
X103.49Y-61.77
X103.95Y-73.6
X104.19Y-83.472
X104.2Y-88.3
X104.5Y-56.95
X104.525Y-90.275
X105.69Y-80.21
X105.84Y-85.832
X105.875Y-55.975
X105.9Y-91.275
X106.0Y-83.8
X106.26Y-66.85
X106.9Y-92.725
X106.925Y-50.875
X106.95Y-54.525
X106.96Y-72.59
X107.05Y-96.275
X107.25Y-88.35
X108.68Y-85.832
X108.76Y-58.48
X108.94Y-65.06
X109.1Y-93.35
X109.4Y-79.5
X109.6Y-75.3
X109.8Y-90.65
X109.9Y-70.3
X109.9Y-72.25
X110.925Y-50.875
X111.05Y-96.275
X111.96Y-68.55
X111.97Y-71.61
X112.45Y-87.9
X112.57Y-54.21
X113.0Y-65.3
X113.375Y-62.225
X113.7Y-73.35
X113.802Y-79.368
X114.064Y-64.416
X114.07Y-70.83
X114.8Y-82.5
X114.86Y-76.49
X114.925Y-50.875
X114.975Y-67.275
X115.05Y-96.275
X115.15Y-87.9
X115.2Y-64.25
X115.45Y-91.0
X115.606Y-80.59
X115.675Y-61.05
X116.3Y-63.1
X116.35Y-76.2
X116.4Y-82.5
X116.49Y-67.3
X116.49Y-68.6
X117.15Y-80.593
X117.34Y-65.717
X117.55Y-63.2
X117.7Y-82.5
X118.025Y-93.4
X118.05Y-71.58
X118.21Y-75.03
X118.3Y-87.8
X118.925Y-50.875
X119.05Y-96.275
X119.196Y-65.385
X119.25Y-61.1
X119.43Y-63.24
X120.0Y-86.05
X120.0Y-91.1
X120.01Y-70.39
X120.05Y-88.5
X120.08Y-75.05
X120.15Y-82.7
X120.286Y-58.71
X120.887Y-65.42
X120.916Y-80.57
X121.18Y-92.22
X121.2Y-54.4
X122.25Y-68.054
X122.446Y-80.59
X122.5Y-70.98
X122.5Y-91.1
X122.51Y-74.62
X122.55Y-88.2
X122.925Y-50.875
X123.05Y-96.275
X123.186Y-82.38
X123.75Y-67.925
X123.756Y-63.64
X123.8Y-58.0
X123.8Y-60.1
X125.104Y-76.696
X125.65Y-81.8
X125.7Y-83.925
X126.1Y-67.8
X126.203Y-69.841
X126.81Y-90.55
X126.82Y-78.68
X126.925Y-50.875
X126.98Y-64.74
X127.05Y-96.275
X127.12Y-76.44
X127.5Y-66.5
X127.55Y-73.6
X127.7Y-83.925
X128.0Y-69.0
X128.0Y-93.3
X128.45Y-81.2
X128.5Y-71.5
X128.8Y-78.7
X128.95Y-76.15
X129.07Y-54.55
X129.08Y-59.66
X130.0Y-65.98
X130.0Y-68.52
X130.0Y-71.06
X130.0Y-73.6
X130.0Y-76.14
X130.0Y-78.68
X130.15Y-91.05
X130.19Y-89.8
X130.25Y-83.05
X130.925Y-50.875
X131.05Y-96.275
X131.7Y-81.2
X132.45Y-87.95
X133.0Y-61.8
X133.0Y-65.98
X133.0Y-68.52
X133.0Y-71.06
X133.0Y-76.14
X133.0Y-78.68
X133.0Y-82.5
X134.2Y-81.2
X134.925Y-50.875
X135.05Y-96.275
X136.0Y-63.44
X136.0Y-65.98
X136.0Y-68.52
X136.0Y-71.06
X136.0Y-73.6
X136.0Y-76.14
X136.0Y-78.68
X136.0Y-81.22
X137.24Y-54.67
X137.28Y-59.68
X138.925Y-50.875
X139.0Y-63.44
X139.0Y-65.98
X139.0Y-68.52
X139.0Y-71.06
X139.0Y-73.6
X139.0Y-76.14
X139.0Y-78.68
X139.0Y-81.22
X139.01Y-86.7
X139.05Y-92.53
X139.05Y-96.275
X142.0Y-63.44
X142.0Y-65.98
X142.0Y-68.52
X142.0Y-71.06
X142.0Y-73.6
X142.0Y-76.14
X142.0Y-78.68
X142.0Y-81.22
X142.925Y-50.875
X143.05Y-96.275
X143.075Y-54.4
X143.125Y-92.6
X144.05Y-55.85
X144.1Y-91.225
X145.525Y-56.925
X145.575Y-90.25
X149.15Y-57.0
X149.15Y-61.15
X149.15Y-65.3
X149.15Y-69.45
X149.15Y-73.6
X149.15Y-77.75
X149.15Y-81.9
X149.15Y-86.05
X149.15Y-90.2
T2
X110.125Y-85.775
X131.3Y-92.2
X132.5Y-84.2
T4
X114.411Y-58.76
X115.681Y-58.76
X116.951Y-58.76
X133.6Y-89.03
X133.6Y-90.3
T5
X143.75Y-62.15
X143.75Y-64.69
X143.75Y-67.23
X143.75Y-69.77
X143.75Y-72.31
X143.75Y-74.85
X143.75Y-77.39
X143.75Y-79.93
X143.75Y-82.47
X143.75Y-85.01
X146.29Y-62.15
X146.29Y-64.69
X146.29Y-67.23
X146.29Y-69.77
X146.29Y-72.31
X146.29Y-74.85
X146.29Y-77.39
X146.29Y-79.93
X146.29Y-82.47
X146.29Y-85.01
T6
X126.422Y-86.977
T7
X120.206Y-72.6
T3
X103.4Y-69.255G85X102.8Y-69.255
G05
X103.4Y-77.895G85X102.8Y-77.895
G05
X107.83Y-69.255G85X106.73Y-69.255
G05
X107.83Y-77.895G85X106.73Y-77.895
G05
T0
M30
