G04 #@! TF.GenerationSoftware,KiCad,Pcbnew,7.0.1-0*
G04 #@! TF.CreationDate,2023-05-08T01:12:17+09:00*
G04 #@! TF.ProjectId,rp2040_jtag_debugger,72703230-3430-45f6-9a74-61675f646562,rev?*
G04 #@! TF.SameCoordinates,Original*
G04 #@! TF.FileFunction,Soldermask,Top*
G04 #@! TF.FilePolarity,Negative*
%FSLAX46Y46*%
G04 Gerber Fmt 4.6, Leading zero omitted, Abs format (unit mm)*
G04 Created by KiCad (PCBNEW 7.0.1-0) date 2023-05-08 01:12:17*
%MOMM*%
%LPD*%
G01*
G04 APERTURE LIST*
G04 Aperture macros list*
%AMRoundRect*
0 Rectangle with rounded corners*
0 $1 Rounding radius*
0 $2 $3 $4 $5 $6 $7 $8 $9 X,Y pos of 4 corners*
0 Add a 4 corners polygon primitive as box body*
4,1,4,$2,$3,$4,$5,$6,$7,$8,$9,$2,$3,0*
0 Add four circle primitives for the rounded corners*
1,1,$1+$1,$2,$3*
1,1,$1+$1,$4,$5*
1,1,$1+$1,$6,$7*
1,1,$1+$1,$8,$9*
0 Add four rect primitives between the rounded corners*
20,1,$1+$1,$2,$3,$4,$5,0*
20,1,$1+$1,$4,$5,$6,$7,0*
20,1,$1+$1,$6,$7,$8,$9,0*
20,1,$1+$1,$8,$9,$2,$3,0*%
G04 Aperture macros list end*
%ADD10C,3.000000*%
%ADD11RoundRect,0.250000X-0.600000X-0.600000X0.600000X-0.600000X0.600000X0.600000X-0.600000X0.600000X0*%
%ADD12C,1.700000*%
%ADD13RoundRect,0.200000X-0.200000X-0.275000X0.200000X-0.275000X0.200000X0.275000X-0.200000X0.275000X0*%
%ADD14RoundRect,0.225000X0.250000X-0.225000X0.250000X0.225000X-0.250000X0.225000X-0.250000X-0.225000X0*%
%ADD15R,1.000000X1.000000*%
%ADD16O,1.000000X1.000000*%
%ADD17RoundRect,0.225000X-0.250000X0.225000X-0.250000X-0.225000X0.250000X-0.225000X0.250000X0.225000X0*%
%ADD18RoundRect,0.200000X0.200000X0.275000X-0.200000X0.275000X-0.200000X-0.275000X0.200000X-0.275000X0*%
%ADD19R,0.700000X1.000000*%
%ADD20R,0.700000X0.600000*%
%ADD21RoundRect,0.218750X-0.218750X-0.256250X0.218750X-0.256250X0.218750X0.256250X-0.218750X0.256250X0*%
%ADD22C,0.650000*%
%ADD23R,1.450000X0.600000*%
%ADD24R,1.450000X0.300000*%
%ADD25O,2.100000X1.000000*%
%ADD26O,1.600000X1.000000*%
%ADD27RoundRect,0.125000X0.250000X0.125000X-0.250000X0.125000X-0.250000X-0.125000X0.250000X-0.125000X0*%
%ADD28R,3.400000X4.300000*%
%ADD29RoundRect,0.225000X0.225000X0.250000X-0.225000X0.250000X-0.225000X-0.250000X0.225000X-0.250000X0*%
%ADD30RoundRect,0.150000X-0.150000X0.512500X-0.150000X-0.512500X0.150000X-0.512500X0.150000X0.512500X0*%
%ADD31RoundRect,0.200000X-0.275000X0.200000X-0.275000X-0.200000X0.275000X-0.200000X0.275000X0.200000X0*%
%ADD32O,0.875000X0.200000*%
%ADD33O,0.200000X0.875000*%
%ADD34R,0.800000X0.800000*%
%ADD35RoundRect,0.225000X-0.225000X-0.250000X0.225000X-0.250000X0.225000X0.250000X-0.225000X0.250000X0*%
%ADD36RoundRect,0.200000X0.275000X-0.200000X0.275000X0.200000X-0.275000X0.200000X-0.275000X-0.200000X0*%
%ADD37R,1.000000X1.500000*%
%ADD38C,1.000000*%
%ADD39RoundRect,0.112500X-0.112500X0.187500X-0.112500X-0.187500X0.112500X-0.187500X0.112500X0.187500X0*%
%ADD40RoundRect,0.150000X0.512500X0.150000X-0.512500X0.150000X-0.512500X-0.150000X0.512500X-0.150000X0*%
G04 APERTURE END LIST*
D10*
X103250000Y-53250000D03*
X146750000Y-93900000D03*
X103250000Y-93900000D03*
X146750000Y-53250000D03*
D11*
X143750000Y-62150000D03*
D12*
X146290000Y-62150000D03*
X143750000Y-64690000D03*
X146290000Y-64690000D03*
X143750000Y-67230000D03*
X146290000Y-67230000D03*
X143750000Y-69770000D03*
X146290000Y-69770000D03*
X143750000Y-72310000D03*
X146290000Y-72310000D03*
X143750000Y-74850000D03*
X146290000Y-74850000D03*
X143750000Y-77390000D03*
X146290000Y-77390000D03*
X143750000Y-79930000D03*
X146290000Y-79930000D03*
X143750000Y-82470000D03*
X146290000Y-82470000D03*
X143750000Y-85010000D03*
X146290000Y-85010000D03*
D13*
X103050000Y-80200000D03*
X104700000Y-80200000D03*
D14*
X108680000Y-88337500D03*
X108680000Y-86787500D03*
D15*
X116951000Y-58760000D03*
D16*
X115681000Y-58760000D03*
X114411000Y-58760000D03*
D17*
X117886487Y-79805000D03*
X117886487Y-81355000D03*
D18*
X117300000Y-84080000D03*
X115650000Y-84080000D03*
X122661000Y-57940000D03*
X121011000Y-57940000D03*
X117300000Y-85600000D03*
X115650000Y-85600000D03*
D19*
X112750000Y-79350000D03*
D20*
X112750000Y-77650000D03*
X110750000Y-77650000D03*
X110750000Y-79550000D03*
D18*
X111585000Y-62744000D03*
X109935000Y-62744000D03*
D21*
X106922500Y-62740000D03*
X108497500Y-62740000D03*
D15*
X133600000Y-90300000D03*
D16*
X133600000Y-89030000D03*
D17*
X123196000Y-79815000D03*
X123196000Y-81365000D03*
D21*
X106922500Y-61076000D03*
X108497500Y-61076000D03*
D17*
X114846000Y-79815000D03*
X114846000Y-81365000D03*
D22*
X106750000Y-70685000D03*
X106750000Y-76465000D03*
D23*
X108195000Y-70325000D03*
X108195000Y-71125000D03*
D24*
X108195000Y-72325000D03*
X108195000Y-73325000D03*
X108195000Y-73825000D03*
X108195000Y-74825000D03*
D23*
X108195000Y-76025000D03*
X108195000Y-76825000D03*
X108195000Y-76825000D03*
X108195000Y-76025000D03*
D24*
X108195000Y-75325000D03*
X108195000Y-74325000D03*
X108195000Y-72825000D03*
X108195000Y-71825000D03*
D23*
X108195000Y-71125000D03*
X108195000Y-70325000D03*
D25*
X107280000Y-69255000D03*
D26*
X103100000Y-69255000D03*
D25*
X107280000Y-77895000D03*
D26*
X103100000Y-77895000D03*
D18*
X104695000Y-81720000D03*
X103045000Y-81720000D03*
D13*
X113235000Y-70080000D03*
X114885000Y-70080000D03*
D27*
X129122500Y-88882500D03*
X129122500Y-87612500D03*
X129122500Y-86342500D03*
X129122500Y-85072500D03*
X123722500Y-85072500D03*
X123722500Y-86342500D03*
X123722500Y-87612500D03*
X123722500Y-88882500D03*
D28*
X126422500Y-86977500D03*
D29*
X114835000Y-71600000D03*
X113285000Y-71600000D03*
D30*
X105140000Y-84645000D03*
X104190000Y-84645000D03*
X103240000Y-84645000D03*
X103240000Y-86920000D03*
X105140000Y-86920000D03*
D13*
X129675000Y-74830000D03*
X131325000Y-74830000D03*
D31*
X121476000Y-64595000D03*
X121476000Y-66245000D03*
D17*
X116366487Y-79805000D03*
X116366487Y-81355000D03*
D13*
X129675000Y-79900000D03*
X131325000Y-79900000D03*
D17*
X121676000Y-79815000D03*
X121676000Y-81365000D03*
D13*
X129675000Y-67200000D03*
X131325000Y-67200000D03*
D32*
X123643500Y-75200000D03*
X123643500Y-74800000D03*
X123643500Y-74400000D03*
X123643500Y-74000000D03*
X123643500Y-73600000D03*
X123643500Y-73200000D03*
X123643500Y-72800000D03*
X123643500Y-72400000D03*
X123643500Y-72000000D03*
X123643500Y-71600000D03*
X123643500Y-71200000D03*
X123643500Y-70800000D03*
X123643500Y-70400000D03*
X123643500Y-70000000D03*
D33*
X122806000Y-69162500D03*
X122406000Y-69162500D03*
X122006000Y-69162500D03*
X121606000Y-69162500D03*
X121206000Y-69162500D03*
X120806000Y-69162500D03*
X120406000Y-69162500D03*
X120006000Y-69162500D03*
X119606000Y-69162500D03*
X119206000Y-69162500D03*
X118806000Y-69162500D03*
X118406000Y-69162500D03*
X118006000Y-69162500D03*
X117606000Y-69162500D03*
D32*
X116768500Y-70000000D03*
X116768500Y-70400000D03*
X116768500Y-70800000D03*
X116768500Y-71200000D03*
X116768500Y-71600000D03*
X116768500Y-72000000D03*
X116768500Y-72400000D03*
X116768500Y-72800000D03*
X116768500Y-73200000D03*
X116768500Y-73600000D03*
X116768500Y-74000000D03*
X116768500Y-74400000D03*
X116768500Y-74800000D03*
X116768500Y-75200000D03*
D33*
X117606000Y-76037500D03*
X118006000Y-76037500D03*
X118406000Y-76037500D03*
X118806000Y-76037500D03*
X119206000Y-76037500D03*
X119606000Y-76037500D03*
X120006000Y-76037500D03*
X120406000Y-76037500D03*
X120806000Y-76037500D03*
X121206000Y-76037500D03*
X121606000Y-76037500D03*
X122006000Y-76037500D03*
X122406000Y-76037500D03*
X122806000Y-76037500D03*
D34*
X121406000Y-73800000D03*
X121406000Y-73000000D03*
X121406000Y-72200000D03*
X121406000Y-71400000D03*
X120606000Y-73800000D03*
X120606000Y-73000000D03*
X120606000Y-72200000D03*
X120606000Y-71400000D03*
D10*
X120206000Y-72600000D03*
D34*
X119806000Y-73800000D03*
X119806000Y-73000000D03*
X119806000Y-72200000D03*
X119806000Y-71400000D03*
X119006000Y-73800000D03*
X119006000Y-73000000D03*
X119006000Y-72200000D03*
X119006000Y-71400000D03*
D35*
X123797500Y-90527500D03*
X125347500Y-90527500D03*
D36*
X133000000Y-64550000D03*
X133000000Y-62900000D03*
X133000000Y-73700000D03*
X133000000Y-72050000D03*
D35*
X121061000Y-59440000D03*
X122611000Y-59440000D03*
D13*
X129675000Y-69740000D03*
X131325000Y-69740000D03*
D31*
X133000000Y-79900000D03*
X133000000Y-81550000D03*
D14*
X118436000Y-66195000D03*
X118436000Y-64645000D03*
D29*
X114835000Y-68550000D03*
X113285000Y-68550000D03*
D37*
X110460000Y-92220000D03*
X111760000Y-92220000D03*
D38*
X110900000Y-87775000D03*
D13*
X129675000Y-77370000D03*
X131325000Y-77370000D03*
D17*
X126160000Y-75625000D03*
X126160000Y-77175000D03*
D13*
X103375000Y-66830000D03*
X105025000Y-66830000D03*
X129675000Y-64660000D03*
X131325000Y-64660000D03*
D17*
X120156000Y-79815000D03*
X120156000Y-81365000D03*
D39*
X106910000Y-84802500D03*
X106910000Y-86902500D03*
D38*
X108670000Y-81410000D03*
D29*
X114835000Y-75190000D03*
X113285000Y-75190000D03*
D31*
X131300000Y-88875000D03*
X131300000Y-90525000D03*
D18*
X111585000Y-61070000D03*
X109935000Y-61070000D03*
D14*
X119956000Y-66195000D03*
X119956000Y-64645000D03*
D13*
X129675000Y-72290000D03*
X131325000Y-72290000D03*
D40*
X123753500Y-62840000D03*
X123753500Y-61890000D03*
X123753500Y-60940000D03*
X121478500Y-60940000D03*
X121478500Y-62840000D03*
D17*
X108680000Y-83317500D03*
X108680000Y-84867500D03*
D14*
X125460000Y-70635000D03*
X125460000Y-69085000D03*
M02*
