G04 #@! TF.GenerationSoftware,KiCad,Pcbnew,7.0.1-0*
G04 #@! TF.CreationDate,2023-05-08T01:12:17+09:00*
G04 #@! TF.ProjectId,rp2040_jtag_debugger,72703230-3430-45f6-9a74-61675f646562,rev?*
G04 #@! TF.SameCoordinates,Original*
G04 #@! TF.FileFunction,Copper,L1,Top*
G04 #@! TF.FilePolarity,Positive*
%FSLAX46Y46*%
G04 Gerber Fmt 4.6, Leading zero omitted, Abs format (unit mm)*
G04 Created by KiCad (PCBNEW 7.0.1-0) date 2023-05-08 01:12:17*
%MOMM*%
%LPD*%
G01*
G04 APERTURE LIST*
G04 Aperture macros list*
%AMRoundRect*
0 Rectangle with rounded corners*
0 $1 Rounding radius*
0 $2 $3 $4 $5 $6 $7 $8 $9 X,Y pos of 4 corners*
0 Add a 4 corners polygon primitive as box body*
4,1,4,$2,$3,$4,$5,$6,$7,$8,$9,$2,$3,0*
0 Add four circle primitives for the rounded corners*
1,1,$1+$1,$2,$3*
1,1,$1+$1,$4,$5*
1,1,$1+$1,$6,$7*
1,1,$1+$1,$8,$9*
0 Add four rect primitives between the rounded corners*
20,1,$1+$1,$2,$3,$4,$5,0*
20,1,$1+$1,$4,$5,$6,$7,0*
20,1,$1+$1,$6,$7,$8,$9,0*
20,1,$1+$1,$8,$9,$2,$3,0*%
G04 Aperture macros list end*
G04 #@! TA.AperFunction,ComponentPad*
%ADD10RoundRect,0.250000X-0.600000X-0.600000X0.600000X-0.600000X0.600000X0.600000X-0.600000X0.600000X0*%
G04 #@! TD*
G04 #@! TA.AperFunction,ComponentPad*
%ADD11C,1.700000*%
G04 #@! TD*
G04 #@! TA.AperFunction,SMDPad,CuDef*
%ADD12RoundRect,0.200000X-0.200000X-0.275000X0.200000X-0.275000X0.200000X0.275000X-0.200000X0.275000X0*%
G04 #@! TD*
G04 #@! TA.AperFunction,SMDPad,CuDef*
%ADD13RoundRect,0.225000X0.250000X-0.225000X0.250000X0.225000X-0.250000X0.225000X-0.250000X-0.225000X0*%
G04 #@! TD*
G04 #@! TA.AperFunction,ComponentPad*
%ADD14R,1.000000X1.000000*%
G04 #@! TD*
G04 #@! TA.AperFunction,ComponentPad*
%ADD15O,1.000000X1.000000*%
G04 #@! TD*
G04 #@! TA.AperFunction,SMDPad,CuDef*
%ADD16RoundRect,0.225000X-0.250000X0.225000X-0.250000X-0.225000X0.250000X-0.225000X0.250000X0.225000X0*%
G04 #@! TD*
G04 #@! TA.AperFunction,SMDPad,CuDef*
%ADD17RoundRect,0.200000X0.200000X0.275000X-0.200000X0.275000X-0.200000X-0.275000X0.200000X-0.275000X0*%
G04 #@! TD*
G04 #@! TA.AperFunction,SMDPad,CuDef*
%ADD18R,0.700000X1.000000*%
G04 #@! TD*
G04 #@! TA.AperFunction,SMDPad,CuDef*
%ADD19R,0.700000X0.600000*%
G04 #@! TD*
G04 #@! TA.AperFunction,SMDPad,CuDef*
%ADD20RoundRect,0.218750X-0.218750X-0.256250X0.218750X-0.256250X0.218750X0.256250X-0.218750X0.256250X0*%
G04 #@! TD*
G04 #@! TA.AperFunction,SMDPad,CuDef*
%ADD21R,1.450000X0.600000*%
G04 #@! TD*
G04 #@! TA.AperFunction,SMDPad,CuDef*
%ADD22R,1.450000X0.300000*%
G04 #@! TD*
G04 #@! TA.AperFunction,ComponentPad*
%ADD23O,2.100000X1.000000*%
G04 #@! TD*
G04 #@! TA.AperFunction,ComponentPad*
%ADD24O,1.600000X1.000000*%
G04 #@! TD*
G04 #@! TA.AperFunction,SMDPad,CuDef*
%ADD25RoundRect,0.125000X0.250000X0.125000X-0.250000X0.125000X-0.250000X-0.125000X0.250000X-0.125000X0*%
G04 #@! TD*
G04 #@! TA.AperFunction,SMDPad,CuDef*
%ADD26R,3.400000X4.300000*%
G04 #@! TD*
G04 #@! TA.AperFunction,SMDPad,CuDef*
%ADD27RoundRect,0.225000X0.225000X0.250000X-0.225000X0.250000X-0.225000X-0.250000X0.225000X-0.250000X0*%
G04 #@! TD*
G04 #@! TA.AperFunction,SMDPad,CuDef*
%ADD28RoundRect,0.150000X-0.150000X0.512500X-0.150000X-0.512500X0.150000X-0.512500X0.150000X0.512500X0*%
G04 #@! TD*
G04 #@! TA.AperFunction,SMDPad,CuDef*
%ADD29RoundRect,0.200000X-0.275000X0.200000X-0.275000X-0.200000X0.275000X-0.200000X0.275000X0.200000X0*%
G04 #@! TD*
G04 #@! TA.AperFunction,SMDPad,CuDef*
%ADD30O,0.875000X0.200000*%
G04 #@! TD*
G04 #@! TA.AperFunction,SMDPad,CuDef*
%ADD31O,0.200000X0.875000*%
G04 #@! TD*
G04 #@! TA.AperFunction,SMDPad,CuDef*
%ADD32R,0.800000X0.800000*%
G04 #@! TD*
G04 #@! TA.AperFunction,ComponentPad*
%ADD33C,3.000000*%
G04 #@! TD*
G04 #@! TA.AperFunction,SMDPad,CuDef*
%ADD34RoundRect,0.225000X-0.225000X-0.250000X0.225000X-0.250000X0.225000X0.250000X-0.225000X0.250000X0*%
G04 #@! TD*
G04 #@! TA.AperFunction,SMDPad,CuDef*
%ADD35RoundRect,0.200000X0.275000X-0.200000X0.275000X0.200000X-0.275000X0.200000X-0.275000X-0.200000X0*%
G04 #@! TD*
G04 #@! TA.AperFunction,SMDPad,CuDef*
%ADD36R,1.000000X1.500000*%
G04 #@! TD*
G04 #@! TA.AperFunction,SMDPad,CuDef*
%ADD37C,1.000000*%
G04 #@! TD*
G04 #@! TA.AperFunction,SMDPad,CuDef*
%ADD38RoundRect,0.112500X-0.112500X0.187500X-0.112500X-0.187500X0.112500X-0.187500X0.112500X0.187500X0*%
G04 #@! TD*
G04 #@! TA.AperFunction,SMDPad,CuDef*
%ADD39RoundRect,0.150000X0.512500X0.150000X-0.512500X0.150000X-0.512500X-0.150000X0.512500X-0.150000X0*%
G04 #@! TD*
G04 #@! TA.AperFunction,ViaPad*
%ADD40C,0.600000*%
G04 #@! TD*
G04 #@! TA.AperFunction,ViaPad*
%ADD41C,0.800000*%
G04 #@! TD*
G04 #@! TA.AperFunction,ViaPad*
%ADD42C,3.000000*%
G04 #@! TD*
G04 #@! TA.AperFunction,Conductor*
%ADD43C,0.500000*%
G04 #@! TD*
G04 #@! TA.AperFunction,Conductor*
%ADD44C,0.200000*%
G04 #@! TD*
G04 #@! TA.AperFunction,Conductor*
%ADD45C,0.700000*%
G04 #@! TD*
G04 #@! TA.AperFunction,Conductor*
%ADD46C,0.300000*%
G04 #@! TD*
G04 #@! TA.AperFunction,Conductor*
%ADD47C,0.600000*%
G04 #@! TD*
G04 #@! TA.AperFunction,Conductor*
%ADD48C,0.400000*%
G04 #@! TD*
G04 #@! TA.AperFunction,Conductor*
%ADD49C,0.250000*%
G04 #@! TD*
G04 #@! TA.AperFunction,Conductor*
%ADD50C,0.830000*%
G04 #@! TD*
G04 #@! TA.AperFunction,Conductor*
%ADD51C,1.000000*%
G04 #@! TD*
G04 APERTURE END LIST*
G04 #@! TA.AperFunction,EtchedComponent*
G36*
X111360000Y-92520000D02*
G01*
X110860000Y-92520000D01*
X110860000Y-91920000D01*
X111360000Y-91920000D01*
X111360000Y-92520000D01*
G37*
G04 #@! TD.AperFunction*
D10*
X143750000Y-62150000D03*
D11*
X146290000Y-62150000D03*
X143750000Y-64690000D03*
X146290000Y-64690000D03*
X143750000Y-67230000D03*
X146290000Y-67230000D03*
X143750000Y-69770000D03*
X146290000Y-69770000D03*
X143750000Y-72310000D03*
X146290000Y-72310000D03*
X143750000Y-74850000D03*
X146290000Y-74850000D03*
X143750000Y-77390000D03*
X146290000Y-77390000D03*
X143750000Y-79930000D03*
X146290000Y-79930000D03*
X143750000Y-82470000D03*
X146290000Y-82470000D03*
X143750000Y-85010000D03*
X146290000Y-85010000D03*
D12*
X103050000Y-80200000D03*
X104700000Y-80200000D03*
D13*
X108680000Y-88337500D03*
X108680000Y-86787500D03*
D14*
X116951000Y-58760000D03*
D15*
X115681000Y-58760000D03*
X114411000Y-58760000D03*
D16*
X117886487Y-79805000D03*
X117886487Y-81355000D03*
D17*
X117300000Y-84080000D03*
X115650000Y-84080000D03*
X122661000Y-57940000D03*
X121011000Y-57940000D03*
X117300000Y-85600000D03*
X115650000Y-85600000D03*
D18*
X112750000Y-79350000D03*
D19*
X112750000Y-77650000D03*
X110750000Y-77650000D03*
X110750000Y-79550000D03*
D17*
X111585000Y-62744000D03*
X109935000Y-62744000D03*
D20*
X106922500Y-62740000D03*
X108497500Y-62740000D03*
D14*
X133600000Y-90300000D03*
D15*
X133600000Y-89030000D03*
D16*
X123196000Y-79815000D03*
X123196000Y-81365000D03*
D20*
X106922500Y-61076000D03*
X108497500Y-61076000D03*
D16*
X114846000Y-79815000D03*
X114846000Y-81365000D03*
D21*
X108195000Y-70325000D03*
X108195000Y-71125000D03*
D22*
X108195000Y-72325000D03*
X108195000Y-73325000D03*
X108195000Y-73825000D03*
X108195000Y-74825000D03*
D21*
X108195000Y-76025000D03*
X108195000Y-76825000D03*
X108195000Y-76825000D03*
X108195000Y-76025000D03*
D22*
X108195000Y-75325000D03*
X108195000Y-74325000D03*
X108195000Y-72825000D03*
X108195000Y-71825000D03*
D21*
X108195000Y-71125000D03*
X108195000Y-70325000D03*
D23*
X107280000Y-69255000D03*
D24*
X103100000Y-69255000D03*
D23*
X107280000Y-77895000D03*
D24*
X103100000Y-77895000D03*
D17*
X104695000Y-81720000D03*
X103045000Y-81720000D03*
D12*
X113235000Y-70080000D03*
X114885000Y-70080000D03*
D25*
X129122500Y-88882500D03*
X129122500Y-87612500D03*
X129122500Y-86342500D03*
X129122500Y-85072500D03*
X123722500Y-85072500D03*
X123722500Y-86342500D03*
X123722500Y-87612500D03*
X123722500Y-88882500D03*
D26*
X126422500Y-86977500D03*
D27*
X114835000Y-71600000D03*
X113285000Y-71600000D03*
D28*
X105140000Y-84645000D03*
X104190000Y-84645000D03*
X103240000Y-84645000D03*
X103240000Y-86920000D03*
X105140000Y-86920000D03*
D12*
X129675000Y-74830000D03*
X131325000Y-74830000D03*
D29*
X121476000Y-64595000D03*
X121476000Y-66245000D03*
D16*
X116366487Y-79805000D03*
X116366487Y-81355000D03*
D12*
X129675000Y-79900000D03*
X131325000Y-79900000D03*
D16*
X121676000Y-79815000D03*
X121676000Y-81365000D03*
D12*
X129675000Y-67200000D03*
X131325000Y-67200000D03*
D30*
X123643500Y-75200000D03*
X123643500Y-74800000D03*
X123643500Y-74400000D03*
X123643500Y-74000000D03*
X123643500Y-73600000D03*
X123643500Y-73200000D03*
X123643500Y-72800000D03*
X123643500Y-72400000D03*
X123643500Y-72000000D03*
X123643500Y-71600000D03*
X123643500Y-71200000D03*
X123643500Y-70800000D03*
X123643500Y-70400000D03*
X123643500Y-70000000D03*
D31*
X122806000Y-69162500D03*
X122406000Y-69162500D03*
X122006000Y-69162500D03*
X121606000Y-69162500D03*
X121206000Y-69162500D03*
X120806000Y-69162500D03*
X120406000Y-69162500D03*
X120006000Y-69162500D03*
X119606000Y-69162500D03*
X119206000Y-69162500D03*
X118806000Y-69162500D03*
X118406000Y-69162500D03*
X118006000Y-69162500D03*
X117606000Y-69162500D03*
D30*
X116768500Y-70000000D03*
X116768500Y-70400000D03*
X116768500Y-70800000D03*
X116768500Y-71200000D03*
X116768500Y-71600000D03*
X116768500Y-72000000D03*
X116768500Y-72400000D03*
X116768500Y-72800000D03*
X116768500Y-73200000D03*
X116768500Y-73600000D03*
X116768500Y-74000000D03*
X116768500Y-74400000D03*
X116768500Y-74800000D03*
X116768500Y-75200000D03*
D31*
X117606000Y-76037500D03*
X118006000Y-76037500D03*
X118406000Y-76037500D03*
X118806000Y-76037500D03*
X119206000Y-76037500D03*
X119606000Y-76037500D03*
X120006000Y-76037500D03*
X120406000Y-76037500D03*
X120806000Y-76037500D03*
X121206000Y-76037500D03*
X121606000Y-76037500D03*
X122006000Y-76037500D03*
X122406000Y-76037500D03*
X122806000Y-76037500D03*
D32*
X121406000Y-73800000D03*
X121406000Y-73000000D03*
X121406000Y-72200000D03*
X121406000Y-71400000D03*
X120606000Y-73800000D03*
X120606000Y-73000000D03*
X120606000Y-72200000D03*
X120606000Y-71400000D03*
D33*
X120206000Y-72600000D03*
D32*
X119806000Y-73800000D03*
X119806000Y-73000000D03*
X119806000Y-72200000D03*
X119806000Y-71400000D03*
X119006000Y-73800000D03*
X119006000Y-73000000D03*
X119006000Y-72200000D03*
X119006000Y-71400000D03*
D34*
X123797500Y-90527500D03*
X125347500Y-90527500D03*
D35*
X133000000Y-64550000D03*
X133000000Y-62900000D03*
X133000000Y-73700000D03*
X133000000Y-72050000D03*
D34*
X121061000Y-59440000D03*
X122611000Y-59440000D03*
D12*
X129675000Y-69740000D03*
X131325000Y-69740000D03*
D29*
X133000000Y-79900000D03*
X133000000Y-81550000D03*
D13*
X118436000Y-66195000D03*
X118436000Y-64645000D03*
D27*
X114835000Y-68550000D03*
X113285000Y-68550000D03*
D36*
X110460000Y-92220000D03*
X111760000Y-92220000D03*
D37*
X110900000Y-87775000D03*
D12*
X129675000Y-77370000D03*
X131325000Y-77370000D03*
D16*
X126160000Y-75625000D03*
X126160000Y-77175000D03*
D12*
X103375000Y-66830000D03*
X105025000Y-66830000D03*
X129675000Y-64660000D03*
X131325000Y-64660000D03*
D16*
X120156000Y-79815000D03*
X120156000Y-81365000D03*
D38*
X106910000Y-84802500D03*
X106910000Y-86902500D03*
D37*
X108670000Y-81410000D03*
D27*
X114835000Y-75190000D03*
X113285000Y-75190000D03*
D29*
X131300000Y-88875000D03*
X131300000Y-90525000D03*
D17*
X111585000Y-61070000D03*
X109935000Y-61070000D03*
D13*
X119956000Y-66195000D03*
X119956000Y-64645000D03*
D12*
X129675000Y-72290000D03*
X131325000Y-72290000D03*
D39*
X123753500Y-62840000D03*
X123753500Y-61890000D03*
X123753500Y-60940000D03*
X121478500Y-60940000D03*
X121478500Y-62840000D03*
D16*
X108680000Y-83317500D03*
X108680000Y-84867500D03*
D13*
X125460000Y-70635000D03*
X125460000Y-69085000D03*
D40*
X108940000Y-65060000D03*
X103490000Y-61770000D03*
X129080000Y-59660000D03*
X103950000Y-73600000D03*
X139010000Y-86700000D03*
X139050000Y-92530000D03*
X137280000Y-59680000D03*
X137240000Y-54670000D03*
X129070000Y-54550000D03*
X121200000Y-54400000D03*
X112570000Y-54210000D03*
X108760000Y-58480000D03*
X123186000Y-82380000D03*
X142000000Y-63440000D03*
X120000000Y-86050000D03*
X104200000Y-88300000D03*
X128000000Y-69000000D03*
X101000000Y-57000000D03*
X113700000Y-73350000D03*
X109900000Y-70300000D03*
X117700000Y-82500000D03*
X128500000Y-71500000D03*
X115675000Y-61050000D03*
X115050000Y-96275000D03*
X144100000Y-91225000D03*
X127050000Y-96275000D03*
X139000000Y-71060000D03*
X104500000Y-56950000D03*
X149150000Y-73600000D03*
X136000000Y-81220000D03*
X101000000Y-65300000D03*
X127500000Y-66500000D03*
X139000000Y-63440000D03*
X143125000Y-92600000D03*
X107050000Y-96275000D03*
D41*
X132500000Y-84200000D03*
D40*
X114800000Y-82500000D03*
X110925000Y-50875000D03*
X117550500Y-63200000D03*
X119250000Y-61100000D03*
X105840000Y-85832500D03*
X125700000Y-83925000D03*
X109100000Y-93350000D03*
X126810000Y-90550000D03*
X101000000Y-86050000D03*
X127700000Y-83925000D03*
X122250000Y-68054342D03*
X130925000Y-50875000D03*
X139000000Y-81220000D03*
X144050000Y-55850000D03*
X130000000Y-71060000D03*
X149150000Y-86050000D03*
X130000000Y-68520000D03*
X111050000Y-96275000D03*
X130000000Y-65980000D03*
X136000000Y-78680000D03*
X101000000Y-81900000D03*
X108680000Y-85832500D03*
X111960000Y-68550000D03*
X106000000Y-83800000D03*
X126980000Y-64740000D03*
X116400000Y-82500000D03*
X126925000Y-50875000D03*
X123050000Y-96275000D03*
X142000000Y-71060000D03*
X109400000Y-79500000D03*
X128450000Y-81200000D03*
X133000000Y-78680000D03*
X142000000Y-65980000D03*
X128950000Y-76150000D03*
X136000000Y-76140000D03*
X119430000Y-63240000D03*
X114925000Y-50875000D03*
X105875000Y-55975000D03*
X130000000Y-73600000D03*
X139050000Y-96275000D03*
D42*
X126422500Y-86977500D03*
D40*
X136000000Y-63440000D03*
X104525000Y-90275000D03*
X149150000Y-57000000D03*
X145575000Y-90250000D03*
X113375000Y-62225000D03*
X139000000Y-65980000D03*
X132450000Y-87950000D03*
X122500000Y-91100000D03*
X106925000Y-50875000D03*
X131700000Y-81200000D03*
X131050000Y-96275000D03*
X142000000Y-81220000D03*
X116350000Y-76200000D03*
X118025000Y-93400000D03*
X142000000Y-76140000D03*
X126820000Y-78680000D03*
X113802015Y-79367765D03*
X134200000Y-81200000D03*
X113000000Y-65300000D03*
X120886873Y-65420000D03*
X143075000Y-54400000D03*
X101000000Y-90200000D03*
X126100000Y-67800000D03*
X128800000Y-78700000D03*
X123756000Y-63640000D03*
X139000000Y-68520000D03*
X130250000Y-83050000D03*
X116300000Y-63100000D03*
X114975000Y-67275000D03*
X104190000Y-83472500D03*
X134925000Y-50875000D03*
X122550000Y-88200000D03*
X101000000Y-61150000D03*
X119050000Y-96275000D03*
X139000000Y-76140000D03*
X101000000Y-69450000D03*
X133000000Y-76140000D03*
X136000000Y-65980000D03*
X109800000Y-90650000D03*
X130000000Y-78680000D03*
X115150000Y-87900000D03*
X130190000Y-89800000D03*
X118925000Y-50875000D03*
X122925000Y-50875000D03*
X136000000Y-71060000D03*
X120150000Y-82700000D03*
X142000000Y-73600000D03*
X128000000Y-93300000D03*
X133000000Y-65980000D03*
X143050000Y-96275000D03*
X139000000Y-73600000D03*
X111970000Y-71610000D03*
X142000000Y-68520000D03*
X145525000Y-56925000D03*
X149150000Y-81900000D03*
X136000000Y-68520000D03*
X118300000Y-87800000D03*
X125103911Y-76696089D03*
X101000000Y-77750000D03*
X106900000Y-92725000D03*
X130150000Y-91050000D03*
X120000000Y-91100000D03*
X149150000Y-69450000D03*
X125650000Y-81800000D03*
X149150000Y-77750000D03*
X115450000Y-91000000D03*
X107250000Y-88350000D03*
X105900000Y-91275000D03*
X149150000Y-61150000D03*
X142925000Y-50875000D03*
X135050000Y-96275000D03*
X149150000Y-90200000D03*
X109900000Y-72250000D03*
D41*
X110125000Y-85775000D03*
D40*
X136000000Y-73600000D03*
X133000000Y-71060000D03*
X149150000Y-65300000D03*
X139000000Y-78680000D03*
X133000000Y-68520000D03*
X120050000Y-88500000D03*
X127550000Y-73600000D03*
X112450000Y-87900000D03*
X142000000Y-78680000D03*
X130000000Y-76140000D03*
X106950000Y-54525000D03*
X115200000Y-64250000D03*
X138925000Y-50875000D03*
X101000000Y-73600000D03*
X123750000Y-67925000D03*
D41*
X131300000Y-92200000D03*
D40*
X115606000Y-80590000D03*
X122510000Y-74620000D03*
X127120000Y-76440000D03*
X122500000Y-70980000D03*
X133000000Y-82500000D03*
X120010000Y-70390000D03*
X133000000Y-61800000D03*
X114063911Y-64416089D03*
X120916000Y-80570000D03*
X119195998Y-65384591D03*
X120286000Y-58710000D03*
X126202987Y-69840909D03*
X121180000Y-92220000D03*
X114860000Y-76490000D03*
X114070000Y-70830000D03*
X120080000Y-75050000D03*
X122446000Y-80590000D03*
X117340000Y-65717153D03*
X117150404Y-80592762D03*
X118050000Y-71580000D03*
X118210000Y-75030000D03*
X106960000Y-72590000D03*
X106260000Y-66850000D03*
X105690000Y-80210000D03*
X109600000Y-75300000D03*
X116490500Y-67300000D03*
X116490500Y-68600000D03*
X123800000Y-60100000D03*
X123800000Y-58000000D03*
D43*
X126787500Y-90527500D02*
X126810000Y-90550000D01*
X105840000Y-85832500D02*
X105830000Y-85842500D01*
D44*
X113285000Y-71600000D02*
X111980000Y-71600000D01*
D43*
X125347500Y-88052500D02*
X126422500Y-86977500D01*
X129122500Y-85072500D02*
X128177500Y-85072500D01*
D44*
X120886873Y-65420000D02*
X120111873Y-64645000D01*
X122476000Y-62920000D02*
X122476000Y-60450000D01*
D43*
X128177500Y-85072500D02*
X126422500Y-86827500D01*
D44*
X108680000Y-86787500D02*
X108680000Y-85832500D01*
X104190000Y-84645000D02*
X104190000Y-85790000D01*
X108680000Y-84867500D02*
X108680000Y-85832500D01*
X123196000Y-81365000D02*
X123196000Y-82370000D01*
D43*
X108195000Y-76825000D02*
X108195000Y-77895000D01*
D45*
X112750000Y-79350000D02*
X113784250Y-79350000D01*
D44*
X125103911Y-76903911D02*
X125375000Y-77175000D01*
X123753500Y-62840000D02*
X122486000Y-62840000D01*
X111980000Y-71600000D02*
X111970000Y-71610000D01*
X122756000Y-63640000D02*
X122476000Y-63360000D01*
D46*
X110150000Y-85750000D02*
X109890000Y-85830000D01*
D47*
X104190000Y-84645000D02*
X104190000Y-83472500D01*
D45*
X113784250Y-79350000D02*
X113802015Y-79367765D01*
D43*
X125347500Y-90527500D02*
X125347500Y-88052500D01*
D44*
X121206000Y-68535686D02*
X121206000Y-69162500D01*
X120150000Y-82700000D02*
X120156000Y-81365000D01*
D43*
X125347500Y-90527500D02*
X126787500Y-90527500D01*
X108680000Y-85832500D02*
X105840000Y-85832500D01*
D44*
X125103911Y-76696089D02*
X125103911Y-76903911D01*
X123196000Y-82370000D02*
X123186000Y-82380000D01*
D46*
X109887500Y-85832500D02*
X110125000Y-85775000D01*
D44*
X117550500Y-63200000D02*
X118100000Y-63200000D01*
X122486000Y-62840000D02*
X122476000Y-62830000D01*
X105772500Y-85900000D02*
X105840000Y-85832500D01*
X120156000Y-82524000D02*
X120150000Y-82700000D01*
X123756000Y-63640000D02*
X122756000Y-63640000D01*
X119430000Y-63240000D02*
X119526000Y-63240000D01*
D46*
X108680000Y-85832500D02*
X109887500Y-85832500D01*
D44*
X122476000Y-63360000D02*
X122476000Y-62830000D01*
X121687344Y-68054342D02*
X121206000Y-68535686D01*
X119526000Y-63240000D02*
X119956000Y-63670000D01*
D46*
X126160000Y-77175000D02*
X126975000Y-77175000D01*
D44*
X104190000Y-85790000D02*
X104300000Y-85900000D01*
X119956000Y-63670000D02*
X119956000Y-64645000D01*
X113285000Y-68550000D02*
X111960000Y-68550000D01*
X120111873Y-64645000D02*
X119956000Y-64645000D01*
D43*
X126422500Y-86827500D02*
X126422500Y-86977500D01*
D44*
X125375000Y-77175000D02*
X126160000Y-77175000D01*
D43*
X108195000Y-77895000D02*
X107280000Y-77895000D01*
D44*
X118100000Y-63200000D02*
X118436000Y-63536000D01*
X104300000Y-85900000D02*
X105772500Y-85900000D01*
X122550000Y-60450000D02*
X122476000Y-60450000D01*
X122611000Y-59440000D02*
X122611000Y-60315000D01*
D46*
X110125000Y-85775000D02*
X110150000Y-85750000D01*
X127270000Y-77470000D02*
X127270000Y-78230000D01*
X127270000Y-78230000D02*
X126820000Y-78680000D01*
X126975000Y-77175000D02*
X127270000Y-77470000D01*
D44*
X118436000Y-63536000D02*
X118436000Y-64645000D01*
X122250000Y-68054342D02*
X121687344Y-68054342D01*
X122550000Y-60376000D02*
X122550000Y-60450000D01*
X122611000Y-60315000D02*
X122550000Y-60376000D01*
D43*
X121011000Y-57985000D02*
X120286000Y-58710000D01*
D44*
X126305000Y-75625000D02*
X127120000Y-76440000D01*
X124300000Y-71600000D02*
X123643500Y-71600000D01*
X117606000Y-76640000D02*
X117606000Y-76037500D01*
X114846000Y-79815000D02*
X114846000Y-79830000D01*
X120161000Y-79815000D02*
X120916000Y-80570000D01*
D45*
X114835000Y-71600000D02*
X114835000Y-75190000D01*
X124220000Y-92220000D02*
X122070000Y-92220000D01*
X131280000Y-92220000D02*
X124220000Y-92220000D01*
D44*
X125460000Y-70583896D02*
X125460000Y-70635000D01*
X124590000Y-75200000D02*
X125015000Y-75625000D01*
D43*
X121011000Y-57940000D02*
X121011000Y-57985000D01*
D44*
X117716000Y-76750000D02*
X117606000Y-76640000D01*
D45*
X123220000Y-92220000D02*
X122070000Y-92220000D01*
X133000000Y-62900000D02*
X133000000Y-61800000D01*
X122510000Y-70990000D02*
X122510000Y-74620000D01*
D44*
X123643500Y-75200000D02*
X124590000Y-75200000D01*
X114845000Y-75200000D02*
X114835000Y-75190000D01*
D48*
X115641487Y-78558513D02*
X115641487Y-79080000D01*
D46*
X117796000Y-76800000D02*
X117796000Y-76820000D01*
D44*
X126160000Y-75625000D02*
X126305000Y-75625000D01*
D45*
X131300000Y-92200000D02*
X131280000Y-92220000D01*
D43*
X121478500Y-59857500D02*
X121061000Y-59440000D01*
D44*
X112400000Y-62700000D02*
X112400000Y-61950000D01*
X117896000Y-76750000D02*
X117716000Y-76750000D01*
X118006000Y-76640000D02*
X117896000Y-76750000D01*
X125265000Y-70635000D02*
X124300000Y-71600000D01*
X120006000Y-76037500D02*
X120006000Y-76640000D01*
D48*
X120891000Y-79080000D02*
X120891000Y-78655000D01*
D44*
X119956000Y-66144593D02*
X119956000Y-66195000D01*
X113320000Y-70080000D02*
X114070000Y-70830000D01*
D48*
X119806000Y-77570000D02*
X119806000Y-76840000D01*
D45*
X123800000Y-90530000D02*
X123800000Y-91640000D01*
D48*
X116100000Y-78100000D02*
X115641487Y-78558513D01*
D44*
X113235000Y-70080000D02*
X113320000Y-70080000D01*
X119726000Y-76760000D02*
X119606000Y-76640000D01*
D43*
X121061000Y-59440000D02*
X121016000Y-59440000D01*
D44*
X111585000Y-61135000D02*
X111585000Y-61070000D01*
X120156000Y-79815000D02*
X120161000Y-79815000D01*
D45*
X121990000Y-70390000D02*
X122500000Y-70900000D01*
D44*
X131300000Y-92200000D02*
X131300000Y-90525000D01*
X118006000Y-76037500D02*
X118006000Y-76640000D01*
X114835000Y-71600000D02*
X116768500Y-71600000D01*
X115641487Y-79080000D02*
X115581000Y-79080000D01*
X120006000Y-66245000D02*
X120006000Y-69162500D01*
D48*
X120891000Y-78655000D02*
X119806000Y-77570000D01*
D44*
X114063911Y-64416089D02*
X114063911Y-64363911D01*
D45*
X120010000Y-70390000D02*
X121990000Y-70390000D01*
D43*
X121478500Y-60940000D02*
X121478500Y-59857500D01*
D45*
X114860000Y-75215000D02*
X114835000Y-75190000D01*
D43*
X123797500Y-88957500D02*
X123722500Y-88882500D01*
D45*
X114860000Y-76490000D02*
X114860000Y-75215000D01*
X123797500Y-90527500D02*
X123800000Y-90530000D01*
D44*
X114835000Y-71600000D02*
X114835000Y-71595000D01*
D46*
X117796000Y-76820000D02*
X117776000Y-76840000D01*
D44*
X125015000Y-75625000D02*
X126160000Y-75625000D01*
D43*
X121016000Y-59440000D02*
X120286000Y-58710000D01*
D44*
X119886000Y-76760000D02*
X119726000Y-76760000D01*
X120006000Y-76640000D02*
X119886000Y-76760000D01*
X115581000Y-79080000D02*
X114846000Y-79815000D01*
D45*
X121180000Y-92220000D02*
X122070000Y-92220000D01*
D44*
X114845000Y-75200000D02*
X116540000Y-75200000D01*
X116366487Y-79805000D02*
X115641487Y-79080000D01*
D45*
X122500000Y-70980000D02*
X122510000Y-70990000D01*
X123800000Y-91640000D02*
X124380000Y-92220000D01*
D44*
X120941000Y-79080000D02*
X120891000Y-79080000D01*
X116366487Y-79805000D02*
X116366487Y-79829513D01*
X114063911Y-64363911D02*
X112400000Y-62700000D01*
X114835000Y-71595000D02*
X114070000Y-70830000D01*
X126202987Y-69840909D02*
X125460000Y-70583896D01*
X114846000Y-79830000D02*
X115606000Y-80590000D01*
X121671000Y-79815000D02*
X120916000Y-80570000D01*
D48*
X117776000Y-76840000D02*
X117776000Y-77524000D01*
D44*
X121676000Y-79815000D02*
X120941000Y-79080000D01*
D45*
X123800000Y-91640000D02*
X123220000Y-92220000D01*
D48*
X117200000Y-78100000D02*
X116100000Y-78100000D01*
D44*
X119606000Y-76640000D02*
X119606000Y-76037500D01*
X125460000Y-70635000D02*
X125265000Y-70635000D01*
D43*
X123797500Y-90527500D02*
X123797500Y-88957500D01*
D45*
X122070000Y-92220000D02*
X111760000Y-92220000D01*
X133000000Y-82500000D02*
X133000000Y-81550000D01*
D44*
X112400000Y-61950000D02*
X111585000Y-61135000D01*
X120891000Y-79080000D02*
X120156000Y-79815000D01*
D48*
X117776000Y-77524000D02*
X117200000Y-78100000D01*
D45*
X122500000Y-70900000D02*
X122500000Y-70980000D01*
D44*
X119956000Y-66195000D02*
X120006000Y-66245000D01*
X116366487Y-79829513D02*
X115606000Y-80590000D01*
X119195998Y-65384591D02*
X119956000Y-66144593D01*
X118406000Y-69162500D02*
X118406000Y-68525000D01*
X114835000Y-68550000D02*
X114835000Y-70030000D01*
X117851000Y-67970000D02*
X115415000Y-67970000D01*
X115415000Y-67970000D02*
X114835000Y-68550000D01*
X118406000Y-68525000D02*
X117851000Y-67970000D01*
X114835000Y-70030000D02*
X114885000Y-70080000D01*
D43*
X110614722Y-79550000D02*
X108680000Y-81484722D01*
D49*
X105140000Y-83040000D02*
X105140000Y-84645000D01*
D46*
X107995000Y-71325000D02*
X107120000Y-71325000D01*
X106100000Y-74600000D02*
X107325000Y-75825000D01*
D43*
X108670000Y-81410000D02*
X108670000Y-83307500D01*
D46*
X107325000Y-75825000D02*
X107995000Y-75825000D01*
X107120000Y-71325000D02*
X106100000Y-72345000D01*
X106100000Y-72345000D02*
X106100000Y-74600000D01*
D47*
X107227500Y-84802500D02*
X106910000Y-84802500D01*
D43*
X109740000Y-78540000D02*
X110750000Y-79550000D01*
D47*
X105297500Y-84802500D02*
X105140000Y-84645000D01*
D46*
X107995000Y-75825000D02*
X108195000Y-76025000D01*
D47*
X106910000Y-84802500D02*
X105297500Y-84802500D01*
D43*
X108670000Y-83307500D02*
X108680000Y-83317500D01*
D47*
X108680000Y-83350000D02*
X107227500Y-84802500D01*
D43*
X109320000Y-76025000D02*
X109740000Y-76445000D01*
X109740000Y-76445000D02*
X109740000Y-78540000D01*
X108195000Y-76025000D02*
X109320000Y-76025000D01*
D49*
X104695000Y-81720000D02*
X104695000Y-82595000D01*
D46*
X108195000Y-71125000D02*
X107995000Y-71325000D01*
D47*
X108680000Y-83317500D02*
X108680000Y-83350000D01*
D43*
X110750000Y-79550000D02*
X110614722Y-79550000D01*
D49*
X104695000Y-82595000D02*
X105140000Y-83040000D01*
D44*
X109929000Y-61076000D02*
X109935000Y-61070000D01*
X108497500Y-61076000D02*
X109929000Y-61076000D01*
X121877572Y-78860000D02*
X120406000Y-77388427D01*
X122446000Y-80590000D02*
X123196000Y-79840000D01*
X119606000Y-69162500D02*
X119606000Y-67365000D01*
X117817847Y-66195000D02*
X118436000Y-66195000D01*
X117886487Y-79805000D02*
X117886487Y-79856679D01*
X118406000Y-77957000D02*
X118406000Y-76037500D01*
X117900000Y-79791487D02*
X117900000Y-78463000D01*
X117886487Y-79856679D02*
X117150404Y-80592762D01*
X117900000Y-78463000D02*
X118406000Y-77957000D01*
D45*
X120060000Y-75030000D02*
X120080000Y-75050000D01*
X118070000Y-74890000D02*
X118210000Y-75030000D01*
X118070000Y-74750000D02*
X118070000Y-74890000D01*
D44*
X120406000Y-77388427D02*
X120406000Y-76070000D01*
X119606000Y-67365000D02*
X118436000Y-66195000D01*
X123196000Y-79815000D02*
X123181000Y-79815000D01*
X117886487Y-79805000D02*
X117900000Y-79791487D01*
D45*
X118056000Y-71586000D02*
X118056000Y-74750000D01*
D44*
X122226000Y-78860000D02*
X121877572Y-78860000D01*
D45*
X118210000Y-75030000D02*
X120060000Y-75030000D01*
X118056000Y-74750000D02*
X118070000Y-74750000D01*
D44*
X123196000Y-79840000D02*
X123196000Y-79815000D01*
X117340000Y-65717153D02*
X117817847Y-66195000D01*
D45*
X118050000Y-71580000D02*
X118056000Y-71586000D01*
D44*
X123181000Y-79815000D02*
X122226000Y-78860000D01*
D50*
X111209792Y-84048112D02*
X111209792Y-81129442D01*
X115405000Y-85355000D02*
X112516680Y-85355000D01*
D44*
X111557393Y-74550237D02*
X111557393Y-76882607D01*
X108195000Y-73325000D02*
X107220000Y-73325000D01*
X109095000Y-74375000D02*
X109190000Y-74280000D01*
X108195000Y-74325000D02*
X108245000Y-74375000D01*
X107000000Y-73545000D02*
X107000000Y-74100000D01*
X108195000Y-74325000D02*
X108210000Y-74340000D01*
X109165000Y-74275000D02*
X111282156Y-74275000D01*
X108245000Y-74375000D02*
X109095000Y-74375000D01*
X111530000Y-78480000D02*
X111530000Y-80611778D01*
X107225000Y-74325000D02*
X108195000Y-74325000D01*
D50*
X115650000Y-85600000D02*
X115405000Y-85355000D01*
D44*
X111557393Y-76882607D02*
X110790000Y-77650000D01*
X108925000Y-74275000D02*
X109165000Y-74275000D01*
D50*
X112516680Y-85355000D02*
X111209792Y-84048112D01*
D44*
X110750000Y-77700000D02*
X111530000Y-78480000D01*
X110790000Y-77650000D02*
X110750000Y-77650000D01*
X111282156Y-74275000D02*
X111557393Y-74550237D01*
X110750000Y-77650000D02*
X110750000Y-77700000D01*
X107000000Y-74100000D02*
X107225000Y-74325000D01*
X107220000Y-73325000D02*
X107000000Y-73545000D01*
X111447844Y-73875000D02*
X111957393Y-74384549D01*
X112750000Y-77700000D02*
X111930000Y-78520000D01*
D50*
X112239792Y-83621472D02*
X112239792Y-81129442D01*
X115405000Y-84325000D02*
X112943320Y-84325000D01*
X112943320Y-84325000D02*
X112239792Y-83621472D01*
D44*
X112700000Y-77650000D02*
X112750000Y-77650000D01*
X111957393Y-74384549D02*
X111957393Y-76907393D01*
X109220000Y-73050000D02*
X109220000Y-73650000D01*
X109095000Y-73775000D02*
X109220000Y-73650000D01*
X109220000Y-73650000D02*
X109220000Y-73760000D01*
X108245000Y-73775000D02*
X109095000Y-73775000D01*
X109210000Y-73690000D02*
X109390000Y-73870000D01*
X111930000Y-78520000D02*
X111930000Y-80586632D01*
X108195000Y-73825000D02*
X108245000Y-73775000D01*
X109385000Y-73875000D02*
X111447844Y-73875000D01*
X109220000Y-73760000D02*
X109105000Y-73875000D01*
X112750000Y-77650000D02*
X112750000Y-77700000D01*
X111957393Y-76907393D02*
X112700000Y-77650000D01*
X108995000Y-72825000D02*
X109220000Y-73050000D01*
X108245000Y-73875000D02*
X109105000Y-73875000D01*
D50*
X115650000Y-84080000D02*
X115405000Y-84325000D01*
D44*
X108245000Y-73875000D02*
X108195000Y-73825000D01*
X109105000Y-73875000D02*
X109385000Y-73875000D01*
X108195000Y-72825000D02*
X108995000Y-72825000D01*
X109931000Y-62740000D02*
X109935000Y-62744000D01*
X108497500Y-62740000D02*
X109931000Y-62740000D01*
X108195000Y-72325000D02*
X107225000Y-72325000D01*
X105025000Y-66830000D02*
X106240000Y-66830000D01*
X106240000Y-66830000D02*
X106260000Y-66850000D01*
X107225000Y-72325000D02*
X106960000Y-72590000D01*
X105680000Y-80200000D02*
X104700000Y-80200000D01*
X105690000Y-80210000D02*
X105680000Y-80200000D01*
X109600000Y-75300000D02*
X108220000Y-75300000D01*
X108220000Y-75300000D02*
X108195000Y-75325000D01*
X133470000Y-88900000D02*
X133600000Y-89030000D01*
X123597500Y-76037500D02*
X126087843Y-78527843D01*
X131300000Y-88882500D02*
X129122500Y-88882500D01*
X131300000Y-85084314D02*
X131300000Y-88882500D01*
X122806000Y-76037500D02*
X123597500Y-76037500D01*
X126087843Y-78527843D02*
X126087843Y-79872157D01*
X131325000Y-88900000D02*
X133470000Y-88900000D01*
X131292500Y-88882500D02*
X131300000Y-88875000D01*
X129122500Y-88882500D02*
X131292500Y-88882500D01*
X131300000Y-88875000D02*
X131325000Y-88900000D01*
X126087843Y-79872157D02*
X131300000Y-85084314D01*
D51*
X143720000Y-64660000D02*
X143750000Y-64690000D01*
X131325000Y-64660000D02*
X143720000Y-64660000D01*
X131325000Y-67200000D02*
X143700000Y-67200000D01*
X143700000Y-67200000D02*
X143740000Y-67240000D01*
X143720000Y-69740000D02*
X143750000Y-69770000D01*
X131325000Y-69740000D02*
X143720000Y-69740000D01*
X132750000Y-72320000D02*
X131355000Y-72320000D01*
X143740000Y-72320000D02*
X132750000Y-72320000D01*
X131355000Y-72320000D02*
X131325000Y-72290000D01*
X143750000Y-72310000D02*
X143740000Y-72320000D01*
D47*
X105157500Y-86902500D02*
X105140000Y-86920000D01*
D45*
X108680000Y-91680000D02*
X109200000Y-92200000D01*
D47*
X107245000Y-86902500D02*
X108680000Y-88337500D01*
X106910000Y-86902500D02*
X107245000Y-86902500D01*
X106910000Y-86902500D02*
X105157500Y-86902500D01*
D45*
X108680000Y-88337500D02*
X108680000Y-91680000D01*
X109250000Y-92220000D02*
X110460000Y-92220000D01*
D51*
X131325000Y-74830000D02*
X143730000Y-74830000D01*
X143730000Y-74830000D02*
X143750000Y-74850000D01*
D44*
X118806000Y-76037500D02*
X118806000Y-84294000D01*
X118460000Y-84640000D02*
X117795000Y-84640000D01*
X118806000Y-84294000D02*
X118460000Y-84640000D01*
X117795000Y-84640000D02*
X117300000Y-84145000D01*
X117300000Y-84145000D02*
X117300000Y-84080000D01*
X119206000Y-84459686D02*
X119206000Y-76037500D01*
X117765000Y-85040000D02*
X118625686Y-85040000D01*
X118625686Y-85040000D02*
X119206000Y-84459686D01*
X117300000Y-85505000D02*
X117765000Y-85040000D01*
X117300000Y-85600000D02*
X117300000Y-85505000D01*
X125500000Y-72000000D02*
X126802987Y-70697013D01*
X123643500Y-72000000D02*
X125500000Y-72000000D01*
X128170000Y-64660000D02*
X129675000Y-64660000D01*
X126802987Y-66027013D02*
X128170000Y-64660000D01*
X126802987Y-70697013D02*
X126802987Y-66027013D01*
X117500000Y-68600000D02*
X117606000Y-68706000D01*
X116490500Y-68600000D02*
X117500000Y-68600000D01*
X117606000Y-68706000D02*
X117606000Y-69162500D01*
X111585000Y-62785000D02*
X111585000Y-62744000D01*
X116100000Y-67300000D02*
X111585000Y-62785000D01*
X116490500Y-67300000D02*
X116100000Y-67300000D01*
X126552462Y-74800000D02*
X127720000Y-75967538D01*
X127720000Y-79020000D02*
X128600000Y-79900000D01*
X123643500Y-74800000D02*
X126552462Y-74800000D01*
X128600000Y-79900000D02*
X129675000Y-79900000D01*
X127720000Y-75967538D02*
X127720000Y-79020000D01*
D51*
X143740000Y-77400000D02*
X131355000Y-77400000D01*
X131355000Y-77400000D02*
X131325000Y-77370000D01*
X143750000Y-77390000D02*
X143740000Y-77400000D01*
D44*
X120806000Y-69162500D02*
X120806000Y-68370000D01*
X121476000Y-67700000D02*
X121476000Y-66245000D01*
X120806000Y-68370000D02*
X121476000Y-67700000D01*
X123643500Y-73200000D02*
X126850000Y-73200000D01*
X126850000Y-73200000D02*
X127760000Y-72290000D01*
X127760000Y-72290000D02*
X129675000Y-72290000D01*
X126065686Y-72800000D02*
X127700000Y-71165685D01*
X127700000Y-70500000D02*
X128460000Y-69740000D01*
X123643500Y-72800000D02*
X126065686Y-72800000D01*
X128460000Y-69740000D02*
X129675000Y-69740000D01*
X127700000Y-71165685D02*
X127700000Y-70500000D01*
X126718148Y-74400000D02*
X128120000Y-75801852D01*
X128120000Y-76700000D02*
X128790000Y-77370000D01*
X128790000Y-77370000D02*
X129675000Y-77370000D01*
X128120000Y-75801852D02*
X128120000Y-76700000D01*
X123643500Y-74400000D02*
X126718148Y-74400000D01*
X125900000Y-72400000D02*
X127300000Y-71000000D01*
X127300000Y-67950000D02*
X128040000Y-67210000D01*
X127300000Y-71000000D02*
X127300000Y-67950000D01*
X128040000Y-67210000D02*
X129665000Y-67210000D01*
X129665000Y-67210000D02*
X129675000Y-67200000D01*
X123643500Y-72400000D02*
X125900000Y-72400000D01*
D51*
X141835786Y-79930000D02*
X143750000Y-79930000D01*
X141805786Y-79900000D02*
X141835786Y-79930000D01*
X131325000Y-79900000D02*
X141805786Y-79900000D01*
D44*
X123786000Y-76860000D02*
X125680000Y-78754000D01*
X129122500Y-87612500D02*
X130197500Y-86537500D01*
X122706000Y-76860000D02*
X123786000Y-76860000D01*
X125680000Y-80030000D02*
X130197500Y-84547500D01*
X125680000Y-78754000D02*
X125680000Y-80030000D01*
X122406000Y-76560000D02*
X122706000Y-76860000D01*
X130197500Y-86537500D02*
X130197500Y-84547500D01*
X122406000Y-76037500D02*
X122406000Y-76560000D01*
X125280000Y-78924000D02*
X123616000Y-77260000D01*
X122006000Y-76725686D02*
X122006000Y-76037500D01*
X129797500Y-85667500D02*
X129797500Y-84771459D01*
X123616000Y-77260000D02*
X122540315Y-77260000D01*
X129797500Y-84771459D02*
X125280000Y-80253959D01*
X125280000Y-80253959D02*
X125280000Y-78924000D01*
X122540315Y-77260000D02*
X122006000Y-76725686D01*
X129122500Y-86342500D02*
X129797500Y-85667500D01*
X124856000Y-79068628D02*
X124856000Y-84034000D01*
X122374630Y-77660000D02*
X123447372Y-77660000D01*
X124856000Y-84034000D02*
X123817500Y-85072500D01*
X121606000Y-76037500D02*
X121606000Y-76891370D01*
X123817500Y-85072500D02*
X123722500Y-85072500D01*
X121606000Y-76891370D02*
X122374630Y-77660000D01*
X123447372Y-77660000D02*
X124856000Y-79068628D01*
X123047500Y-84771459D02*
X123047500Y-85667500D01*
X123281686Y-78060000D02*
X124453157Y-79231471D01*
X121206000Y-77057056D02*
X122208944Y-78060000D01*
X124453157Y-83365802D02*
X123047500Y-84771459D01*
X123047500Y-85667500D02*
X123722500Y-86342500D01*
X124453157Y-79231471D02*
X124453157Y-83365802D01*
X122208944Y-78060000D02*
X123281686Y-78060000D01*
X121206000Y-76037500D02*
X121206000Y-77057056D01*
X123116000Y-78460000D02*
X123986000Y-79330000D01*
X120806000Y-76037500D02*
X120806000Y-77222742D01*
X123986000Y-79330000D02*
X123986000Y-83267273D01*
X123986000Y-83267273D02*
X122647500Y-84605774D01*
X122043258Y-78460000D02*
X123116000Y-78460000D01*
X122647500Y-86537500D02*
X123722500Y-87612500D01*
X122647500Y-84605774D02*
X122647500Y-86537500D01*
X120806000Y-77222742D02*
X122043258Y-78460000D01*
X123643500Y-74000000D02*
X126883834Y-74000000D01*
X126883834Y-74000000D02*
X127713834Y-74830000D01*
X127713834Y-74830000D02*
X129675000Y-74830000D01*
X116475000Y-63773529D02*
X116951000Y-63297529D01*
X119206000Y-68193629D02*
X118182372Y-67170000D01*
X119206000Y-69162500D02*
X119206000Y-68193629D01*
X117820000Y-67170000D02*
X116475000Y-65825000D01*
X116951000Y-63297529D02*
X116951000Y-58760000D01*
X118182372Y-67170000D02*
X117820000Y-67170000D01*
X116475000Y-65825000D02*
X116475000Y-63773529D01*
X116075000Y-66000000D02*
X117645000Y-67570000D01*
X117645000Y-67570000D02*
X118016686Y-67570000D01*
X116075000Y-63835000D02*
X116075000Y-66000000D01*
X114411000Y-58760000D02*
X114411000Y-62171000D01*
X118806000Y-68359315D02*
X118806000Y-69162500D01*
X118016686Y-67570000D02*
X118806000Y-68359315D01*
X114411000Y-62171000D02*
X116075000Y-63835000D01*
X122721000Y-58000000D02*
X122661000Y-57940000D01*
X123800000Y-58000000D02*
X122721000Y-58000000D01*
X123753500Y-60940000D02*
X123753500Y-60146500D01*
X123753500Y-60146500D02*
X123800000Y-60100000D01*
D43*
X121476000Y-64595000D02*
X121476000Y-62842500D01*
X121476000Y-62842500D02*
X121478500Y-62840000D01*
D49*
X103045000Y-81720000D02*
X103230000Y-81905000D01*
X103230000Y-81905000D02*
X103230000Y-84635000D01*
X103230000Y-84635000D02*
X103240000Y-84645000D01*
G04 #@! TA.AperFunction,Conductor*
G36*
X112022653Y-79840705D02*
G01*
X112067840Y-79888957D01*
X112623237Y-80937346D01*
X112637858Y-80999418D01*
X112620213Y-81060699D01*
X112574822Y-81105492D01*
X112513312Y-81122322D01*
X111957416Y-81128568D01*
X111893819Y-81112164D01*
X111847118Y-81065984D01*
X111830000Y-81002576D01*
X111830000Y-80692790D01*
X111830500Y-80690114D01*
X111830500Y-79947942D01*
X111847843Y-79884149D01*
X111895097Y-79837916D01*
X111959254Y-79821972D01*
X112022653Y-79840705D01*
G37*
G04 #@! TD.AperFunction*
G04 #@! TA.AperFunction,Conductor*
G36*
X111550838Y-79831414D02*
G01*
X111599303Y-79878031D01*
X111616889Y-79942936D01*
X111610684Y-81066145D01*
X111593817Y-81128428D01*
X111548330Y-81174194D01*
X111486151Y-81191440D01*
X110952472Y-81197645D01*
X110891102Y-81182503D01*
X110844809Y-81139463D01*
X110825243Y-81079357D01*
X110837326Y-81017317D01*
X111377215Y-79887893D01*
X111421351Y-79837168D01*
X111485298Y-79816364D01*
X111550838Y-79831414D01*
G37*
G04 #@! TD.AperFunction*
G04 #@! TA.AperFunction,Conductor*
G36*
X148300000Y-86350000D02*
G01*
X148250000Y-87325000D01*
X144803282Y-86134899D01*
X145524310Y-86134899D01*
X145544697Y-86150767D01*
X145742628Y-86257882D01*
X145955491Y-86330957D01*
X146177470Y-86368000D01*
X146402530Y-86368000D01*
X146624508Y-86330957D01*
X146837368Y-86257883D01*
X147035305Y-86150764D01*
X147055688Y-86134899D01*
X147055689Y-86134898D01*
X146290001Y-85369210D01*
X146290000Y-85369210D01*
X145524310Y-86134899D01*
X144803282Y-86134899D01*
X144302806Y-85962092D01*
X144416041Y-85891981D01*
X144566764Y-85754579D01*
X144689673Y-85591821D01*
X144768062Y-85434393D01*
X144807386Y-85388192D01*
X144863747Y-85365725D01*
X144924074Y-85372205D01*
X144974378Y-85406128D01*
X144994601Y-85443935D01*
X144996984Y-85442891D01*
X145091580Y-85658548D01*
X145166922Y-85773866D01*
X145930789Y-85010001D01*
X146649210Y-85010001D01*
X147413076Y-85773867D01*
X147413077Y-85773866D01*
X147488418Y-85658551D01*
X147578819Y-85452457D01*
X147634068Y-85234283D01*
X147652653Y-85010000D01*
X147634068Y-84785716D01*
X147578819Y-84567543D01*
X147488417Y-84361446D01*
X147413076Y-84246132D01*
X146649210Y-85010000D01*
X146649210Y-85010001D01*
X145930789Y-85010001D01*
X145930790Y-85010000D01*
X145166922Y-84246133D01*
X145091580Y-84361451D01*
X144996984Y-84577109D01*
X144994602Y-84576064D01*
X144974373Y-84613877D01*
X144924068Y-84647796D01*
X144863743Y-84654273D01*
X144807385Y-84631806D01*
X144768060Y-84585603D01*
X144689673Y-84428179D01*
X144566764Y-84265421D01*
X144416041Y-84128019D01*
X144416038Y-84128017D01*
X144416037Y-84128016D01*
X144242640Y-84020653D01*
X144052456Y-83946976D01*
X144052455Y-83946975D01*
X143851976Y-83909500D01*
X143648024Y-83909500D01*
X143514370Y-83934484D01*
X143447543Y-83946976D01*
X143257359Y-84020653D01*
X143083962Y-84128016D01*
X142933235Y-84265422D01*
X142810328Y-84428177D01*
X142719417Y-84610752D01*
X142663603Y-84806914D01*
X142644785Y-85009999D01*
X142663603Y-85213085D01*
X142713426Y-85388192D01*
X142719418Y-85409250D01*
X142723099Y-85416642D01*
X138287513Y-83885101D01*
X145524310Y-83885101D01*
X146289999Y-84650790D01*
X146290000Y-84650790D01*
X147055689Y-83885100D01*
X147055688Y-83885099D01*
X147035302Y-83869232D01*
X147001265Y-83850812D01*
X146952994Y-83804495D01*
X146935236Y-83739997D01*
X146952996Y-83675500D01*
X147001268Y-83629184D01*
X147035306Y-83610763D01*
X147055688Y-83594899D01*
X147055689Y-83594898D01*
X146290001Y-82829210D01*
X146290000Y-82829210D01*
X145524310Y-83594899D01*
X145544699Y-83610768D01*
X145578733Y-83629187D01*
X145627004Y-83675503D01*
X145644763Y-83740000D01*
X145627004Y-83804497D01*
X145578733Y-83850813D01*
X145544702Y-83869229D01*
X145524310Y-83885099D01*
X145524310Y-83885101D01*
X138287513Y-83885101D01*
X134189156Y-82470000D01*
X142644785Y-82470000D01*
X142663603Y-82673085D01*
X142713426Y-82848192D01*
X142719418Y-82869250D01*
X142810327Y-83051821D01*
X142933236Y-83214579D01*
X143083959Y-83351981D01*
X143083961Y-83351982D01*
X143083962Y-83351983D01*
X143257359Y-83459346D01*
X143257361Y-83459346D01*
X143257363Y-83459348D01*
X143447544Y-83533024D01*
X143648024Y-83570500D01*
X143851974Y-83570500D01*
X143851976Y-83570500D01*
X144052456Y-83533024D01*
X144242637Y-83459348D01*
X144416041Y-83351981D01*
X144566764Y-83214579D01*
X144689673Y-83051821D01*
X144768062Y-82894393D01*
X144807386Y-82848192D01*
X144863747Y-82825725D01*
X144924074Y-82832205D01*
X144974378Y-82866128D01*
X144994601Y-82903935D01*
X144996984Y-82902891D01*
X145091580Y-83118548D01*
X145166922Y-83233866D01*
X145930789Y-82470001D01*
X146649210Y-82470001D01*
X147413076Y-83233867D01*
X147413077Y-83233866D01*
X147488418Y-83118551D01*
X147578819Y-82912457D01*
X147634068Y-82694283D01*
X147652653Y-82470000D01*
X147634068Y-82245716D01*
X147578819Y-82027543D01*
X147488417Y-81821446D01*
X147413076Y-81706132D01*
X146649210Y-82470000D01*
X146649210Y-82470001D01*
X145930789Y-82470001D01*
X145930790Y-82470000D01*
X145166922Y-81706133D01*
X145091580Y-81821451D01*
X144996984Y-82037109D01*
X144994602Y-82036064D01*
X144974373Y-82073877D01*
X144924068Y-82107796D01*
X144863743Y-82114273D01*
X144807385Y-82091806D01*
X144768060Y-82045603D01*
X144689673Y-81888179D01*
X144566764Y-81725421D01*
X144416041Y-81588019D01*
X144416038Y-81588017D01*
X144416037Y-81588016D01*
X144242640Y-81480653D01*
X144052456Y-81406976D01*
X144052455Y-81406975D01*
X143851976Y-81369500D01*
X143648024Y-81369500D01*
X143514370Y-81394484D01*
X143447543Y-81406976D01*
X143257359Y-81480653D01*
X143083962Y-81588016D01*
X142933235Y-81725422D01*
X142810328Y-81888177D01*
X142719417Y-82070752D01*
X142663603Y-82266914D01*
X142644785Y-82470000D01*
X134189156Y-82470000D01*
X133600500Y-82266746D01*
X133600500Y-82109073D01*
X133606813Y-82069689D01*
X133625120Y-82034252D01*
X133677794Y-81962880D01*
X133722645Y-81834701D01*
X133722646Y-81834699D01*
X133725500Y-81804266D01*
X133725500Y-81345101D01*
X145524310Y-81345101D01*
X146289999Y-82110790D01*
X146290000Y-82110790D01*
X147055689Y-81345100D01*
X147055688Y-81345099D01*
X147035302Y-81329232D01*
X147001265Y-81310812D01*
X146952994Y-81264495D01*
X146935236Y-81199997D01*
X146952996Y-81135500D01*
X147001268Y-81089184D01*
X147035306Y-81070763D01*
X147055688Y-81054899D01*
X147055689Y-81054898D01*
X146290001Y-80289210D01*
X146290000Y-80289210D01*
X145524310Y-81054899D01*
X145544699Y-81070768D01*
X145578733Y-81089187D01*
X145627004Y-81135503D01*
X145644763Y-81200000D01*
X145627004Y-81264497D01*
X145578733Y-81310813D01*
X145544702Y-81329229D01*
X145524310Y-81345099D01*
X145524310Y-81345101D01*
X133725500Y-81345101D01*
X133725500Y-81295734D01*
X133722646Y-81265301D01*
X133677793Y-81137118D01*
X133677793Y-81137117D01*
X133597150Y-81027849D01*
X133487882Y-80947206D01*
X133359702Y-80902354D01*
X133356496Y-80902053D01*
X133355389Y-80901949D01*
X133295852Y-80880385D01*
X133254322Y-80832580D01*
X133241292Y-80770612D01*
X133260051Y-80710130D01*
X133305862Y-80666412D01*
X133367154Y-80650500D01*
X141600953Y-80650500D01*
X141626423Y-80653101D01*
X141671612Y-80662431D01*
X141675040Y-80663192D01*
X141748065Y-80680500D01*
X141749445Y-80680827D01*
X141768504Y-80682774D01*
X141769927Y-80682732D01*
X141769930Y-80682733D01*
X141844862Y-80680552D01*
X141848526Y-80680500D01*
X142890918Y-80680500D01*
X142936434Y-80689008D01*
X142975803Y-80713385D01*
X143083958Y-80811981D01*
X143257359Y-80919346D01*
X143257361Y-80919346D01*
X143257363Y-80919348D01*
X143447544Y-80993024D01*
X143648024Y-81030500D01*
X143851974Y-81030500D01*
X143851976Y-81030500D01*
X144052456Y-80993024D01*
X144242637Y-80919348D01*
X144416041Y-80811981D01*
X144566764Y-80674579D01*
X144689673Y-80511821D01*
X144768062Y-80354393D01*
X144807386Y-80308192D01*
X144863747Y-80285725D01*
X144924074Y-80292205D01*
X144974378Y-80326128D01*
X144994601Y-80363935D01*
X144996984Y-80362891D01*
X145091580Y-80578548D01*
X145166922Y-80693866D01*
X145930789Y-79930001D01*
X146649210Y-79930001D01*
X147413076Y-80693867D01*
X147413077Y-80693866D01*
X147488418Y-80578551D01*
X147578819Y-80372457D01*
X147634068Y-80154283D01*
X147652653Y-79930000D01*
X147634068Y-79705716D01*
X147578819Y-79487543D01*
X147488417Y-79281446D01*
X147413076Y-79166132D01*
X146649210Y-79930000D01*
X146649210Y-79930001D01*
X145930789Y-79930001D01*
X145930790Y-79930000D01*
X145166922Y-79166133D01*
X145091580Y-79281451D01*
X144996984Y-79497109D01*
X144994602Y-79496064D01*
X144974373Y-79533877D01*
X144924068Y-79567796D01*
X144863743Y-79574273D01*
X144807385Y-79551806D01*
X144768060Y-79505603D01*
X144689673Y-79348179D01*
X144566764Y-79185421D01*
X144416041Y-79048019D01*
X144416038Y-79048017D01*
X144416037Y-79048016D01*
X144242640Y-78940653D01*
X144052456Y-78866976D01*
X144052455Y-78866975D01*
X143851976Y-78829500D01*
X143648024Y-78829500D01*
X143514370Y-78854484D01*
X143447543Y-78866976D01*
X143257359Y-78940653D01*
X143083958Y-79048018D01*
X142975803Y-79146615D01*
X142936434Y-79170992D01*
X142890918Y-79179500D01*
X142040627Y-79179500D01*
X142015146Y-79176896D01*
X141970013Y-79167576D01*
X141966438Y-79166784D01*
X141892122Y-79149171D01*
X141873066Y-79147224D01*
X141796690Y-79149447D01*
X141793026Y-79149500D01*
X131281291Y-79149500D01*
X131150745Y-79164759D01*
X131144856Y-79166902D01*
X131101765Y-79174500D01*
X131070734Y-79174500D01*
X131055517Y-79175927D01*
X131040298Y-79177354D01*
X130912117Y-79222206D01*
X130802849Y-79302849D01*
X130722206Y-79412117D01*
X130698618Y-79479530D01*
X130688809Y-79500914D01*
X130631188Y-79600718D01*
X130593406Y-79726917D01*
X130580870Y-79768790D01*
X130577286Y-79830318D01*
X130557438Y-79891205D01*
X130539743Y-79907419D01*
X130550336Y-79915547D01*
X130575585Y-79971815D01*
X130579444Y-79993697D01*
X130601135Y-80116712D01*
X130611469Y-80140669D01*
X130670623Y-80277804D01*
X130676520Y-80285725D01*
X130683776Y-80295472D01*
X130701636Y-80329096D01*
X130722207Y-80387883D01*
X130802849Y-80497150D01*
X130912117Y-80577793D01*
X131040298Y-80622645D01*
X131040301Y-80622646D01*
X131070734Y-80625500D01*
X131117068Y-80625500D01*
X131146125Y-80628896D01*
X131182855Y-80637601D01*
X131237279Y-80650500D01*
X132632846Y-80650500D01*
X132694138Y-80666412D01*
X132739949Y-80710130D01*
X132758708Y-80770612D01*
X132745678Y-80832580D01*
X132704148Y-80880385D01*
X132644610Y-80901949D01*
X132643723Y-80902033D01*
X132640297Y-80902354D01*
X132512117Y-80947206D01*
X132402849Y-81027849D01*
X132322206Y-81137117D01*
X132277354Y-81265298D01*
X132277354Y-81265301D01*
X132274500Y-81295734D01*
X132274500Y-81804266D01*
X132274949Y-81809053D01*
X127433862Y-80137498D01*
X127436562Y-79235477D01*
X127439581Y-79238256D01*
X127439582Y-79238258D01*
X127475361Y-79271195D01*
X127479118Y-79274800D01*
X127899892Y-79695574D01*
X128317213Y-80112894D01*
X128333599Y-80133072D01*
X128338561Y-80140667D01*
X128338562Y-80140668D01*
X128338563Y-80140669D01*
X128361377Y-80158425D01*
X128372427Y-80168185D01*
X128388311Y-80179526D01*
X128392486Y-80182639D01*
X128436771Y-80217107D01*
X128443932Y-80219239D01*
X128443934Y-80219240D01*
X128490564Y-80233122D01*
X128495480Y-80234697D01*
X128541512Y-80250500D01*
X128541515Y-80250500D01*
X128548579Y-80252925D01*
X128556043Y-80252616D01*
X128556046Y-80252617D01*
X128604619Y-80250608D01*
X128609827Y-80250500D01*
X128934733Y-80250500D01*
X128985119Y-80261013D01*
X129027098Y-80290798D01*
X129053662Y-80334885D01*
X129072206Y-80387882D01*
X129152849Y-80497150D01*
X129262117Y-80577793D01*
X129390298Y-80622645D01*
X129390301Y-80622646D01*
X129420734Y-80625500D01*
X129929263Y-80625500D01*
X129929266Y-80625500D01*
X129959699Y-80622646D01*
X130087882Y-80577793D01*
X130197150Y-80497150D01*
X130277793Y-80387882D01*
X130322646Y-80259699D01*
X130325500Y-80229266D01*
X130325500Y-79993697D01*
X130340595Y-79933897D01*
X130364256Y-79908075D01*
X130341775Y-79884930D01*
X130325500Y-79822991D01*
X130325500Y-79570737D01*
X130323829Y-79552917D01*
X130322646Y-79540301D01*
X130317073Y-79524374D01*
X130277793Y-79412117D01*
X130197150Y-79302849D01*
X130087882Y-79222206D01*
X129959701Y-79177354D01*
X129947525Y-79176212D01*
X129929266Y-79174500D01*
X129420734Y-79174500D01*
X129405517Y-79175927D01*
X129390298Y-79177354D01*
X129262117Y-79222206D01*
X129152849Y-79302849D01*
X129072206Y-79412117D01*
X129053662Y-79465115D01*
X129027098Y-79509202D01*
X128985119Y-79538987D01*
X128934733Y-79549500D01*
X128797372Y-79549500D01*
X128749154Y-79539909D01*
X128708277Y-79512595D01*
X128107405Y-78911723D01*
X128080091Y-78870846D01*
X128070500Y-78822628D01*
X128070500Y-78805101D01*
X145524310Y-78805101D01*
X146289999Y-79570790D01*
X146290000Y-79570790D01*
X147055689Y-78805100D01*
X147055688Y-78805099D01*
X147035302Y-78789232D01*
X147001265Y-78770812D01*
X146952994Y-78724495D01*
X146935236Y-78659997D01*
X146952996Y-78595500D01*
X147001268Y-78549184D01*
X147035306Y-78530763D01*
X147055688Y-78514899D01*
X147055689Y-78514898D01*
X146290001Y-77749210D01*
X146290000Y-77749210D01*
X145524310Y-78514899D01*
X145544699Y-78530768D01*
X145578733Y-78549187D01*
X145627004Y-78595503D01*
X145644763Y-78660000D01*
X145627004Y-78724497D01*
X145578733Y-78770813D01*
X145544702Y-78789229D01*
X145524310Y-78805099D01*
X145524310Y-78805101D01*
X128070500Y-78805101D01*
X128070500Y-77450372D01*
X128084233Y-77393169D01*
X128122439Y-77348436D01*
X128176789Y-77325923D01*
X128235436Y-77330539D01*
X128285595Y-77361277D01*
X128507212Y-77582894D01*
X128523599Y-77603073D01*
X128528560Y-77610666D01*
X128528562Y-77610667D01*
X128528563Y-77610669D01*
X128551375Y-77628424D01*
X128562431Y-77638188D01*
X128562693Y-77638375D01*
X128578338Y-77649545D01*
X128582464Y-77652621D01*
X128620874Y-77682517D01*
X128620875Y-77682517D01*
X128626772Y-77687107D01*
X128633932Y-77689238D01*
X128633934Y-77689240D01*
X128680564Y-77703122D01*
X128685480Y-77704697D01*
X128731512Y-77720500D01*
X128731515Y-77720500D01*
X128738579Y-77722925D01*
X128746043Y-77722616D01*
X128746046Y-77722617D01*
X128794619Y-77720608D01*
X128799827Y-77720500D01*
X128934733Y-77720500D01*
X128985119Y-77731013D01*
X129027098Y-77760798D01*
X129053662Y-77804885D01*
X129072206Y-77857882D01*
X129152849Y-77967150D01*
X129262117Y-78047793D01*
X129390298Y-78092645D01*
X129390301Y-78092646D01*
X129420734Y-78095500D01*
X129929263Y-78095500D01*
X129929266Y-78095500D01*
X129959699Y-78092646D01*
X130087882Y-78047793D01*
X130197150Y-77967150D01*
X130277793Y-77857882D01*
X130322646Y-77729699D01*
X130325500Y-77699266D01*
X130325500Y-77442557D01*
X130341476Y-77381151D01*
X130357053Y-77364878D01*
X130547867Y-77364878D01*
X130555754Y-77371795D01*
X130577020Y-77431574D01*
X130578665Y-77450372D01*
X130585001Y-77522800D01*
X130640185Y-77689333D01*
X130686268Y-77764046D01*
X130697956Y-77788577D01*
X130722206Y-77857883D01*
X130802849Y-77967150D01*
X130912117Y-78047793D01*
X131040297Y-78092645D01*
X131040298Y-78092645D01*
X131040301Y-78092646D01*
X131043294Y-78092926D01*
X131088081Y-78105778D01*
X131096567Y-78110040D01*
X131096570Y-78110040D01*
X131097845Y-78110681D01*
X131115933Y-78116968D01*
X131117326Y-78117255D01*
X131117327Y-78117256D01*
X131190776Y-78132421D01*
X131194255Y-78133192D01*
X131267279Y-78150500D01*
X131268659Y-78150827D01*
X131287718Y-78152774D01*
X131289141Y-78152732D01*
X131289144Y-78152733D01*
X131364076Y-78150552D01*
X131367740Y-78150500D01*
X142901888Y-78150500D01*
X142947404Y-78159008D01*
X142986774Y-78183385D01*
X143083959Y-78271981D01*
X143083961Y-78271982D01*
X143083962Y-78271983D01*
X143257359Y-78379346D01*
X143257361Y-78379346D01*
X143257363Y-78379348D01*
X143447544Y-78453024D01*
X143648024Y-78490500D01*
X143851974Y-78490500D01*
X143851976Y-78490500D01*
X144052456Y-78453024D01*
X144242637Y-78379348D01*
X144416041Y-78271981D01*
X144566764Y-78134579D01*
X144689673Y-77971821D01*
X144768062Y-77814393D01*
X144807386Y-77768192D01*
X144863747Y-77745725D01*
X144924074Y-77752205D01*
X144974378Y-77786128D01*
X144994601Y-77823935D01*
X144996984Y-77822891D01*
X145091580Y-78038548D01*
X145166922Y-78153866D01*
X145930789Y-77390001D01*
X146649210Y-77390001D01*
X147413076Y-78153867D01*
X147413077Y-78153866D01*
X147488418Y-78038551D01*
X147578819Y-77832457D01*
X147634068Y-77614283D01*
X147652653Y-77389999D01*
X147634068Y-77165716D01*
X147578819Y-76947543D01*
X147488417Y-76741446D01*
X147413076Y-76626132D01*
X146649210Y-77390000D01*
X146649210Y-77390001D01*
X145930789Y-77390001D01*
X145930790Y-77390000D01*
X145166922Y-76626133D01*
X145091580Y-76741451D01*
X144996984Y-76957109D01*
X144994602Y-76956064D01*
X144974373Y-76993877D01*
X144924068Y-77027796D01*
X144863743Y-77034273D01*
X144807385Y-77011806D01*
X144768060Y-76965603D01*
X144766605Y-76962680D01*
X144689673Y-76808179D01*
X144566764Y-76645421D01*
X144416041Y-76508019D01*
X144416038Y-76508017D01*
X144416037Y-76508016D01*
X144242640Y-76400653D01*
X144052456Y-76326976D01*
X144052455Y-76326975D01*
X143851976Y-76289500D01*
X143648024Y-76289500D01*
X143514370Y-76314484D01*
X143447543Y-76326976D01*
X143257359Y-76400653D01*
X143083962Y-76508016D01*
X142964835Y-76616615D01*
X142925465Y-76640992D01*
X142879949Y-76649500D01*
X131637241Y-76649500D01*
X131625150Y-76647443D01*
X131625024Y-76648791D01*
X131607468Y-76647144D01*
X131579266Y-76644500D01*
X131579263Y-76644500D01*
X131535624Y-76644500D01*
X131510145Y-76641897D01*
X131470124Y-76633633D01*
X131390857Y-76617266D01*
X131390856Y-76617266D01*
X131303171Y-76619817D01*
X131215487Y-76622369D01*
X131148916Y-76640207D01*
X131116305Y-76644500D01*
X131070734Y-76644500D01*
X131055517Y-76645926D01*
X131040298Y-76647354D01*
X130912117Y-76692206D01*
X130802851Y-76772847D01*
X130722206Y-76882120D01*
X130699757Y-76946272D01*
X130684044Y-76976922D01*
X130659912Y-77011387D01*
X130648253Y-77040734D01*
X130595138Y-77174433D01*
X130578845Y-77285669D01*
X130576170Y-77303930D01*
X130552202Y-77361400D01*
X130547867Y-77364878D01*
X130357053Y-77364878D01*
X130357753Y-77364147D01*
X130340886Y-77346006D01*
X130325500Y-77285669D01*
X130325500Y-77040737D01*
X130324567Y-77030790D01*
X130322646Y-77010301D01*
X130322645Y-77010298D01*
X130277793Y-76882117D01*
X130197150Y-76772849D01*
X130087882Y-76692206D01*
X129959701Y-76647354D01*
X129947525Y-76646212D01*
X129929266Y-76644500D01*
X129420734Y-76644500D01*
X129405517Y-76645926D01*
X129390298Y-76647354D01*
X129262117Y-76692206D01*
X129152849Y-76772849D01*
X129072205Y-76882118D01*
X129067305Y-76896123D01*
X129032335Y-76948458D01*
X128976413Y-76977346D01*
X128913495Y-76975580D01*
X128859282Y-76943600D01*
X128507405Y-76591723D01*
X128480091Y-76550846D01*
X128470500Y-76502628D01*
X128470500Y-76265101D01*
X145524310Y-76265101D01*
X146289999Y-77030790D01*
X146290000Y-77030790D01*
X147055689Y-76265100D01*
X147055688Y-76265099D01*
X147035302Y-76249232D01*
X147001265Y-76230812D01*
X146952994Y-76184495D01*
X146935236Y-76119997D01*
X146952996Y-76055500D01*
X147001268Y-76009184D01*
X147035306Y-75990763D01*
X147055688Y-75974899D01*
X147055689Y-75974898D01*
X146290001Y-75209210D01*
X146290000Y-75209210D01*
X145524310Y-75974899D01*
X145544699Y-75990768D01*
X145578733Y-76009187D01*
X145627004Y-76055503D01*
X145644763Y-76120000D01*
X145627004Y-76184497D01*
X145578733Y-76230813D01*
X145544702Y-76249229D01*
X145524310Y-76265099D01*
X145524310Y-76265101D01*
X128470500Y-76265101D01*
X128470500Y-75851265D01*
X128473182Y-75825407D01*
X128475042Y-75816536D01*
X128471468Y-75787865D01*
X128470552Y-75773130D01*
X128470500Y-75772818D01*
X128470500Y-75772812D01*
X128467336Y-75753859D01*
X128466589Y-75748728D01*
X128459648Y-75693041D01*
X128432947Y-75643704D01*
X128430571Y-75639090D01*
X128409198Y-75595368D01*
X128409197Y-75595367D01*
X128405916Y-75588655D01*
X128364624Y-75550643D01*
X128360867Y-75547037D01*
X128209425Y-75395595D01*
X128178687Y-75345436D01*
X128174071Y-75286789D01*
X128196584Y-75232439D01*
X128241317Y-75194233D01*
X128298520Y-75180500D01*
X128934733Y-75180500D01*
X128985119Y-75191013D01*
X129027098Y-75220798D01*
X129053662Y-75264885D01*
X129072206Y-75317882D01*
X129152849Y-75427150D01*
X129262117Y-75507793D01*
X129374271Y-75547037D01*
X129390301Y-75552646D01*
X129420734Y-75555500D01*
X129929263Y-75555500D01*
X129929266Y-75555500D01*
X129959699Y-75552646D01*
X130087882Y-75507793D01*
X130197150Y-75427150D01*
X130277793Y-75317882D01*
X130322646Y-75189699D01*
X130325500Y-75159266D01*
X130325500Y-74923697D01*
X130340595Y-74863897D01*
X130364256Y-74838075D01*
X130363619Y-74837419D01*
X130539743Y-74837419D01*
X130550336Y-74845547D01*
X130575585Y-74901815D01*
X130579444Y-74923697D01*
X130601135Y-75046712D01*
X130613028Y-75074283D01*
X130670623Y-75207804D01*
X130680297Y-75220798D01*
X130683776Y-75225472D01*
X130701636Y-75259096D01*
X130722207Y-75317883D01*
X130802849Y-75427150D01*
X130912117Y-75507793D01*
X131024271Y-75547037D01*
X131040301Y-75552646D01*
X131070734Y-75555500D01*
X131117068Y-75555500D01*
X131146125Y-75558896D01*
X131182855Y-75567601D01*
X131237279Y-75580500D01*
X142868980Y-75580500D01*
X142914496Y-75589009D01*
X142953863Y-75613383D01*
X143083959Y-75731981D01*
X143083961Y-75731982D01*
X143083962Y-75731983D01*
X143257359Y-75839346D01*
X143257361Y-75839346D01*
X143257363Y-75839348D01*
X143447544Y-75913024D01*
X143648024Y-75950500D01*
X143851974Y-75950500D01*
X143851976Y-75950500D01*
X144052456Y-75913024D01*
X144242637Y-75839348D01*
X144416041Y-75731981D01*
X144566764Y-75594579D01*
X144689673Y-75431821D01*
X144768062Y-75274393D01*
X144807386Y-75228192D01*
X144863747Y-75205725D01*
X144924074Y-75212205D01*
X144974378Y-75246128D01*
X144994601Y-75283935D01*
X144996984Y-75282891D01*
X145091580Y-75498548D01*
X145166922Y-75613866D01*
X145930789Y-74850001D01*
X146649210Y-74850001D01*
X147413076Y-75613867D01*
X147413077Y-75613866D01*
X147488418Y-75498551D01*
X147578819Y-75292457D01*
X147634068Y-75074283D01*
X147652653Y-74849999D01*
X147634068Y-74625716D01*
X147578819Y-74407543D01*
X147488417Y-74201446D01*
X147413076Y-74086132D01*
X146649210Y-74850000D01*
X146649210Y-74850001D01*
X145930789Y-74850001D01*
X145930790Y-74850000D01*
X145166922Y-74086133D01*
X145091580Y-74201451D01*
X144996984Y-74417109D01*
X144994602Y-74416064D01*
X144974373Y-74453877D01*
X144924068Y-74487796D01*
X144863743Y-74494273D01*
X144807385Y-74471806D01*
X144768060Y-74425603D01*
X144689673Y-74268179D01*
X144566764Y-74105421D01*
X144416041Y-73968019D01*
X144416038Y-73968017D01*
X144416037Y-73968016D01*
X144242640Y-73860653D01*
X144052456Y-73786976D01*
X144052455Y-73786975D01*
X143851976Y-73749500D01*
X143648024Y-73749500D01*
X143514370Y-73774484D01*
X143447543Y-73786976D01*
X143257359Y-73860653D01*
X143083958Y-73968018D01*
X142997742Y-74046615D01*
X142958373Y-74070992D01*
X142912857Y-74079500D01*
X134109000Y-74079500D01*
X134046000Y-74062619D01*
X133999881Y-74016500D01*
X133983182Y-73954181D01*
X133983001Y-73954000D01*
X132017000Y-73954000D01*
X132016818Y-73954181D01*
X132000120Y-74016500D01*
X131954001Y-74062619D01*
X131891001Y-74079500D01*
X131281291Y-74079500D01*
X131150745Y-74094759D01*
X131144856Y-74096902D01*
X131101765Y-74104500D01*
X131070734Y-74104500D01*
X131055517Y-74105926D01*
X131040298Y-74107354D01*
X130912117Y-74152206D01*
X130802849Y-74232849D01*
X130722206Y-74342117D01*
X130698618Y-74409530D01*
X130688809Y-74430914D01*
X130631188Y-74530718D01*
X130631188Y-74530719D01*
X130580870Y-74698790D01*
X130577286Y-74760318D01*
X130557438Y-74821205D01*
X130539743Y-74837419D01*
X130363619Y-74837419D01*
X130341775Y-74814930D01*
X130325500Y-74752991D01*
X130325500Y-74500737D01*
X130325500Y-74500734D01*
X130322646Y-74470301D01*
X130305285Y-74420685D01*
X130277793Y-74342117D01*
X130197150Y-74232849D01*
X130087882Y-74152206D01*
X129959701Y-74107354D01*
X129947525Y-74106212D01*
X129929266Y-74104500D01*
X129420734Y-74104500D01*
X129405517Y-74105926D01*
X129390298Y-74107354D01*
X129262117Y-74152206D01*
X129152849Y-74232849D01*
X129072206Y-74342117D01*
X129053662Y-74395115D01*
X129027098Y-74439202D01*
X128985119Y-74468987D01*
X128934733Y-74479500D01*
X127911206Y-74479500D01*
X127862988Y-74469909D01*
X127822111Y-74442595D01*
X127452020Y-74072504D01*
X127453060Y-73725101D01*
X145524310Y-73725101D01*
X146289999Y-74490790D01*
X146290000Y-74490790D01*
X147055689Y-73725100D01*
X147055688Y-73725099D01*
X147035302Y-73709232D01*
X147001265Y-73690812D01*
X146952994Y-73644495D01*
X146935236Y-73579997D01*
X146952996Y-73515500D01*
X147001268Y-73469184D01*
X147035306Y-73450763D01*
X147055688Y-73434899D01*
X147055689Y-73434898D01*
X146290001Y-72669210D01*
X146290000Y-72669210D01*
X145524310Y-73434899D01*
X145544699Y-73450768D01*
X145578733Y-73469187D01*
X145627004Y-73515503D01*
X145644763Y-73580000D01*
X145627004Y-73644497D01*
X145578733Y-73690813D01*
X145544702Y-73709229D01*
X145524310Y-73725099D01*
X145524310Y-73725101D01*
X127453060Y-73725101D01*
X127454959Y-73090721D01*
X127868277Y-72677404D01*
X127909155Y-72650091D01*
X127957373Y-72640500D01*
X128934733Y-72640500D01*
X128985119Y-72651013D01*
X129027098Y-72680798D01*
X129053662Y-72724885D01*
X129072206Y-72777882D01*
X129152849Y-72887150D01*
X129262117Y-72967793D01*
X129370290Y-73005644D01*
X129390301Y-73012646D01*
X129420734Y-73015500D01*
X129929263Y-73015500D01*
X129929266Y-73015500D01*
X129959699Y-73012646D01*
X130087882Y-72967793D01*
X130197150Y-72887150D01*
X130277793Y-72777882D01*
X130322646Y-72649699D01*
X130325500Y-72619266D01*
X130325500Y-72362557D01*
X130341476Y-72301151D01*
X130357053Y-72284878D01*
X130547867Y-72284878D01*
X130555754Y-72291795D01*
X130577020Y-72351574D01*
X130581910Y-72407470D01*
X130585001Y-72442800D01*
X130640185Y-72609333D01*
X130686268Y-72684046D01*
X130697956Y-72708577D01*
X130722206Y-72777883D01*
X130802849Y-72887150D01*
X130912117Y-72967793D01*
X131040297Y-73012645D01*
X131040298Y-73012645D01*
X131040301Y-73012646D01*
X131043294Y-73012926D01*
X131088081Y-73025778D01*
X131096567Y-73030040D01*
X131096570Y-73030040D01*
X131097845Y-73030681D01*
X131115933Y-73036968D01*
X131117326Y-73037255D01*
X131117327Y-73037256D01*
X131190776Y-73052421D01*
X131194255Y-73053192D01*
X131267279Y-73070500D01*
X131268659Y-73070827D01*
X131287718Y-73072774D01*
X131289141Y-73072732D01*
X131289144Y-73072733D01*
X131364076Y-73070552D01*
X131367740Y-73070500D01*
X131946021Y-73070500D01*
X132002885Y-73084061D01*
X132047508Y-73121825D01*
X132070286Y-73175663D01*
X132066316Y-73233986D01*
X132023481Y-73371444D01*
X132017000Y-73442774D01*
X132017000Y-73446000D01*
X133982999Y-73446000D01*
X133982999Y-73442775D01*
X133976518Y-73371443D01*
X133933684Y-73233986D01*
X133929714Y-73175663D01*
X133952492Y-73121825D01*
X133997115Y-73084061D01*
X134053979Y-73070500D01*
X142901888Y-73070500D01*
X142947404Y-73079008D01*
X142986774Y-73103385D01*
X143083959Y-73191981D01*
X143083961Y-73191982D01*
X143083962Y-73191983D01*
X143257359Y-73299346D01*
X143257361Y-73299346D01*
X143257363Y-73299348D01*
X143447544Y-73373024D01*
X143648024Y-73410500D01*
X143851974Y-73410500D01*
X143851976Y-73410500D01*
X144052456Y-73373024D01*
X144242637Y-73299348D01*
X144416041Y-73191981D01*
X144566764Y-73054579D01*
X144689673Y-72891821D01*
X144768062Y-72734393D01*
X144807386Y-72688192D01*
X144863747Y-72665725D01*
X144924074Y-72672205D01*
X144974378Y-72706128D01*
X144994601Y-72743935D01*
X144996984Y-72742891D01*
X145091580Y-72958548D01*
X145166922Y-73073866D01*
X145930789Y-72310001D01*
X146649210Y-72310001D01*
X147413076Y-73073867D01*
X147413077Y-73073866D01*
X147488418Y-72958551D01*
X147578819Y-72752457D01*
X147634068Y-72534283D01*
X147652653Y-72310000D01*
X147634068Y-72085716D01*
X147578819Y-71867543D01*
X147488417Y-71661446D01*
X147413076Y-71546132D01*
X146649210Y-72310000D01*
X146649210Y-72310001D01*
X145930789Y-72310001D01*
X145930790Y-72310000D01*
X145166922Y-71546133D01*
X145091580Y-71661451D01*
X144996984Y-71877109D01*
X144994602Y-71876064D01*
X144974373Y-71913877D01*
X144924068Y-71947796D01*
X144863743Y-71954273D01*
X144807385Y-71931806D01*
X144768060Y-71885603D01*
X144766605Y-71882680D01*
X144689673Y-71728179D01*
X144566764Y-71565421D01*
X144416041Y-71428019D01*
X144416038Y-71428017D01*
X144416037Y-71428016D01*
X144242640Y-71320653D01*
X144052456Y-71246976D01*
X144052455Y-71246975D01*
X143851976Y-71209500D01*
X143648024Y-71209500D01*
X143514370Y-71234483D01*
X143447543Y-71246976D01*
X143257359Y-71320653D01*
X143083962Y-71428016D01*
X143083958Y-71428019D01*
X143083959Y-71428019D01*
X142974450Y-71527850D01*
X142964835Y-71536615D01*
X142925465Y-71560992D01*
X142879949Y-71569500D01*
X133691497Y-71569500D01*
X133634713Y-71555979D01*
X133613323Y-71537917D01*
X133612431Y-71539127D01*
X133487882Y-71447206D01*
X133359701Y-71402354D01*
X133347525Y-71401212D01*
X133329266Y-71399500D01*
X132670734Y-71399500D01*
X132655517Y-71400926D01*
X132640298Y-71402354D01*
X132512117Y-71447206D01*
X132387569Y-71539127D01*
X132386676Y-71537917D01*
X132365287Y-71555979D01*
X132308503Y-71569500D01*
X131637241Y-71569500D01*
X131625150Y-71567443D01*
X131625024Y-71568791D01*
X131607468Y-71567144D01*
X131579266Y-71564500D01*
X131579263Y-71564500D01*
X131535624Y-71564500D01*
X131510145Y-71561897D01*
X131470124Y-71553633D01*
X131390857Y-71537266D01*
X131390856Y-71537266D01*
X131303172Y-71539817D01*
X131215487Y-71542369D01*
X131148916Y-71560207D01*
X131116305Y-71564500D01*
X131070734Y-71564500D01*
X131055517Y-71565927D01*
X131040298Y-71567354D01*
X130912117Y-71612206D01*
X130802851Y-71692847D01*
X130722206Y-71802120D01*
X130699757Y-71866272D01*
X130684044Y-71896922D01*
X130659912Y-71931387D01*
X130613872Y-72047275D01*
X130595138Y-72094433D01*
X130578845Y-72205669D01*
X130576170Y-72223930D01*
X130552202Y-72281400D01*
X130547867Y-72284878D01*
X130357053Y-72284878D01*
X130357753Y-72284147D01*
X130340886Y-72266006D01*
X130325500Y-72205669D01*
X130325500Y-71960737D01*
X130324894Y-71954273D01*
X130322646Y-71930301D01*
X130322186Y-71928987D01*
X130277793Y-71802117D01*
X130197150Y-71692849D01*
X130087882Y-71612206D01*
X129959701Y-71567354D01*
X129947525Y-71566212D01*
X129929266Y-71564500D01*
X129420734Y-71564500D01*
X129405517Y-71565927D01*
X129390298Y-71567354D01*
X129262117Y-71612206D01*
X129152849Y-71692849D01*
X129072206Y-71802117D01*
X129053662Y-71855115D01*
X129027098Y-71899202D01*
X128985119Y-71928987D01*
X128934733Y-71939500D01*
X127809413Y-71939500D01*
X127783556Y-71936818D01*
X127781950Y-71936481D01*
X127774684Y-71934957D01*
X127746013Y-71938532D01*
X127730427Y-71939500D01*
X127726056Y-71939500D01*
X127668853Y-71925767D01*
X127624120Y-71887561D01*
X127601607Y-71833211D01*
X127606223Y-71774564D01*
X127636957Y-71724408D01*
X127912903Y-71448462D01*
X127933070Y-71432086D01*
X127940669Y-71427122D01*
X127958423Y-71404310D01*
X127968189Y-71393252D01*
X127968373Y-71392993D01*
X127968376Y-71392991D01*
X127979538Y-71377357D01*
X127982641Y-71373194D01*
X128012517Y-71334811D01*
X128012517Y-71334809D01*
X128017107Y-71328913D01*
X128019238Y-71321753D01*
X128019240Y-71321751D01*
X128033134Y-71275079D01*
X128034682Y-71270243D01*
X128050500Y-71224173D01*
X128050500Y-71224170D01*
X128052926Y-71217104D01*
X128051602Y-71185101D01*
X145524310Y-71185101D01*
X146289999Y-71950790D01*
X146290000Y-71950790D01*
X147055689Y-71185100D01*
X147055688Y-71185099D01*
X147035302Y-71169232D01*
X147001265Y-71150812D01*
X146952994Y-71104495D01*
X146935236Y-71039997D01*
X146952996Y-70975500D01*
X147001268Y-70929184D01*
X147035306Y-70910763D01*
X147055688Y-70894899D01*
X147055689Y-70894898D01*
X146290001Y-70129210D01*
X146290000Y-70129210D01*
X145524310Y-70894899D01*
X145544699Y-70910768D01*
X145578733Y-70929187D01*
X145627004Y-70975503D01*
X145644763Y-71040000D01*
X145627004Y-71104497D01*
X145578733Y-71150813D01*
X145544702Y-71169229D01*
X145524310Y-71185099D01*
X145524310Y-71185101D01*
X128051602Y-71185101D01*
X128050608Y-71161054D01*
X128050500Y-71155848D01*
X128050500Y-70697372D01*
X128060091Y-70649154D01*
X128087405Y-70608277D01*
X128568277Y-70127405D01*
X128609154Y-70100091D01*
X128657372Y-70090500D01*
X128934733Y-70090500D01*
X128985119Y-70101013D01*
X129027098Y-70130798D01*
X129053662Y-70174885D01*
X129072206Y-70227882D01*
X129152849Y-70337150D01*
X129262117Y-70417793D01*
X129390298Y-70462645D01*
X129390301Y-70462646D01*
X129420734Y-70465500D01*
X129929263Y-70465500D01*
X129929266Y-70465500D01*
X129959699Y-70462646D01*
X130087882Y-70417793D01*
X130197150Y-70337150D01*
X130277793Y-70227882D01*
X130322646Y-70099699D01*
X130325500Y-70069266D01*
X130325500Y-69833697D01*
X130340595Y-69773897D01*
X130364256Y-69748075D01*
X130363619Y-69747419D01*
X130539743Y-69747419D01*
X130550336Y-69755547D01*
X130575585Y-69811815D01*
X130601135Y-69956711D01*
X130670623Y-70117804D01*
X130676520Y-70125725D01*
X130683776Y-70135472D01*
X130701636Y-70169096D01*
X130722207Y-70227883D01*
X130802849Y-70337150D01*
X130912117Y-70417793D01*
X131040298Y-70462645D01*
X131040301Y-70462646D01*
X131070734Y-70465500D01*
X131117068Y-70465500D01*
X131146125Y-70468896D01*
X131182855Y-70477601D01*
X131237279Y-70490500D01*
X142858009Y-70490500D01*
X142903525Y-70499008D01*
X142942894Y-70523385D01*
X143083958Y-70651981D01*
X143257359Y-70759346D01*
X143257361Y-70759346D01*
X143257363Y-70759348D01*
X143447544Y-70833024D01*
X143648024Y-70870500D01*
X143851974Y-70870500D01*
X143851976Y-70870500D01*
X144052456Y-70833024D01*
X144242637Y-70759348D01*
X144416041Y-70651981D01*
X144566764Y-70514579D01*
X144689673Y-70351821D01*
X144768062Y-70194393D01*
X144807386Y-70148192D01*
X144863747Y-70125725D01*
X144924074Y-70132205D01*
X144974378Y-70166128D01*
X144994601Y-70203935D01*
X144996984Y-70202891D01*
X145091580Y-70418548D01*
X145166922Y-70533866D01*
X145930789Y-69770001D01*
X146649210Y-69770001D01*
X147413076Y-70533867D01*
X147413077Y-70533866D01*
X147488418Y-70418551D01*
X147578819Y-70212457D01*
X147634068Y-69994283D01*
X147652653Y-69769999D01*
X147634068Y-69545716D01*
X147578819Y-69327543D01*
X147488417Y-69121446D01*
X147413076Y-69006132D01*
X146649210Y-69770000D01*
X146649210Y-69770001D01*
X145930789Y-69770001D01*
X145930790Y-69770000D01*
X145166922Y-69006133D01*
X145091580Y-69121451D01*
X144996984Y-69337109D01*
X144994602Y-69336064D01*
X144974373Y-69373877D01*
X144924068Y-69407796D01*
X144863743Y-69414273D01*
X144807385Y-69391806D01*
X144768060Y-69345603D01*
X144689673Y-69188179D01*
X144566764Y-69025421D01*
X144416041Y-68888019D01*
X144416038Y-68888017D01*
X144416037Y-68888016D01*
X144242640Y-68780653D01*
X144052456Y-68706976D01*
X143851976Y-68669500D01*
X143648024Y-68669500D01*
X143514370Y-68694484D01*
X143447543Y-68706976D01*
X143257359Y-68780653D01*
X143083962Y-68888016D01*
X143008713Y-68956615D01*
X142969343Y-68980992D01*
X142923827Y-68989500D01*
X131281291Y-68989500D01*
X131150745Y-69004759D01*
X131144856Y-69006902D01*
X131101765Y-69014500D01*
X131070734Y-69014500D01*
X131055517Y-69015926D01*
X131040298Y-69017354D01*
X130912117Y-69062206D01*
X130802849Y-69142849D01*
X130722206Y-69252117D01*
X130698618Y-69319530D01*
X130688809Y-69340914D01*
X130631188Y-69440718D01*
X130614256Y-69497275D01*
X130580870Y-69608790D01*
X130577286Y-69670318D01*
X130557438Y-69731205D01*
X130539743Y-69747419D01*
X130363619Y-69747419D01*
X130341775Y-69724930D01*
X130325500Y-69662991D01*
X130325500Y-69410737D01*
X130325224Y-69407796D01*
X130322646Y-69380301D01*
X130304185Y-69327543D01*
X130277793Y-69252117D01*
X130197150Y-69142849D01*
X130087882Y-69062206D01*
X129959701Y-69017354D01*
X129947525Y-69016212D01*
X129929266Y-69014500D01*
X129420734Y-69014500D01*
X129405517Y-69015926D01*
X129390298Y-69017354D01*
X129262117Y-69062206D01*
X129152849Y-69142849D01*
X129072206Y-69252117D01*
X129053662Y-69305115D01*
X129027098Y-69349202D01*
X128985119Y-69378987D01*
X128934733Y-69389500D01*
X128509413Y-69389500D01*
X128483556Y-69386818D01*
X128481950Y-69386481D01*
X128474684Y-69384957D01*
X128446013Y-69388532D01*
X128431271Y-69389447D01*
X128412010Y-69392661D01*
X128406863Y-69393411D01*
X128351190Y-69400351D01*
X128301839Y-69427058D01*
X128297211Y-69429440D01*
X128246805Y-69454082D01*
X128208802Y-69495362D01*
X128205200Y-69499116D01*
X128095527Y-69608790D01*
X127930421Y-69773897D01*
X127865596Y-69838722D01*
X127815436Y-69869460D01*
X127756789Y-69874076D01*
X127702439Y-69851563D01*
X127664233Y-69806830D01*
X127650500Y-69749627D01*
X127650500Y-68645101D01*
X145524310Y-68645101D01*
X146289999Y-69410790D01*
X146290000Y-69410790D01*
X147055689Y-68645100D01*
X147055688Y-68645099D01*
X147035302Y-68629232D01*
X147001265Y-68610812D01*
X146952994Y-68564495D01*
X146935236Y-68499997D01*
X146952996Y-68435500D01*
X147001268Y-68389184D01*
X147035306Y-68370763D01*
X147055688Y-68354899D01*
X147055689Y-68354898D01*
X146290001Y-67589210D01*
X146290000Y-67589210D01*
X145524310Y-68354899D01*
X145544699Y-68370768D01*
X145578733Y-68389187D01*
X145627004Y-68435503D01*
X145644763Y-68500000D01*
X145627004Y-68564497D01*
X145578733Y-68610813D01*
X145544702Y-68629229D01*
X145524310Y-68645099D01*
X145524310Y-68645101D01*
X127650500Y-68645101D01*
X127650500Y-68147372D01*
X127660091Y-68099154D01*
X127687405Y-68058277D01*
X128148277Y-67597405D01*
X128189154Y-67570091D01*
X128237372Y-67560500D01*
X128938232Y-67560500D01*
X128988618Y-67571013D01*
X129030596Y-67600798D01*
X129057161Y-67644885D01*
X129072206Y-67687882D01*
X129152849Y-67797150D01*
X129262117Y-67877793D01*
X129390298Y-67922645D01*
X129390301Y-67922646D01*
X129420734Y-67925500D01*
X129929263Y-67925500D01*
X129929266Y-67925500D01*
X129959699Y-67922646D01*
X130087882Y-67877793D01*
X130197150Y-67797150D01*
X130277793Y-67687882D01*
X130322646Y-67559699D01*
X130325500Y-67529266D01*
X130325500Y-67293697D01*
X130340595Y-67233897D01*
X130364256Y-67208075D01*
X130363619Y-67207419D01*
X130539743Y-67207419D01*
X130550336Y-67215547D01*
X130575585Y-67271815D01*
X130601135Y-67416711D01*
X130670623Y-67577804D01*
X130676520Y-67585725D01*
X130683776Y-67595472D01*
X130701636Y-67629096D01*
X130722207Y-67687883D01*
X130802849Y-67797150D01*
X130912117Y-67877793D01*
X131040298Y-67922645D01*
X131040301Y-67922646D01*
X131070734Y-67925500D01*
X131117068Y-67925500D01*
X131146125Y-67928896D01*
X131182855Y-67937601D01*
X131237279Y-67950500D01*
X142858009Y-67950500D01*
X142903525Y-67959008D01*
X142942894Y-67983385D01*
X143083958Y-68111981D01*
X143257359Y-68219346D01*
X143257361Y-68219346D01*
X143257363Y-68219348D01*
X143447544Y-68293024D01*
X143648024Y-68330500D01*
X143851974Y-68330500D01*
X143851976Y-68330500D01*
X144052456Y-68293024D01*
X144242637Y-68219348D01*
X144416041Y-68111981D01*
X144566764Y-67974579D01*
X144689673Y-67811821D01*
X144768062Y-67654393D01*
X144807386Y-67608192D01*
X144863747Y-67585725D01*
X144924074Y-67592205D01*
X144974378Y-67626128D01*
X144994601Y-67663935D01*
X144996984Y-67662891D01*
X145091580Y-67878548D01*
X145166922Y-67993866D01*
X145930789Y-67230001D01*
X146649210Y-67230001D01*
X147413076Y-67993867D01*
X147413077Y-67993866D01*
X147488418Y-67878551D01*
X147578819Y-67672457D01*
X147634068Y-67454283D01*
X147652653Y-67230000D01*
X147634068Y-67005716D01*
X147578819Y-66787543D01*
X147488417Y-66581446D01*
X147413076Y-66466132D01*
X146649210Y-67230000D01*
X146649210Y-67230001D01*
X145930789Y-67230001D01*
X145930790Y-67230000D01*
X145166922Y-66466133D01*
X145091580Y-66581451D01*
X144996984Y-66797109D01*
X144994602Y-66796064D01*
X144974373Y-66833877D01*
X144924068Y-66867796D01*
X144863743Y-66874273D01*
X144807385Y-66851806D01*
X144768060Y-66805603D01*
X144689673Y-66648179D01*
X144566764Y-66485421D01*
X144416041Y-66348019D01*
X144416038Y-66348017D01*
X144416037Y-66348016D01*
X144242640Y-66240653D01*
X144052456Y-66166976D01*
X143851976Y-66129500D01*
X143648024Y-66129500D01*
X143514370Y-66154483D01*
X143447543Y-66166976D01*
X143257359Y-66240653D01*
X143083962Y-66348016D01*
X143008713Y-66416615D01*
X142969343Y-66440992D01*
X142923827Y-66449500D01*
X131281291Y-66449500D01*
X131150745Y-66464759D01*
X131144856Y-66466902D01*
X131101765Y-66474500D01*
X131070734Y-66474500D01*
X131055517Y-66475927D01*
X131040298Y-66477354D01*
X130912117Y-66522206D01*
X130802849Y-66602849D01*
X130722206Y-66712117D01*
X130698618Y-66779530D01*
X130688809Y-66800914D01*
X130631188Y-66900718D01*
X130599753Y-67005716D01*
X130580870Y-67068790D01*
X130577286Y-67130318D01*
X130557438Y-67191205D01*
X130539743Y-67207419D01*
X130363619Y-67207419D01*
X130341775Y-67184930D01*
X130325500Y-67122991D01*
X130325500Y-66870737D01*
X130325224Y-66867796D01*
X130322646Y-66840301D01*
X130304185Y-66787543D01*
X130277793Y-66712117D01*
X130197150Y-66602849D01*
X130087882Y-66522206D01*
X129959701Y-66477354D01*
X129947525Y-66476212D01*
X129929266Y-66474500D01*
X129420734Y-66474500D01*
X129405517Y-66475927D01*
X129390298Y-66477354D01*
X129262117Y-66522206D01*
X129152849Y-66602849D01*
X129072206Y-66712117D01*
X129050163Y-66775115D01*
X129023599Y-66819202D01*
X128981620Y-66848987D01*
X128931234Y-66859500D01*
X128089418Y-66859500D01*
X128063560Y-66856818D01*
X128054685Y-66854957D01*
X128054684Y-66854957D01*
X128026006Y-66858532D01*
X128011279Y-66859446D01*
X127992027Y-66862658D01*
X127986886Y-66863407D01*
X127931190Y-66870351D01*
X127881839Y-66897058D01*
X127877211Y-66899440D01*
X127826805Y-66924082D01*
X127788802Y-66965362D01*
X127785199Y-66969117D01*
X127472351Y-67281963D01*
X127475874Y-66105101D01*
X145524310Y-66105101D01*
X146289999Y-66870790D01*
X146290000Y-66870790D01*
X147055689Y-66105100D01*
X147055688Y-66105099D01*
X147035302Y-66089232D01*
X147001265Y-66070812D01*
X146952994Y-66024495D01*
X146935236Y-65959997D01*
X146952996Y-65895500D01*
X147001268Y-65849184D01*
X147035306Y-65830763D01*
X147055688Y-65814899D01*
X147055689Y-65814898D01*
X146290001Y-65049210D01*
X146290000Y-65049210D01*
X145524310Y-65814899D01*
X145544699Y-65830768D01*
X145578733Y-65849187D01*
X145627004Y-65895503D01*
X145644763Y-65960000D01*
X145627004Y-66024497D01*
X145578733Y-66070813D01*
X145544702Y-66089229D01*
X145524310Y-66105099D01*
X145524310Y-66105101D01*
X127475874Y-66105101D01*
X127476640Y-65849041D01*
X128278280Y-65047401D01*
X128319154Y-65020091D01*
X128367372Y-65010500D01*
X128934733Y-65010500D01*
X128985119Y-65021013D01*
X129027098Y-65050798D01*
X129053662Y-65094885D01*
X129072206Y-65147882D01*
X129152849Y-65257150D01*
X129262117Y-65337793D01*
X129390298Y-65382645D01*
X129390301Y-65382646D01*
X129420734Y-65385500D01*
X129929263Y-65385500D01*
X129929266Y-65385500D01*
X129959699Y-65382646D01*
X130087882Y-65337793D01*
X130197150Y-65257150D01*
X130277793Y-65147882D01*
X130322646Y-65019699D01*
X130325500Y-64989266D01*
X130325500Y-64753697D01*
X130340595Y-64693897D01*
X130364256Y-64668075D01*
X130363619Y-64667419D01*
X130539743Y-64667419D01*
X130550336Y-64675547D01*
X130575585Y-64731815D01*
X130601135Y-64876711D01*
X130670623Y-65037804D01*
X130676520Y-65045725D01*
X130683776Y-65055472D01*
X130701636Y-65089096D01*
X130722207Y-65147883D01*
X130802849Y-65257150D01*
X130912117Y-65337793D01*
X131040298Y-65382645D01*
X131040301Y-65382646D01*
X131070734Y-65385500D01*
X131117068Y-65385500D01*
X131146125Y-65388896D01*
X131182855Y-65397601D01*
X131237279Y-65410500D01*
X142858009Y-65410500D01*
X142903525Y-65419008D01*
X142942894Y-65443385D01*
X143083958Y-65571981D01*
X143257359Y-65679346D01*
X143257361Y-65679346D01*
X143257363Y-65679348D01*
X143447544Y-65753024D01*
X143648024Y-65790500D01*
X143851974Y-65790500D01*
X143851976Y-65790500D01*
X144052456Y-65753024D01*
X144242637Y-65679348D01*
X144416041Y-65571981D01*
X144566764Y-65434579D01*
X144689673Y-65271821D01*
X144768062Y-65114393D01*
X144807386Y-65068192D01*
X144863747Y-65045725D01*
X144924074Y-65052205D01*
X144974378Y-65086128D01*
X144994601Y-65123935D01*
X144996984Y-65122891D01*
X145091580Y-65338548D01*
X145166922Y-65453866D01*
X145930789Y-64690001D01*
X146649210Y-64690001D01*
X147413076Y-65453867D01*
X147413077Y-65453866D01*
X147488418Y-65338551D01*
X147578819Y-65132457D01*
X147634068Y-64914283D01*
X147652653Y-64689999D01*
X147634068Y-64465716D01*
X147578819Y-64247543D01*
X147488417Y-64041446D01*
X147413076Y-63926132D01*
X146649210Y-64690000D01*
X146649210Y-64690001D01*
X145930789Y-64690001D01*
X145930790Y-64690000D01*
X145166922Y-63926133D01*
X145091580Y-64041451D01*
X144996984Y-64257109D01*
X144994602Y-64256064D01*
X144974373Y-64293877D01*
X144924068Y-64327796D01*
X144863743Y-64334273D01*
X144807385Y-64311806D01*
X144768060Y-64265603D01*
X144689673Y-64108179D01*
X144566764Y-63945421D01*
X144416041Y-63808019D01*
X144416038Y-63808017D01*
X144416037Y-63808016D01*
X144242640Y-63700653D01*
X144052456Y-63626976D01*
X143851976Y-63589500D01*
X143648024Y-63589500D01*
X143514370Y-63614483D01*
X143447543Y-63626976D01*
X143257359Y-63700653D01*
X143083962Y-63808016D01*
X143008713Y-63876615D01*
X142969343Y-63900992D01*
X142923827Y-63909500D01*
X133401530Y-63909500D01*
X133359913Y-63902429D01*
X133359698Y-63902353D01*
X133336473Y-63900175D01*
X133329266Y-63899500D01*
X132670734Y-63899500D01*
X132664054Y-63900126D01*
X132640301Y-63902353D01*
X132640087Y-63902429D01*
X132598470Y-63909500D01*
X131281291Y-63909500D01*
X131150745Y-63924759D01*
X131144856Y-63926902D01*
X131101765Y-63934500D01*
X131070734Y-63934500D01*
X131055517Y-63935927D01*
X131040298Y-63937354D01*
X130912117Y-63982206D01*
X130802849Y-64062849D01*
X130722206Y-64172117D01*
X130698618Y-64239530D01*
X130688809Y-64260914D01*
X130631188Y-64360718D01*
X130614256Y-64417275D01*
X130580870Y-64528790D01*
X130577286Y-64590318D01*
X130557438Y-64651205D01*
X130539743Y-64667419D01*
X130363619Y-64667419D01*
X130341775Y-64644930D01*
X130325500Y-64582991D01*
X130325500Y-64330737D01*
X130325224Y-64327796D01*
X130322646Y-64300301D01*
X130304185Y-64247543D01*
X130277793Y-64172117D01*
X130197150Y-64062849D01*
X130087882Y-63982206D01*
X129959701Y-63937354D01*
X129947525Y-63936212D01*
X129929266Y-63934500D01*
X129420734Y-63934500D01*
X129405517Y-63935927D01*
X129390298Y-63937354D01*
X129262117Y-63982206D01*
X129152849Y-64062849D01*
X129072206Y-64172117D01*
X129053662Y-64225115D01*
X129027098Y-64269202D01*
X128985119Y-64298987D01*
X128934733Y-64309500D01*
X128219413Y-64309500D01*
X128193556Y-64306818D01*
X128191950Y-64306481D01*
X128184684Y-64304957D01*
X128156013Y-64308532D01*
X128141271Y-64309447D01*
X128122010Y-64312661D01*
X128116863Y-64313411D01*
X128061190Y-64320351D01*
X128011839Y-64347058D01*
X128007211Y-64349440D01*
X127956805Y-64374082D01*
X127918802Y-64415362D01*
X127915199Y-64419117D01*
X127479619Y-64854696D01*
X127482462Y-63905146D01*
X132279096Y-63189679D01*
X132322206Y-63312882D01*
X132402849Y-63422150D01*
X132512117Y-63502793D01*
X132640298Y-63547645D01*
X132640301Y-63547646D01*
X132670734Y-63550500D01*
X133329263Y-63550500D01*
X133329266Y-63550500D01*
X133359699Y-63547646D01*
X133487882Y-63502793D01*
X133597150Y-63422150D01*
X133677793Y-63312882D01*
X133722646Y-63184699D01*
X133725500Y-63154266D01*
X133725500Y-62973934D01*
X142649500Y-61642829D01*
X142649500Y-62797874D01*
X142655908Y-62857481D01*
X142706204Y-62992331D01*
X142792453Y-63107546D01*
X142854860Y-63154263D01*
X142907669Y-63193796D01*
X143042517Y-63244091D01*
X143102127Y-63250500D01*
X144397872Y-63250499D01*
X144397874Y-63250499D01*
X144427677Y-63247295D01*
X144457483Y-63244091D01*
X144592331Y-63193796D01*
X144707546Y-63107546D01*
X144793796Y-62992331D01*
X144844091Y-62857483D01*
X144850500Y-62797873D01*
X144850499Y-61502128D01*
X144844091Y-61442517D01*
X144799207Y-61322177D01*
X145770465Y-61177305D01*
X145623960Y-61268018D01*
X145623958Y-61268019D01*
X145623959Y-61268019D01*
X145510207Y-61371718D01*
X145473235Y-61405422D01*
X145350328Y-61568177D01*
X145259417Y-61750752D01*
X145203603Y-61946914D01*
X145184785Y-62150000D01*
X145203603Y-62353085D01*
X145259417Y-62549247D01*
X145259418Y-62549250D01*
X145350327Y-62731821D01*
X145473236Y-62894579D01*
X145623959Y-63031981D01*
X145623961Y-63031982D01*
X145623962Y-63031983D01*
X145797359Y-63139346D01*
X145797361Y-63139346D01*
X145797363Y-63139348D01*
X145864280Y-63165271D01*
X145914073Y-63200350D01*
X145941595Y-63254689D01*
X145940411Y-63315589D01*
X145910797Y-63368818D01*
X145859675Y-63401935D01*
X145742627Y-63442118D01*
X145544700Y-63549231D01*
X145524310Y-63565099D01*
X145524310Y-63565101D01*
X146289999Y-64330790D01*
X146290000Y-64330790D01*
X147055689Y-63565100D01*
X147055688Y-63565099D01*
X147035302Y-63549232D01*
X146837372Y-63442118D01*
X146720324Y-63401935D01*
X146669202Y-63368818D01*
X146639588Y-63315589D01*
X146638404Y-63254689D01*
X146665926Y-63200350D01*
X146715719Y-63165271D01*
X146782637Y-63139348D01*
X146956041Y-63031981D01*
X147106764Y-62894579D01*
X147229673Y-62731821D01*
X147320582Y-62549250D01*
X147376397Y-62353083D01*
X147395215Y-62150000D01*
X147376397Y-61946917D01*
X147320582Y-61750750D01*
X147229673Y-61568179D01*
X147106764Y-61405421D01*
X146956041Y-61268019D01*
X146956038Y-61268017D01*
X146956037Y-61268016D01*
X146782640Y-61160653D01*
X146592451Y-61086974D01*
X146496418Y-61069022D01*
X148300000Y-60800000D01*
X148300000Y-86350000D01*
G37*
G04 #@! TD.AperFunction*
G04 #@! TA.AperFunction,Conductor*
G36*
X125521436Y-81222630D02*
G01*
X125571595Y-81253368D01*
X128480124Y-84161897D01*
X128513334Y-84220704D01*
X128511406Y-84288213D01*
X128474893Y-84345028D01*
X128414286Y-84374827D01*
X128346997Y-84369048D01*
X128231593Y-84326005D01*
X128171089Y-84319500D01*
X126676500Y-84319500D01*
X126676500Y-89635500D01*
X128171089Y-89635500D01*
X128231593Y-89628994D01*
X128368462Y-89577945D01*
X128490930Y-89486266D01*
X128549670Y-89462254D01*
X128612660Y-89469917D01*
X128746910Y-89522859D01*
X128803207Y-89529619D01*
X128831355Y-89533000D01*
X128831356Y-89533000D01*
X129413644Y-89533000D01*
X129413645Y-89533000D01*
X129455867Y-89527929D01*
X129498090Y-89522859D01*
X129632475Y-89469864D01*
X129706810Y-89413494D01*
X129713260Y-89408603D01*
X129749232Y-89389572D01*
X129789394Y-89383000D01*
X130442286Y-89383000D01*
X130498014Y-89395994D01*
X130542248Y-89432296D01*
X130596717Y-89503282D01*
X130722812Y-89600038D01*
X130759114Y-89644272D01*
X130772108Y-89700000D01*
X130759114Y-89755728D01*
X130722812Y-89799962D01*
X130596717Y-89896717D01*
X130500464Y-90022157D01*
X130439955Y-90168238D01*
X130424500Y-90285638D01*
X130424500Y-90764361D01*
X130439955Y-90881760D01*
X130500464Y-91027843D01*
X130596717Y-91153282D01*
X130714341Y-91243538D01*
X130752744Y-91292251D01*
X130763249Y-91353386D01*
X130743309Y-91412125D01*
X130697759Y-91454231D01*
X130637637Y-91469500D01*
X126221310Y-91469500D01*
X126164107Y-91455767D01*
X126119374Y-91417561D01*
X126096861Y-91363211D01*
X126101477Y-91304564D01*
X126132215Y-91254405D01*
X126149715Y-91236905D01*
X126190043Y-91209957D01*
X126200000Y-91200001D01*
X126200000Y-91192154D01*
X126218759Y-91126007D01*
X126241347Y-91089385D01*
X126295243Y-90926739D01*
X126305500Y-90826339D01*
X126305500Y-90781499D01*
X126297997Y-90773996D01*
X126263000Y-90764619D01*
X126216881Y-90718500D01*
X126200000Y-90655500D01*
X126200000Y-90399500D01*
X126216881Y-90336500D01*
X126263000Y-90290381D01*
X126297997Y-90281003D01*
X126305500Y-90273501D01*
X126305500Y-90228661D01*
X126295243Y-90128260D01*
X126241347Y-89965614D01*
X126218759Y-89928993D01*
X126200000Y-89862846D01*
X126200000Y-89697315D01*
X126178091Y-89664527D01*
X126168500Y-89616309D01*
X126168500Y-84319500D01*
X125466010Y-84319500D01*
X125397897Y-84299503D01*
X125351404Y-84245859D01*
X125341289Y-84175595D01*
X125341356Y-84175123D01*
X125341817Y-84171918D01*
X125348481Y-84145798D01*
X125350091Y-84141483D01*
X125353629Y-84092009D01*
X125354587Y-84083097D01*
X125356500Y-84069799D01*
X125356500Y-84056380D01*
X125356821Y-84047391D01*
X125360359Y-83997927D01*
X125359380Y-83993426D01*
X125356500Y-83966643D01*
X125356500Y-81342463D01*
X125370233Y-81285260D01*
X125408439Y-81240527D01*
X125462789Y-81218014D01*
X125521436Y-81222630D01*
G37*
G04 #@! TD.AperFunction*
G04 #@! TA.AperFunction,Conductor*
G36*
X120467191Y-81119188D02*
G01*
X120506063Y-81142687D01*
X120515144Y-81150731D01*
X120515145Y-81150731D01*
X120515148Y-81150734D01*
X120665775Y-81229790D01*
X120830944Y-81270500D01*
X121001054Y-81270500D01*
X121001056Y-81270500D01*
X121166225Y-81229790D01*
X121316852Y-81150734D01*
X121318474Y-81149296D01*
X121325937Y-81142687D01*
X121364809Y-81119188D01*
X121409489Y-81111000D01*
X121929937Y-81111000D01*
X121974617Y-81119188D01*
X122013487Y-81142685D01*
X122045148Y-81170734D01*
X122195775Y-81249790D01*
X122360944Y-81290500D01*
X122531054Y-81290500D01*
X122531056Y-81290500D01*
X122696225Y-81249790D01*
X122846852Y-81170734D01*
X122878512Y-81142685D01*
X122917383Y-81119188D01*
X122962063Y-81111000D01*
X123324000Y-81111000D01*
X123387000Y-81127881D01*
X123433119Y-81174000D01*
X123450000Y-81237000D01*
X123450000Y-82323699D01*
X123475909Y-82362473D01*
X123485500Y-82410691D01*
X123485500Y-83007769D01*
X123475909Y-83055987D01*
X123448595Y-83096864D01*
X122341221Y-84204237D01*
X122320254Y-84221135D01*
X122316374Y-84223628D01*
X122283898Y-84261107D01*
X122277776Y-84267682D01*
X122268278Y-84277180D01*
X122260231Y-84287930D01*
X122254593Y-84294927D01*
X122222121Y-84332403D01*
X122220206Y-84336596D01*
X122206472Y-84359744D01*
X122203705Y-84363440D01*
X122186375Y-84409902D01*
X122182934Y-84418208D01*
X122162334Y-84463315D01*
X122161678Y-84467882D01*
X122155020Y-84493969D01*
X122153409Y-84498287D01*
X122149870Y-84547755D01*
X122148910Y-84556686D01*
X122147000Y-84569976D01*
X122147000Y-84583394D01*
X122146679Y-84592383D01*
X122143141Y-84641848D01*
X122144120Y-84646348D01*
X122147000Y-84673131D01*
X122147000Y-86470143D01*
X122144120Y-86496926D01*
X122143141Y-86501425D01*
X122146679Y-86550891D01*
X122147000Y-86559880D01*
X122147000Y-86573298D01*
X122148910Y-86586588D01*
X122149870Y-86595519D01*
X122153409Y-86644984D01*
X122155018Y-86649298D01*
X122161678Y-86675391D01*
X122162334Y-86679954D01*
X122182931Y-86725055D01*
X122186372Y-86733365D01*
X122203702Y-86779829D01*
X122206466Y-86783521D01*
X122220209Y-86806684D01*
X122222121Y-86810872D01*
X122254591Y-86848344D01*
X122260233Y-86855346D01*
X122268274Y-86866088D01*
X122268278Y-86866092D01*
X122268279Y-86866093D01*
X122277775Y-86875589D01*
X122283892Y-86882159D01*
X122316372Y-86919643D01*
X122320249Y-86922135D01*
X122341223Y-86939037D01*
X122910095Y-87507909D01*
X122937409Y-87548786D01*
X122947000Y-87597004D01*
X122947000Y-87778645D01*
X122957140Y-87863089D01*
X123010136Y-87997476D01*
X123074578Y-88082454D01*
X123097422Y-88112578D01*
X123111602Y-88123331D01*
X123142950Y-88147103D01*
X123179662Y-88191451D01*
X123192815Y-88247500D01*
X123179662Y-88303549D01*
X123142950Y-88347896D01*
X123131741Y-88356397D01*
X123097420Y-88382423D01*
X123010136Y-88497523D01*
X122957140Y-88631910D01*
X122947000Y-88716355D01*
X122947000Y-89048645D01*
X122957140Y-89133089D01*
X123010136Y-89267476D01*
X123098590Y-89384119D01*
X123133847Y-89426708D01*
X123147000Y-89482757D01*
X123147000Y-89766220D01*
X123137409Y-89814439D01*
X123110097Y-89855312D01*
X123092212Y-89873197D01*
X123074330Y-89891079D01*
X122993881Y-90027111D01*
X122949791Y-90178870D01*
X122947000Y-90214341D01*
X122947000Y-90840660D01*
X122949791Y-90876127D01*
X122993881Y-91027888D01*
X123031954Y-91092266D01*
X123049500Y-91156405D01*
X123049500Y-91276942D01*
X123039909Y-91325161D01*
X123012595Y-91366038D01*
X122946036Y-91432596D01*
X122905159Y-91459909D01*
X122856941Y-91469500D01*
X122157721Y-91469500D01*
X112773027Y-91469500D01*
X112715824Y-91455767D01*
X112671091Y-91417561D01*
X112648578Y-91363210D01*
X112647022Y-91353386D01*
X112645646Y-91344696D01*
X112588050Y-91231658D01*
X112588049Y-91231657D01*
X112588048Y-91231655D01*
X112498344Y-91141951D01*
X112385304Y-91084354D01*
X112291519Y-91069500D01*
X112291517Y-91069500D01*
X111228480Y-91069500D01*
X111129708Y-91085143D01*
X111090290Y-91085143D01*
X111009736Y-91072385D01*
X110991518Y-91069500D01*
X109928481Y-91069500D01*
X109834696Y-91084354D01*
X109721655Y-91141951D01*
X109645595Y-91218012D01*
X109595436Y-91248750D01*
X109536789Y-91253366D01*
X109482439Y-91230853D01*
X109444233Y-91186120D01*
X109430500Y-91128917D01*
X109430500Y-88979449D01*
X109448047Y-88915310D01*
X109508617Y-88812891D01*
X109508618Y-88812890D01*
X109552709Y-88661127D01*
X109553982Y-88644956D01*
X110389252Y-88644956D01*
X110512392Y-88710777D01*
X110702396Y-88768415D01*
X110900000Y-88787877D01*
X111097603Y-88768415D01*
X111287607Y-88710777D01*
X111410747Y-88644956D01*
X110900001Y-88134210D01*
X110900000Y-88134210D01*
X110389252Y-88644956D01*
X109553982Y-88644956D01*
X109555500Y-88625663D01*
X109555499Y-88049338D01*
X109552709Y-88013873D01*
X109508618Y-87862110D01*
X109457101Y-87775000D01*
X109887122Y-87775000D01*
X109906584Y-87972603D01*
X109964222Y-88162607D01*
X110030042Y-88285746D01*
X110540789Y-87775001D01*
X111259210Y-87775001D01*
X111769956Y-88285747D01*
X111835777Y-88162607D01*
X111893415Y-87972603D01*
X111912877Y-87775000D01*
X111893415Y-87577396D01*
X111835777Y-87387392D01*
X111769956Y-87264252D01*
X111259210Y-87775000D01*
X111259210Y-87775001D01*
X110540789Y-87775001D01*
X110540790Y-87775000D01*
X110540790Y-87774999D01*
X110030042Y-87264251D01*
X110030041Y-87264252D01*
X109964223Y-87387390D01*
X109906584Y-87577396D01*
X109887122Y-87775000D01*
X109457101Y-87775000D01*
X109428170Y-87726080D01*
X109428169Y-87726079D01*
X109420067Y-87712379D01*
X109420692Y-87712008D01*
X109397088Y-87671125D01*
X109397088Y-87605902D01*
X109429700Y-87549418D01*
X109508890Y-87470228D01*
X109598847Y-87324385D01*
X109652743Y-87161739D01*
X109663000Y-87061339D01*
X109663000Y-87041500D01*
X108552000Y-87041500D01*
X108489000Y-87024619D01*
X108442881Y-86978500D01*
X108426000Y-86915500D01*
X108426000Y-86905042D01*
X110389251Y-86905042D01*
X110899999Y-87415790D01*
X110900000Y-87415790D01*
X111410746Y-86905042D01*
X111410747Y-86905042D01*
X111287607Y-86839222D01*
X111097603Y-86781584D01*
X110900000Y-86762122D01*
X110702396Y-86781584D01*
X110512390Y-86839223D01*
X110389252Y-86905041D01*
X110389251Y-86905042D01*
X108426000Y-86905042D01*
X108426000Y-85121500D01*
X108934000Y-85121500D01*
X108934000Y-86533500D01*
X109663000Y-86533500D01*
X109663000Y-86513661D01*
X109652743Y-86413260D01*
X109598847Y-86250614D01*
X109508888Y-86104768D01*
X109387730Y-85983610D01*
X109308500Y-85934741D01*
X109264622Y-85888907D01*
X109248646Y-85827500D01*
X109264622Y-85766093D01*
X109308500Y-85720259D01*
X109387730Y-85671389D01*
X109508888Y-85550231D01*
X109598847Y-85404385D01*
X109652743Y-85241739D01*
X109663000Y-85141339D01*
X109663000Y-85121500D01*
X108934000Y-85121500D01*
X108426000Y-85121500D01*
X108426000Y-84739500D01*
X108442881Y-84676500D01*
X108489000Y-84630381D01*
X108552000Y-84613500D01*
X109661310Y-84613500D01*
X109709528Y-84623091D01*
X109750405Y-84650405D01*
X112599998Y-87499999D01*
X112600000Y-87500000D01*
X117900000Y-87500000D01*
X119900000Y-85500000D01*
X119900000Y-82377191D01*
X119902000Y-82367136D01*
X119902000Y-81619000D01*
X120410000Y-81619000D01*
X120410000Y-82323000D01*
X120454839Y-82323000D01*
X120555239Y-82312743D01*
X120717884Y-82258847D01*
X120849853Y-82177448D01*
X120916000Y-82158689D01*
X120982147Y-82177448D01*
X121114115Y-82258847D01*
X121276760Y-82312743D01*
X121377161Y-82323000D01*
X121422000Y-82323000D01*
X121422000Y-81619000D01*
X121930000Y-81619000D01*
X121930000Y-82323000D01*
X121974839Y-82323000D01*
X122075239Y-82312743D01*
X122237884Y-82258847D01*
X122369853Y-82177448D01*
X122436000Y-82158689D01*
X122502147Y-82177448D01*
X122634115Y-82258847D01*
X122796760Y-82312743D01*
X122897161Y-82323000D01*
X122942000Y-82323000D01*
X122942000Y-81619000D01*
X121930000Y-81619000D01*
X121422000Y-81619000D01*
X120410000Y-81619000D01*
X119902000Y-81619000D01*
X119902000Y-81237000D01*
X119918881Y-81174000D01*
X119965000Y-81127881D01*
X120028000Y-81111000D01*
X120422511Y-81111000D01*
X120467191Y-81119188D01*
G37*
G04 #@! TD.AperFunction*
G04 #@! TA.AperFunction,Conductor*
G36*
X107729427Y-85389728D02*
G01*
X107781047Y-85436640D01*
X107851111Y-85550231D01*
X107972268Y-85671388D01*
X108051500Y-85720259D01*
X108095377Y-85766094D01*
X108111353Y-85827500D01*
X108095377Y-85888906D01*
X108051500Y-85934741D01*
X107972268Y-85983611D01*
X107851111Y-86104768D01*
X107763219Y-86247263D01*
X107720523Y-86289329D01*
X107663222Y-86306908D01*
X107604282Y-86296023D01*
X107600993Y-86294542D01*
X107581118Y-86283334D01*
X107572930Y-86277682D01*
X107516762Y-86256379D01*
X107509735Y-86253468D01*
X107454931Y-86228804D01*
X107445131Y-86227008D01*
X107423175Y-86220887D01*
X107413874Y-86217360D01*
X107354236Y-86210118D01*
X107346715Y-86208973D01*
X107287606Y-86198141D01*
X107230942Y-86201569D01*
X107227632Y-86201770D01*
X107220025Y-86202000D01*
X106952372Y-86202000D01*
X105886476Y-86202000D01*
X105837598Y-86192133D01*
X105796375Y-86164078D01*
X105786001Y-86148065D01*
X105784826Y-86148957D01*
X105682922Y-86014577D01*
X105562342Y-85923138D01*
X105502944Y-85899715D01*
X105454199Y-85865308D01*
X105426750Y-85812332D01*
X105426750Y-85752668D01*
X105454199Y-85699692D01*
X105502944Y-85665285D01*
X105562342Y-85641861D01*
X105562343Y-85641860D01*
X105682922Y-85550422D01*
X105682923Y-85550420D01*
X105696009Y-85540497D01*
X105725417Y-85516153D01*
X105781466Y-85503000D01*
X106748435Y-85503000D01*
X106867628Y-85503000D01*
X106952372Y-85503000D01*
X107202525Y-85503000D01*
X107210132Y-85503229D01*
X107239589Y-85505011D01*
X107270105Y-85506858D01*
X107270105Y-85506857D01*
X107270106Y-85506858D01*
X107329229Y-85496022D01*
X107336747Y-85494879D01*
X107396372Y-85487640D01*
X107405674Y-85484111D01*
X107427632Y-85477990D01*
X107437432Y-85476195D01*
X107492256Y-85451520D01*
X107499238Y-85448628D01*
X107555430Y-85427318D01*
X107563616Y-85421666D01*
X107583487Y-85410460D01*
X107592553Y-85406380D01*
X107592553Y-85406379D01*
X107592557Y-85406378D01*
X107596096Y-85403605D01*
X107660762Y-85377464D01*
X107729427Y-85389728D01*
G37*
G04 #@! TD.AperFunction*
G04 #@! TA.AperFunction,Conductor*
G36*
X107438481Y-76725500D02*
G01*
X108323001Y-76725499D01*
X108386000Y-76742380D01*
X108432119Y-76788499D01*
X108449000Y-76851499D01*
X108449000Y-76953000D01*
X108432119Y-77016000D01*
X108386000Y-77062119D01*
X108323000Y-77079000D01*
X107259765Y-77079000D01*
X107193229Y-77060000D01*
X107146759Y-77008729D01*
X107134372Y-76940650D01*
X107159802Y-76876297D01*
X107179373Y-76850791D01*
X107247540Y-76761954D01*
X107300810Y-76721630D01*
X107367207Y-76714211D01*
X107438481Y-76725500D01*
G37*
G04 #@! TD.AperFunction*
G04 #@! TA.AperFunction,Conductor*
G36*
X127452653Y-73861006D02*
G01*
X127285368Y-73693720D01*
X127268467Y-73672747D01*
X127265977Y-73668872D01*
X127265975Y-73668870D01*
X127256181Y-73653629D01*
X127258234Y-73652309D01*
X127235901Y-73618449D01*
X127233470Y-73550378D01*
X127266820Y-73490992D01*
X127454323Y-73303488D01*
X127452653Y-73861006D01*
G37*
G04 #@! TD.AperFunction*
G04 #@! TA.AperFunction,Conductor*
G36*
X127473041Y-67051510D02*
G01*
X127468424Y-67054340D01*
X127409777Y-67058956D01*
X127355426Y-67036443D01*
X127317220Y-66991710D01*
X127303487Y-66934507D01*
X127303487Y-66286517D01*
X127313078Y-66238299D01*
X127340392Y-66197422D01*
X127476004Y-66061808D01*
X127473041Y-67051510D01*
G37*
G04 #@! TD.AperFunction*
G04 #@! TA.AperFunction,Conductor*
G36*
X143411977Y-50517381D02*
G01*
X143458096Y-50563500D01*
X143474977Y-50626500D01*
X143474977Y-54726063D01*
X145199977Y-56526063D01*
X149373500Y-56526063D01*
X149436500Y-56542944D01*
X149482619Y-56589063D01*
X149499500Y-56652063D01*
X149499500Y-90473977D01*
X149482619Y-90536977D01*
X149436500Y-90583096D01*
X149373500Y-90599977D01*
X145273937Y-90599977D01*
X144426478Y-91412125D01*
X143473937Y-92324976D01*
X143473937Y-96523500D01*
X143457056Y-96586500D01*
X143410937Y-96632619D01*
X143347937Y-96649500D01*
X106651023Y-96649500D01*
X106588023Y-96632619D01*
X106541904Y-96586500D01*
X106525023Y-96523500D01*
X106525023Y-92423938D01*
X106525023Y-92423937D01*
X104800023Y-90623937D01*
X100626500Y-90623937D01*
X100563500Y-90607056D01*
X100517381Y-90560937D01*
X100500500Y-90497937D01*
X100500500Y-80532225D01*
X102142001Y-80532225D01*
X102148481Y-80603556D01*
X102199633Y-80767706D01*
X102288582Y-80914846D01*
X102327180Y-80953444D01*
X102358253Y-81004649D01*
X102362171Y-81064417D01*
X102338049Y-81119241D01*
X102320464Y-81142158D01*
X102259955Y-81288238D01*
X102244500Y-81405638D01*
X102244500Y-82034361D01*
X102259955Y-82151760D01*
X102320464Y-82297843D01*
X102416717Y-82423282D01*
X102542157Y-82519535D01*
X102626718Y-82554562D01*
X102667596Y-82581876D01*
X102694909Y-82622753D01*
X102704500Y-82670971D01*
X102704500Y-83687419D01*
X102697928Y-83727581D01*
X102678897Y-83763553D01*
X102605639Y-83860156D01*
X102550122Y-84000936D01*
X102539500Y-84089397D01*
X102539500Y-85200603D01*
X102550122Y-85289063D01*
X102605639Y-85429843D01*
X102697077Y-85550422D01*
X102817656Y-85641860D01*
X102817657Y-85641860D01*
X102817658Y-85641861D01*
X102841452Y-85651244D01*
X102877056Y-85665285D01*
X102925800Y-85699692D01*
X102953249Y-85752668D01*
X102953249Y-85812332D01*
X102925800Y-85865308D01*
X102877056Y-85899715D01*
X102817656Y-85923139D01*
X102697077Y-86014577D01*
X102605639Y-86135156D01*
X102550122Y-86275936D01*
X102539500Y-86364397D01*
X102539500Y-87475603D01*
X102550122Y-87564063D01*
X102605639Y-87704843D01*
X102697077Y-87825422D01*
X102817656Y-87916860D01*
X102817657Y-87916860D01*
X102817658Y-87916861D01*
X102958436Y-87972377D01*
X103046897Y-87983000D01*
X103046898Y-87983000D01*
X103433102Y-87983000D01*
X103433103Y-87983000D01*
X103477333Y-87977688D01*
X103521564Y-87972377D01*
X103662342Y-87916861D01*
X103782922Y-87825422D01*
X103874361Y-87704842D01*
X103929877Y-87564064D01*
X103940500Y-87475602D01*
X103940500Y-86364398D01*
X103929877Y-86275936D01*
X103874361Y-86135158D01*
X103874360Y-86135157D01*
X103874360Y-86135156D01*
X103773150Y-86001692D01*
X103748931Y-85944180D01*
X103755278Y-85882101D01*
X103790636Y-85830680D01*
X103846331Y-85802533D01*
X103908701Y-85804561D01*
X103936000Y-85812492D01*
X103936000Y-85245612D01*
X103936899Y-85230589D01*
X103940500Y-85200603D01*
X103940500Y-84517000D01*
X103957381Y-84454000D01*
X104003500Y-84407881D01*
X104066500Y-84391000D01*
X104313500Y-84391000D01*
X104376500Y-84407881D01*
X104422619Y-84454000D01*
X104439500Y-84517000D01*
X104439500Y-84620025D01*
X104439270Y-84627634D01*
X104435641Y-84687605D01*
X104437436Y-84697395D01*
X104439500Y-84720108D01*
X104439500Y-85200603D01*
X104443101Y-85230589D01*
X104444000Y-85245612D01*
X104444000Y-85812492D01*
X104471298Y-85804561D01*
X104533668Y-85802532D01*
X104589363Y-85830680D01*
X104624720Y-85882100D01*
X104631068Y-85944180D01*
X104606849Y-86001692D01*
X104505639Y-86135156D01*
X104450122Y-86275936D01*
X104439500Y-86364397D01*
X104439500Y-86844892D01*
X104437436Y-86867605D01*
X104435641Y-86877394D01*
X104439270Y-86937366D01*
X104439500Y-86944975D01*
X104439500Y-87475603D01*
X104450122Y-87564063D01*
X104505639Y-87704843D01*
X104597077Y-87825422D01*
X104717656Y-87916860D01*
X104717657Y-87916860D01*
X104717658Y-87916861D01*
X104858436Y-87972377D01*
X104946897Y-87983000D01*
X104946898Y-87983000D01*
X105333102Y-87983000D01*
X105333103Y-87983000D01*
X105377333Y-87977688D01*
X105421564Y-87972377D01*
X105562342Y-87916861D01*
X105682922Y-87825422D01*
X105774361Y-87704842D01*
X105774360Y-87704842D01*
X105783063Y-87682777D01*
X105810174Y-87640925D01*
X105851398Y-87612868D01*
X105900278Y-87603000D01*
X106748435Y-87603000D01*
X106867628Y-87603000D01*
X106902653Y-87603000D01*
X106950871Y-87612591D01*
X106991748Y-87639905D01*
X107767595Y-88415752D01*
X107794909Y-88456628D01*
X107804500Y-88504846D01*
X107804500Y-88625660D01*
X107807291Y-88661127D01*
X107851382Y-88812891D01*
X107911953Y-88915310D01*
X107929500Y-88979449D01*
X107929500Y-91616147D01*
X107928170Y-91634407D01*
X107924711Y-91658021D01*
X107929021Y-91707289D01*
X107929500Y-91718269D01*
X107929500Y-91723713D01*
X107933090Y-91754432D01*
X107933462Y-91758073D01*
X107940123Y-91834201D01*
X107944273Y-91852921D01*
X107970402Y-91924710D01*
X107971604Y-91928170D01*
X107995631Y-92000678D01*
X108003988Y-92017940D01*
X108045966Y-92081765D01*
X108047935Y-92084855D01*
X108088037Y-92149870D01*
X108100139Y-92164725D01*
X108155707Y-92217150D01*
X108158302Y-92219670D01*
X108700223Y-92761591D01*
X108803323Y-92843111D01*
X108962327Y-92917257D01*
X108962332Y-92917258D01*
X108974009Y-92922703D01*
X108983589Y-92926033D01*
X108991564Y-92930039D01*
X108991565Y-92930039D01*
X108991567Y-92930040D01*
X109162279Y-92970500D01*
X109446973Y-92970500D01*
X109504176Y-92984233D01*
X109548909Y-93022439D01*
X109571421Y-93076789D01*
X109574354Y-93095304D01*
X109629874Y-93204268D01*
X109631951Y-93208344D01*
X109721655Y-93298048D01*
X109721657Y-93298049D01*
X109721658Y-93298050D01*
X109834696Y-93355646D01*
X109928481Y-93370500D01*
X110991518Y-93370499D01*
X111085304Y-93355646D01*
X111085305Y-93355645D01*
X111090289Y-93354856D01*
X111129710Y-93354856D01*
X111134695Y-93355645D01*
X111134696Y-93355646D01*
X111228481Y-93370500D01*
X112291518Y-93370499D01*
X112385304Y-93355646D01*
X112498342Y-93298050D01*
X112588050Y-93208342D01*
X112645646Y-93095304D01*
X112648578Y-93076790D01*
X112671090Y-93022440D01*
X112715824Y-92984233D01*
X112773027Y-92970500D01*
X121092279Y-92970500D01*
X121982279Y-92970500D01*
X122113709Y-92970500D01*
X123156147Y-92970500D01*
X123174407Y-92971830D01*
X123180580Y-92972734D01*
X123198023Y-92975289D01*
X123247288Y-92970979D01*
X123258269Y-92970500D01*
X123263709Y-92970500D01*
X124132279Y-92970500D01*
X124263709Y-92970500D01*
X124290451Y-92970500D01*
X124312719Y-92972775D01*
X124314142Y-92972733D01*
X124314144Y-92972734D01*
X124389095Y-92970553D01*
X124392760Y-92970500D01*
X131056848Y-92970500D01*
X131098461Y-92977570D01*
X131120745Y-92985368D01*
X131300000Y-93005565D01*
X131479255Y-92985368D01*
X131649522Y-92925789D01*
X131802262Y-92829816D01*
X131929816Y-92702262D01*
X132025789Y-92549522D01*
X132085368Y-92379255D01*
X132105565Y-92200000D01*
X132085368Y-92020745D01*
X132084386Y-92017940D01*
X132025789Y-91850478D01*
X131929815Y-91697736D01*
X131837405Y-91605326D01*
X131810091Y-91564449D01*
X131800500Y-91516231D01*
X131800500Y-91365763D01*
X131810091Y-91317546D01*
X131837403Y-91276669D01*
X131876723Y-91250394D01*
X132003282Y-91153282D01*
X132099535Y-91027842D01*
X132099534Y-91027842D01*
X132099536Y-91027841D01*
X132160044Y-90881762D01*
X132175500Y-90764361D01*
X132175500Y-90554000D01*
X132592000Y-90554000D01*
X132592000Y-90848589D01*
X132598505Y-90909093D01*
X132649554Y-91045962D01*
X132737095Y-91162904D01*
X132854037Y-91250445D01*
X132990906Y-91301494D01*
X133051411Y-91308000D01*
X133346000Y-91308000D01*
X133346000Y-90554000D01*
X133854000Y-90554000D01*
X133854000Y-91308000D01*
X134148589Y-91308000D01*
X134209093Y-91301494D01*
X134345962Y-91250445D01*
X134462904Y-91162904D01*
X134550445Y-91045962D01*
X134601494Y-90909093D01*
X134608000Y-90848589D01*
X134608000Y-90554000D01*
X133854000Y-90554000D01*
X133346000Y-90554000D01*
X132592000Y-90554000D01*
X132175500Y-90554000D01*
X132175499Y-90285640D01*
X132160044Y-90168238D01*
X132099536Y-90022159D01*
X132099535Y-90022156D01*
X132003284Y-89896720D01*
X132003282Y-89896719D01*
X132003282Y-89896718D01*
X131877841Y-89800464D01*
X131877838Y-89800463D01*
X131877187Y-89799963D01*
X131840885Y-89755728D01*
X131827891Y-89700000D01*
X131840885Y-89644272D01*
X131877187Y-89600037D01*
X131877838Y-89599536D01*
X131877841Y-89599536D01*
X132003282Y-89503282D01*
X132044323Y-89449795D01*
X132088558Y-89413494D01*
X132144286Y-89400500D01*
X132525346Y-89400500D01*
X132583748Y-89414852D01*
X132628845Y-89454639D01*
X132650364Y-89510797D01*
X132643402Y-89570532D01*
X132598505Y-89690906D01*
X132592000Y-89751411D01*
X132592000Y-90046000D01*
X134608000Y-90046000D01*
X134608000Y-89751411D01*
X134601494Y-89690906D01*
X134550445Y-89554037D01*
X134468354Y-89444375D01*
X134444917Y-89389464D01*
X134449389Y-89329929D01*
X134469681Y-89267476D01*
X134485674Y-89218256D01*
X134505460Y-89030000D01*
X134485674Y-88841744D01*
X134485674Y-88841742D01*
X134427179Y-88661716D01*
X134332534Y-88497785D01*
X134234228Y-88388606D01*
X134205871Y-88357112D01*
X134193186Y-88347896D01*
X134055002Y-88247500D01*
X134052730Y-88245849D01*
X134052729Y-88245848D01*
X134052727Y-88245847D01*
X133879807Y-88168857D01*
X133879803Y-88168856D01*
X133694646Y-88129500D01*
X133505354Y-88129500D01*
X133344016Y-88163793D01*
X133320192Y-88168857D01*
X133147272Y-88245847D01*
X132994128Y-88357112D01*
X132993501Y-88357809D01*
X132951114Y-88388606D01*
X132899864Y-88399500D01*
X132182652Y-88399500D01*
X132126924Y-88386506D01*
X132082690Y-88350204D01*
X132003282Y-88246717D01*
X131876723Y-88149605D01*
X131837403Y-88123331D01*
X131810091Y-88082454D01*
X131800500Y-88034237D01*
X131800500Y-85151671D01*
X131803380Y-85124888D01*
X131803547Y-85124115D01*
X131804359Y-85120387D01*
X131800820Y-85070922D01*
X131800500Y-85061934D01*
X131800500Y-85048515D01*
X131798590Y-85035233D01*
X131797628Y-85026286D01*
X131794091Y-84976834D01*
X131794091Y-84976831D01*
X131792482Y-84972517D01*
X131785820Y-84946413D01*
X131785165Y-84941857D01*
X131764567Y-84896755D01*
X131761124Y-84888442D01*
X131743796Y-84841983D01*
X131741036Y-84838296D01*
X131727290Y-84815129D01*
X131725378Y-84810942D01*
X131692909Y-84773471D01*
X131687265Y-84766466D01*
X131679224Y-84755725D01*
X131679223Y-84755724D01*
X131679221Y-84755721D01*
X131669722Y-84746222D01*
X131663604Y-84739650D01*
X131631129Y-84702171D01*
X131627248Y-84699677D01*
X131606275Y-84682775D01*
X126625248Y-79701748D01*
X126597934Y-79660871D01*
X126588343Y-79612653D01*
X126588343Y-78595200D01*
X126591223Y-78568417D01*
X126591390Y-78567644D01*
X126592202Y-78563916D01*
X126588663Y-78514451D01*
X126588343Y-78505463D01*
X126588343Y-78492044D01*
X126586433Y-78478762D01*
X126585471Y-78469815D01*
X126581934Y-78420363D01*
X126581934Y-78420360D01*
X126580325Y-78416046D01*
X126573663Y-78389942D01*
X126573008Y-78385386D01*
X126552410Y-78340284D01*
X126548967Y-78331972D01*
X126538616Y-78304219D01*
X126531639Y-78285512D01*
X126531638Y-78285510D01*
X126526336Y-78271295D01*
X126520404Y-78204836D01*
X126549240Y-78144667D01*
X126604759Y-78107659D01*
X126721885Y-78068847D01*
X126867731Y-77978888D01*
X126999305Y-77847315D01*
X127000485Y-77848495D01*
X127033058Y-77817585D01*
X127095700Y-77802161D01*
X127157766Y-77819764D01*
X127202984Y-77865778D01*
X127219500Y-77928142D01*
X127219500Y-78952643D01*
X127216620Y-78979426D01*
X127215641Y-78983927D01*
X127218102Y-79018335D01*
X127219179Y-79033391D01*
X127219500Y-79042380D01*
X127219500Y-79055798D01*
X127221410Y-79069088D01*
X127222370Y-79078019D01*
X127225909Y-79127484D01*
X127227518Y-79131798D01*
X127234178Y-79157891D01*
X127234834Y-79162454D01*
X127234834Y-79162455D01*
X127234835Y-79162457D01*
X127253615Y-79203580D01*
X127255431Y-79207555D01*
X127258872Y-79215865D01*
X127276202Y-79262329D01*
X127278966Y-79266021D01*
X127292709Y-79289184D01*
X127294621Y-79293372D01*
X127327091Y-79330844D01*
X127332733Y-79337846D01*
X127340774Y-79348588D01*
X127340778Y-79348592D01*
X127340779Y-79348593D01*
X127350275Y-79358089D01*
X127356394Y-79364661D01*
X127379035Y-79390791D01*
X127388872Y-79402143D01*
X127392749Y-79404635D01*
X127413723Y-79421537D01*
X127435939Y-79443753D01*
X127433862Y-80137498D01*
X132124500Y-81757105D01*
X132124500Y-81789361D01*
X132139955Y-81906760D01*
X132200463Y-82052840D01*
X132223463Y-82082814D01*
X132242813Y-82119017D01*
X132249500Y-82159518D01*
X132249500Y-82543709D01*
X132264758Y-82674252D01*
X132264758Y-82674254D01*
X132264759Y-82674255D01*
X132324763Y-82839117D01*
X132324764Y-82839118D01*
X132324765Y-82839121D01*
X132421169Y-82985696D01*
X132490546Y-83051149D01*
X132548782Y-83106092D01*
X132570357Y-83118548D01*
X132700716Y-83193811D01*
X132700718Y-83193811D01*
X132700719Y-83193812D01*
X132868790Y-83244130D01*
X133043935Y-83254331D01*
X133216711Y-83223865D01*
X133377804Y-83154377D01*
X133518530Y-83049610D01*
X133631302Y-82915214D01*
X133710040Y-82758433D01*
X133750500Y-82587721D01*
X133750500Y-82318539D01*
X142548160Y-85356239D01*
X142570424Y-85439329D01*
X142662898Y-85637639D01*
X142788404Y-85816880D01*
X142943119Y-85971595D01*
X142943122Y-85971597D01*
X142943123Y-85971598D01*
X143122361Y-86097102D01*
X143320670Y-86189575D01*
X143532023Y-86246207D01*
X143750000Y-86265277D01*
X143967977Y-86246207D01*
X144179330Y-86189575D01*
X144377639Y-86097102D01*
X144482059Y-86023986D01*
X148250000Y-87325000D01*
X148300000Y-86350000D01*
X148300000Y-60800000D01*
X146825506Y-61019935D01*
X146719329Y-60970424D01*
X146507977Y-60913793D01*
X146290000Y-60894723D01*
X146072023Y-60913793D01*
X145860670Y-60970425D01*
X145860667Y-60970426D01*
X145860668Y-60970426D01*
X145662360Y-61062898D01*
X145483119Y-61188404D01*
X145445788Y-61225734D01*
X144954479Y-61299018D01*
X144951744Y-61289602D01*
X144868081Y-61148135D01*
X144868079Y-61148133D01*
X144868078Y-61148131D01*
X144751868Y-61031921D01*
X144751865Y-61031919D01*
X144610398Y-60948256D01*
X144452569Y-60902402D01*
X144415694Y-60899500D01*
X143084306Y-60899500D01*
X143054805Y-60901821D01*
X143047430Y-60902402D01*
X142889602Y-60948256D01*
X142748131Y-61031921D01*
X142631921Y-61148131D01*
X142548256Y-61289602D01*
X142507498Y-61429892D01*
X142502402Y-61447431D01*
X142499500Y-61484306D01*
X142499500Y-61665203D01*
X133875499Y-62951559D01*
X133875499Y-62660640D01*
X133860044Y-62543238D01*
X133799536Y-62397159D01*
X133776537Y-62367186D01*
X133757187Y-62330983D01*
X133750500Y-62290482D01*
X133750500Y-61756291D01*
X133741678Y-61680815D01*
X133735241Y-61625745D01*
X133675237Y-61460883D01*
X133675234Y-61460878D01*
X133578830Y-61314303D01*
X133451218Y-61193908D01*
X133299283Y-61106188D01*
X133187233Y-61072642D01*
X133131210Y-61055870D01*
X132956065Y-61045669D01*
X132783289Y-61076135D01*
X132622193Y-61145624D01*
X132481471Y-61250388D01*
X132368698Y-61384785D01*
X132327078Y-61467658D01*
X132289960Y-61541567D01*
X132251467Y-61703982D01*
X132249500Y-61712281D01*
X132249500Y-62290482D01*
X132242813Y-62330983D01*
X132223463Y-62367186D01*
X132200463Y-62397159D01*
X132139955Y-62543238D01*
X132124500Y-62660638D01*
X132124500Y-63139361D01*
X132133973Y-63211326D01*
X127482462Y-63905146D01*
X127480256Y-64641928D01*
X126496708Y-65625476D01*
X126475741Y-65642374D01*
X126471861Y-65644867D01*
X126439385Y-65682346D01*
X126433263Y-65688921D01*
X126423765Y-65698419D01*
X126415718Y-65709169D01*
X126410080Y-65716166D01*
X126377608Y-65753642D01*
X126375693Y-65757835D01*
X126361959Y-65780983D01*
X126359192Y-65784679D01*
X126341862Y-65831141D01*
X126338421Y-65839447D01*
X126317821Y-65884554D01*
X126317165Y-65889121D01*
X126310507Y-65915208D01*
X126308896Y-65919526D01*
X126305358Y-65968990D01*
X126304397Y-65977927D01*
X126302487Y-65991214D01*
X126302487Y-66004633D01*
X126302166Y-66013622D01*
X126298628Y-66063087D01*
X126299607Y-66067587D01*
X126302487Y-66094370D01*
X126302487Y-68138471D01*
X126285145Y-68202263D01*
X126237894Y-68248495D01*
X126173739Y-68264441D01*
X126110340Y-68245712D01*
X126021885Y-68191152D01*
X125859239Y-68137256D01*
X125758839Y-68127000D01*
X125714000Y-68127000D01*
X125714000Y-69213000D01*
X125697119Y-69276000D01*
X125651000Y-69322119D01*
X125588000Y-69339000D01*
X124476550Y-69339000D01*
X124437027Y-69365409D01*
X124388809Y-69375000D01*
X123432500Y-69375000D01*
X123369500Y-69358119D01*
X123323381Y-69312000D01*
X123306500Y-69249000D01*
X123306500Y-68831000D01*
X124477000Y-68831000D01*
X125206000Y-68831000D01*
X125206000Y-68127000D01*
X125161161Y-68127000D01*
X125060760Y-68137256D01*
X124898114Y-68191152D01*
X124752268Y-68281111D01*
X124631111Y-68402268D01*
X124541152Y-68548114D01*
X124487256Y-68710760D01*
X124477000Y-68811161D01*
X124477000Y-68831000D01*
X123306500Y-68831000D01*
X123306500Y-68789198D01*
X123291165Y-68682543D01*
X123289090Y-68678000D01*
X123231377Y-68551627D01*
X123137128Y-68442857D01*
X123137127Y-68442856D01*
X123137126Y-68442855D01*
X123016053Y-68365047D01*
X122877962Y-68324500D01*
X122877961Y-68324500D01*
X122734039Y-68324500D01*
X122704039Y-68333308D01*
X122641496Y-68351672D01*
X122570502Y-68351671D01*
X122477963Y-68324500D01*
X122477961Y-68324500D01*
X122334039Y-68324500D01*
X122304039Y-68333308D01*
X122241496Y-68351672D01*
X122170502Y-68351671D01*
X122077963Y-68324500D01*
X122077961Y-68324500D01*
X121934039Y-68324500D01*
X121934037Y-68324500D01*
X121877211Y-68341185D01*
X121811425Y-68342594D01*
X121753899Y-68310647D01*
X121720323Y-68254057D01*
X121719854Y-68188257D01*
X121752619Y-68131194D01*
X121782277Y-68101536D01*
X121803256Y-68084631D01*
X121807128Y-68082143D01*
X121839601Y-68044665D01*
X121845717Y-68038096D01*
X121855221Y-68028593D01*
X121863266Y-68017844D01*
X121868907Y-68010845D01*
X121901378Y-67973372D01*
X121903288Y-67969190D01*
X121917038Y-67946015D01*
X121919796Y-67942331D01*
X121937127Y-67895862D01*
X121940566Y-67887561D01*
X121961163Y-67842461D01*
X121961162Y-67842461D01*
X121961165Y-67842457D01*
X121961820Y-67837897D01*
X121968481Y-67811798D01*
X121970091Y-67807483D01*
X121973629Y-67758009D01*
X121974587Y-67749097D01*
X121976500Y-67735799D01*
X121976500Y-67722380D01*
X121976821Y-67713391D01*
X121977385Y-67705499D01*
X121980359Y-67663927D01*
X121979380Y-67659426D01*
X121976500Y-67632643D01*
X121976500Y-67085763D01*
X121986091Y-67037546D01*
X122013403Y-66996669D01*
X122052723Y-66970394D01*
X122179282Y-66873282D01*
X122199911Y-66846398D01*
X122275536Y-66747841D01*
X122336044Y-66601762D01*
X122351500Y-66484361D01*
X122351499Y-66005640D01*
X122351366Y-66004633D01*
X122336044Y-65888239D01*
X122335508Y-65886946D01*
X122293148Y-65784679D01*
X122275535Y-65742156D01*
X122179284Y-65616720D01*
X122179282Y-65616719D01*
X122179282Y-65616718D01*
X122053841Y-65520464D01*
X122053838Y-65520463D01*
X122053187Y-65519963D01*
X122016885Y-65475728D01*
X122003891Y-65420000D01*
X122016885Y-65364272D01*
X122053187Y-65320037D01*
X122053838Y-65319536D01*
X122053841Y-65319536D01*
X122179282Y-65223282D01*
X122275536Y-65097841D01*
X122336044Y-64951762D01*
X122351500Y-64834361D01*
X122351499Y-64355640D01*
X122336044Y-64238238D01*
X122297887Y-64146119D01*
X122275535Y-64092156D01*
X122179282Y-63966717D01*
X122175796Y-63964043D01*
X122139494Y-63919809D01*
X122126500Y-63864081D01*
X122126500Y-63614080D01*
X122136368Y-63565200D01*
X122164425Y-63523976D01*
X122206277Y-63496865D01*
X122263342Y-63474361D01*
X122267406Y-63471279D01*
X122383922Y-63382922D01*
X122453161Y-63291616D01*
X122500769Y-63253342D01*
X122560784Y-63241957D01*
X122619101Y-63260138D01*
X122662013Y-63303612D01*
X122716945Y-63396499D01*
X122834498Y-63514052D01*
X122977600Y-63598681D01*
X123137247Y-63645064D01*
X123174547Y-63648000D01*
X123499500Y-63648000D01*
X123499500Y-63094000D01*
X124007500Y-63094000D01*
X124007500Y-63647999D01*
X124332454Y-63647999D01*
X124369752Y-63645064D01*
X124529398Y-63598682D01*
X124672501Y-63514052D01*
X124790052Y-63396501D01*
X124874681Y-63253399D01*
X124920993Y-63094000D01*
X124007500Y-63094000D01*
X123499500Y-63094000D01*
X123499500Y-62716500D01*
X123516381Y-62653500D01*
X123562500Y-62607381D01*
X123625500Y-62590500D01*
X124309103Y-62590500D01*
X124339089Y-62586899D01*
X124354112Y-62586000D01*
X124920992Y-62586000D01*
X124874681Y-62426600D01*
X124804430Y-62307810D01*
X124787279Y-62253640D01*
X124795670Y-62197447D01*
X124805877Y-62171564D01*
X124816500Y-62083102D01*
X124816500Y-61696898D01*
X124805877Y-61608436D01*
X124750361Y-61467658D01*
X124750360Y-61467657D01*
X124747823Y-61461223D01*
X124739038Y-61414999D01*
X124747823Y-61368774D01*
X124750357Y-61362346D01*
X124750361Y-61362342D01*
X124805877Y-61221564D01*
X124816500Y-61133102D01*
X124816500Y-60746898D01*
X124805877Y-60658436D01*
X124750361Y-60517658D01*
X124750360Y-60517657D01*
X124750360Y-60517656D01*
X124658922Y-60397078D01*
X124543209Y-60309330D01*
X124503318Y-60258067D01*
X124494262Y-60193745D01*
X124498771Y-60156608D01*
X124505645Y-60100000D01*
X124485140Y-59931128D01*
X124424818Y-59772070D01*
X124328183Y-59632071D01*
X124200852Y-59519266D01*
X124050225Y-59440210D01*
X123885056Y-59399500D01*
X123714944Y-59399500D01*
X123699645Y-59399500D01*
X123699645Y-59397369D01*
X123668557Y-59397839D01*
X123617295Y-59373831D01*
X123581715Y-59329804D01*
X123569000Y-59274645D01*
X123569000Y-59141161D01*
X123558743Y-59040760D01*
X123504847Y-58878115D01*
X123499719Y-58869801D01*
X123481360Y-58813680D01*
X123490585Y-58755358D01*
X123525367Y-58707642D01*
X123578069Y-58681012D01*
X123637110Y-58681315D01*
X123714944Y-58700500D01*
X123885054Y-58700500D01*
X123885056Y-58700500D01*
X124050225Y-58659790D01*
X124200852Y-58580734D01*
X124328183Y-58467929D01*
X124424818Y-58327930D01*
X124485140Y-58168872D01*
X124505645Y-58000000D01*
X124485140Y-57831128D01*
X124424818Y-57672070D01*
X124328183Y-57532071D01*
X124200852Y-57419266D01*
X124050225Y-57340210D01*
X123885056Y-57299500D01*
X123714944Y-57299500D01*
X123549775Y-57340210D01*
X123549774Y-57340210D01*
X123549772Y-57340211D01*
X123514617Y-57358662D01*
X123458176Y-57373076D01*
X123401284Y-57360563D01*
X123356101Y-57323798D01*
X123289281Y-57236717D01*
X123163842Y-57140464D01*
X123017761Y-57079955D01*
X122900361Y-57064500D01*
X122421638Y-57064500D01*
X122304239Y-57079955D01*
X122158156Y-57140464D01*
X122032717Y-57236717D01*
X121935962Y-57362812D01*
X121891728Y-57399114D01*
X121836000Y-57412108D01*
X121780272Y-57399114D01*
X121736038Y-57362812D01*
X121639282Y-57236717D01*
X121513842Y-57140464D01*
X121367761Y-57079955D01*
X121250361Y-57064500D01*
X120771638Y-57064500D01*
X120654239Y-57079955D01*
X120508156Y-57140464D01*
X120382717Y-57236717D01*
X120286464Y-57362157D01*
X120225955Y-57508238D01*
X120210500Y-57625639D01*
X120210500Y-57813363D01*
X120200909Y-57861581D01*
X120173597Y-57902455D01*
X120100206Y-57975847D01*
X120028435Y-58047618D01*
X119997897Y-58070088D01*
X119885150Y-58129264D01*
X119757816Y-58242072D01*
X119661181Y-58382070D01*
X119600859Y-58541128D01*
X119580355Y-58710000D01*
X119600859Y-58878871D01*
X119661181Y-59037929D01*
X119661182Y-59037930D01*
X119757817Y-59177929D01*
X119866987Y-59274645D01*
X119885149Y-59290735D01*
X119997894Y-59349908D01*
X120028434Y-59372380D01*
X120173595Y-59517541D01*
X120200909Y-59558418D01*
X120210500Y-59606635D01*
X120210500Y-59753160D01*
X120213291Y-59788627D01*
X120257381Y-59940388D01*
X120337832Y-60076423D01*
X120449576Y-60188167D01*
X120449578Y-60188168D01*
X120449580Y-60188170D01*
X120522543Y-60231320D01*
X120570459Y-60282160D01*
X120583926Y-60350715D01*
X120558799Y-60415906D01*
X120481639Y-60517656D01*
X120426122Y-60658436D01*
X120415500Y-60746897D01*
X120415500Y-61133103D01*
X120426122Y-61221563D01*
X120481639Y-61362343D01*
X120573077Y-61482922D01*
X120693656Y-61574360D01*
X120693657Y-61574360D01*
X120693658Y-61574361D01*
X120786276Y-61610885D01*
X120834436Y-61629877D01*
X120922897Y-61640500D01*
X120922898Y-61640500D01*
X122034102Y-61640500D01*
X122034103Y-61640500D01*
X122103619Y-61632152D01*
X122122564Y-61629877D01*
X122263342Y-61574361D01*
X122383922Y-61482922D01*
X122475361Y-61362342D01*
X122494305Y-61314304D01*
X122498785Y-61302944D01*
X122533192Y-61254199D01*
X122586168Y-61226750D01*
X122645832Y-61226750D01*
X122698808Y-61254199D01*
X122733215Y-61302944D01*
X122759176Y-61368777D01*
X122767961Y-61415000D01*
X122759176Y-61461224D01*
X122701122Y-61608436D01*
X122690500Y-61696897D01*
X122690500Y-62083103D01*
X122701122Y-62171562D01*
X122711330Y-62197447D01*
X122719720Y-62253642D01*
X122702569Y-62307809D01*
X122662013Y-62376387D01*
X122619101Y-62419861D01*
X122560784Y-62438042D01*
X122500770Y-62426657D01*
X122453162Y-62388383D01*
X122383922Y-62297077D01*
X122263343Y-62205639D01*
X122122563Y-62150122D01*
X122034103Y-62139500D01*
X122034102Y-62139500D01*
X120922898Y-62139500D01*
X120922897Y-62139500D01*
X120834436Y-62150122D01*
X120693656Y-62205639D01*
X120573077Y-62297077D01*
X120481639Y-62417656D01*
X120426122Y-62558436D01*
X120415500Y-62646897D01*
X120415500Y-63033103D01*
X120426122Y-63121563D01*
X120481639Y-63262343D01*
X120573077Y-63382922D01*
X120693657Y-63474361D01*
X120745723Y-63494893D01*
X120787575Y-63522004D01*
X120815632Y-63563228D01*
X120825500Y-63612108D01*
X120825500Y-63715133D01*
X120808158Y-63778925D01*
X120760906Y-63825157D01*
X120696752Y-63841103D01*
X120633353Y-63822374D01*
X120517885Y-63751152D01*
X120355239Y-63697256D01*
X120254839Y-63687000D01*
X120210000Y-63687000D01*
X120210000Y-64773000D01*
X120193119Y-64836000D01*
X120147000Y-64882119D01*
X120084000Y-64899000D01*
X119752030Y-64899000D01*
X119707350Y-64890812D01*
X119668477Y-64867313D01*
X119596850Y-64803857D01*
X119446223Y-64724801D01*
X119281054Y-64684091D01*
X119110942Y-64684091D01*
X118945773Y-64724801D01*
X118852033Y-64774000D01*
X118795146Y-64803857D01*
X118723519Y-64867313D01*
X118684646Y-64890812D01*
X118639966Y-64899000D01*
X117404836Y-64899000D01*
X117399809Y-64900000D01*
X117101500Y-64900000D01*
X117038500Y-64883119D01*
X116992381Y-64837000D01*
X116975500Y-64774000D01*
X116975500Y-64391000D01*
X117453000Y-64391000D01*
X118182000Y-64391000D01*
X118182000Y-63687000D01*
X118690000Y-63687000D01*
X118690000Y-64391000D01*
X119702000Y-64391000D01*
X119702000Y-63687000D01*
X119657161Y-63687000D01*
X119556760Y-63697256D01*
X119394114Y-63751152D01*
X119262147Y-63832551D01*
X119196000Y-63851310D01*
X119129853Y-63832551D01*
X118997885Y-63751152D01*
X118835239Y-63697256D01*
X118734839Y-63687000D01*
X118690000Y-63687000D01*
X118182000Y-63687000D01*
X118137161Y-63687000D01*
X118036760Y-63697256D01*
X117874114Y-63751152D01*
X117728268Y-63841111D01*
X117607111Y-63962268D01*
X117517152Y-64108114D01*
X117463256Y-64270760D01*
X117453000Y-64371161D01*
X117453000Y-64391000D01*
X116975500Y-64391000D01*
X116975500Y-64033034D01*
X116985091Y-63984816D01*
X117012404Y-63943939D01*
X117073224Y-63883119D01*
X117257281Y-63699060D01*
X117278256Y-63682160D01*
X117282128Y-63679672D01*
X117314601Y-63642194D01*
X117320717Y-63635625D01*
X117330221Y-63626122D01*
X117338266Y-63615373D01*
X117343907Y-63608374D01*
X117376378Y-63570901D01*
X117378288Y-63566719D01*
X117392038Y-63543544D01*
X117392045Y-63543535D01*
X117394796Y-63539860D01*
X117412127Y-63493391D01*
X117415566Y-63485090D01*
X117429859Y-63453793D01*
X117436165Y-63439986D01*
X117436820Y-63435426D01*
X117443481Y-63409327D01*
X117445091Y-63405012D01*
X117448629Y-63355538D01*
X117449587Y-63346626D01*
X117451500Y-63333328D01*
X117451500Y-63319909D01*
X117451821Y-63310920D01*
X117452856Y-63296450D01*
X117455359Y-63261456D01*
X117454380Y-63256955D01*
X117451500Y-63230172D01*
X117451500Y-59773027D01*
X117465233Y-59715824D01*
X117503439Y-59671091D01*
X117557789Y-59648578D01*
X117576304Y-59645646D01*
X117689342Y-59588050D01*
X117779050Y-59498342D01*
X117836646Y-59385304D01*
X117851500Y-59291519D01*
X117851499Y-58228482D01*
X117851388Y-58227784D01*
X117842058Y-58168871D01*
X117836646Y-58134696D01*
X117779050Y-58021658D01*
X117779049Y-58021657D01*
X117779048Y-58021655D01*
X117689344Y-57931951D01*
X117576304Y-57874354D01*
X117482519Y-57859500D01*
X117482517Y-57859500D01*
X116419481Y-57859500D01*
X116325694Y-57874354D01*
X116300689Y-57887095D01*
X116242249Y-57900822D01*
X116184090Y-57885950D01*
X116068607Y-57824222D01*
X115935000Y-57783692D01*
X115935000Y-59736307D01*
X116068611Y-59695776D01*
X116184090Y-59634050D01*
X116242250Y-59619177D01*
X116300689Y-59632904D01*
X116325696Y-59645646D01*
X116344209Y-59648578D01*
X116398560Y-59671090D01*
X116436767Y-59715824D01*
X116450500Y-59773027D01*
X116450500Y-63038024D01*
X116440909Y-63086243D01*
X116413594Y-63127121D01*
X116333357Y-63207356D01*
X116276873Y-63239966D01*
X116211651Y-63239966D01*
X116155168Y-63207354D01*
X114948405Y-62000591D01*
X114921091Y-61959714D01*
X114911500Y-61911496D01*
X114911500Y-59698884D01*
X114931049Y-59631474D01*
X114983629Y-59584981D01*
X115052925Y-59573832D01*
X115106970Y-59597000D01*
X115107331Y-59596326D01*
X115115160Y-59600511D01*
X115117435Y-59601486D01*
X115118276Y-59602176D01*
X115293390Y-59695776D01*
X115426999Y-59736307D01*
X115427000Y-59736307D01*
X115427000Y-57783693D01*
X115426999Y-57783692D01*
X115293390Y-57824223D01*
X115118276Y-57917823D01*
X115036487Y-57984945D01*
X114987569Y-58009668D01*
X114932782Y-58011282D01*
X114882494Y-57989482D01*
X114876249Y-57984945D01*
X114863730Y-57975849D01*
X114863729Y-57975848D01*
X114863727Y-57975847D01*
X114690807Y-57898857D01*
X114690803Y-57898856D01*
X114505646Y-57859500D01*
X114316354Y-57859500D01*
X114186529Y-57887095D01*
X114131192Y-57898857D01*
X113958272Y-57975847D01*
X113805129Y-58087111D01*
X113678465Y-58227785D01*
X113583820Y-58391716D01*
X113525325Y-58571742D01*
X113505540Y-58760000D01*
X113525325Y-58948257D01*
X113583820Y-59128283D01*
X113678465Y-59292214D01*
X113678467Y-59292216D01*
X113805129Y-59432888D01*
X113858561Y-59471708D01*
X113896767Y-59516441D01*
X113910500Y-59573644D01*
X113910500Y-62103643D01*
X113907620Y-62130426D01*
X113906641Y-62134925D01*
X113910179Y-62184391D01*
X113910500Y-62193380D01*
X113910500Y-62206798D01*
X113912410Y-62220088D01*
X113913370Y-62229019D01*
X113916909Y-62278484D01*
X113918518Y-62282798D01*
X113925178Y-62308891D01*
X113925834Y-62313454D01*
X113925834Y-62313455D01*
X113925835Y-62313457D01*
X113936033Y-62335788D01*
X113946431Y-62358555D01*
X113949872Y-62366865D01*
X113967202Y-62413329D01*
X113969966Y-62417021D01*
X113983709Y-62440184D01*
X113985621Y-62444372D01*
X114018091Y-62481844D01*
X114023733Y-62488846D01*
X114031774Y-62499588D01*
X114031778Y-62499592D01*
X114031779Y-62499593D01*
X114041275Y-62509089D01*
X114047392Y-62515659D01*
X114079872Y-62553143D01*
X114083749Y-62555635D01*
X114104723Y-62572537D01*
X114828636Y-63296450D01*
X115537595Y-64005408D01*
X115564909Y-64046285D01*
X115574500Y-64094503D01*
X115574500Y-65762497D01*
X115560767Y-65819700D01*
X115522561Y-65864433D01*
X115468211Y-65886946D01*
X115409564Y-65882330D01*
X115359405Y-65851592D01*
X114606905Y-65099092D01*
X114579591Y-65058215D01*
X114570000Y-65009997D01*
X114570000Y-64955290D01*
X114575705Y-64917804D01*
X114592304Y-64883714D01*
X114626371Y-64834360D01*
X114688729Y-64744019D01*
X114749051Y-64584961D01*
X114769556Y-64416089D01*
X114749051Y-64247217D01*
X114688729Y-64088159D01*
X114681979Y-64078380D01*
X114592304Y-63948464D01*
X114575705Y-63914374D01*
X114570000Y-63876888D01*
X114570000Y-63800000D01*
X114563773Y-63797871D01*
X114539610Y-63817388D01*
X114482863Y-63829740D01*
X114426606Y-63815328D01*
X114314136Y-63756299D01*
X114149142Y-63715632D01*
X114090203Y-63682389D01*
X112937405Y-62529591D01*
X112910091Y-62488714D01*
X112900500Y-62440496D01*
X112900500Y-62017357D01*
X112903380Y-61990574D01*
X112903547Y-61989801D01*
X112904359Y-61986073D01*
X112900820Y-61936608D01*
X112900500Y-61927620D01*
X112900500Y-61914201D01*
X112899608Y-61908000D01*
X112898589Y-61900917D01*
X112897628Y-61891972D01*
X112894091Y-61842520D01*
X112894091Y-61842517D01*
X112892482Y-61838203D01*
X112885820Y-61812099D01*
X112885165Y-61807543D01*
X112864567Y-61762441D01*
X112861124Y-61754128D01*
X112843796Y-61707669D01*
X112841036Y-61703982D01*
X112827290Y-61680815D01*
X112825378Y-61676628D01*
X112792909Y-61639157D01*
X112787265Y-61632152D01*
X112779224Y-61621411D01*
X112779223Y-61621410D01*
X112779221Y-61621407D01*
X112769722Y-61611908D01*
X112763604Y-61605336D01*
X112731129Y-61567857D01*
X112727248Y-61565363D01*
X112706275Y-61548461D01*
X112422404Y-61264590D01*
X112395090Y-61223713D01*
X112385499Y-61175495D01*
X112385499Y-60755638D01*
X112370044Y-60638239D01*
X112309535Y-60492156D01*
X112213282Y-60366717D01*
X112087842Y-60270464D01*
X111941761Y-60209955D01*
X111824361Y-60194500D01*
X111345638Y-60194500D01*
X111228239Y-60209955D01*
X111082156Y-60270464D01*
X110956717Y-60366717D01*
X110859962Y-60492812D01*
X110815728Y-60529114D01*
X110760000Y-60542108D01*
X110704272Y-60529114D01*
X110660038Y-60492812D01*
X110563282Y-60366717D01*
X110437842Y-60270464D01*
X110291761Y-60209955D01*
X110174361Y-60194500D01*
X109695638Y-60194500D01*
X109578239Y-60209955D01*
X109432159Y-60270463D01*
X109299466Y-60372282D01*
X109244641Y-60396405D01*
X109184873Y-60392487D01*
X109133667Y-60361414D01*
X109098812Y-60326559D01*
X109063438Y-60305639D01*
X108964139Y-60246913D01*
X108964138Y-60246912D01*
X108964137Y-60246912D01*
X108813894Y-60203263D01*
X108803861Y-60202473D01*
X108778787Y-60200500D01*
X108778782Y-60200500D01*
X108216216Y-60200500D01*
X108181106Y-60203263D01*
X108030863Y-60246912D01*
X107896189Y-60326558D01*
X107875107Y-60347640D01*
X107818623Y-60380250D01*
X107753401Y-60380249D01*
X107696918Y-60347638D01*
X107595077Y-60245797D01*
X107450480Y-60156608D01*
X107289211Y-60103169D01*
X107189668Y-60093000D01*
X107176500Y-60093000D01*
X107176500Y-63722999D01*
X107189669Y-63722999D01*
X107289212Y-63712830D01*
X107450479Y-63659392D01*
X107595074Y-63570204D01*
X107696917Y-63468361D01*
X107753401Y-63435749D01*
X107818624Y-63435749D01*
X107875108Y-63468361D01*
X107896187Y-63489440D01*
X107896189Y-63489441D01*
X107896191Y-63489443D01*
X108030861Y-63569087D01*
X108181108Y-63612737D01*
X108216213Y-63615500D01*
X108778786Y-63615499D01*
X108813892Y-63612737D01*
X108964139Y-63569087D01*
X109098809Y-63489443D01*
X109134800Y-63453451D01*
X109186004Y-63422380D01*
X109245773Y-63418462D01*
X109300598Y-63442586D01*
X109432157Y-63543535D01*
X109432158Y-63543535D01*
X109432159Y-63543536D01*
X109578238Y-63604044D01*
X109695639Y-63619500D01*
X110174360Y-63619499D01*
X110174361Y-63619499D01*
X110215525Y-63614080D01*
X110291762Y-63604044D01*
X110437841Y-63543536D01*
X110437841Y-63543535D01*
X110437843Y-63543535D01*
X110535811Y-63468361D01*
X110563282Y-63447282D01*
X110659536Y-63321841D01*
X110659536Y-63321838D01*
X110660037Y-63321187D01*
X110704272Y-63284885D01*
X110760000Y-63271891D01*
X110815728Y-63284885D01*
X110859963Y-63321187D01*
X110860463Y-63321838D01*
X110860464Y-63321841D01*
X110951120Y-63439986D01*
X110956720Y-63447284D01*
X111082157Y-63543535D01*
X111082158Y-63543535D01*
X111082159Y-63543536D01*
X111228238Y-63604044D01*
X111345639Y-63619500D01*
X111659495Y-63619499D01*
X111707713Y-63629090D01*
X111748590Y-63656404D01*
X115358672Y-67266486D01*
X115390474Y-67320085D01*
X115392697Y-67382369D01*
X115364797Y-67438099D01*
X115313601Y-67473640D01*
X115303196Y-67477520D01*
X115277108Y-67484178D01*
X115272541Y-67484834D01*
X115227434Y-67505434D01*
X115219128Y-67508875D01*
X115172666Y-67526205D01*
X115168970Y-67528972D01*
X115145822Y-67542706D01*
X115141629Y-67544621D01*
X115104153Y-67577093D01*
X115097156Y-67582731D01*
X115086406Y-67590778D01*
X115076908Y-67600276D01*
X115070332Y-67606398D01*
X115027258Y-67643723D01*
X114988778Y-67666555D01*
X114944744Y-67674500D01*
X114546839Y-67674500D01*
X114511372Y-67677291D01*
X114359611Y-67721381D01*
X114209879Y-67809933D01*
X114209509Y-67809307D01*
X114168621Y-67832912D01*
X114103401Y-67832910D01*
X114046919Y-67800299D01*
X113967731Y-67721111D01*
X113821885Y-67631152D01*
X113659239Y-67577256D01*
X113558839Y-67567000D01*
X113539000Y-67567000D01*
X113539000Y-68678000D01*
X113522119Y-68741000D01*
X113476000Y-68787119D01*
X113413000Y-68804000D01*
X112327000Y-68804000D01*
X112327000Y-68848839D01*
X112337256Y-68949239D01*
X112391152Y-69111885D01*
X112481111Y-69257731D01*
X112525709Y-69302329D01*
X112556782Y-69353535D01*
X112560700Y-69413303D01*
X112536577Y-69468127D01*
X112510464Y-69502158D01*
X112449955Y-69648238D01*
X112434500Y-69765638D01*
X112434500Y-70394361D01*
X112449955Y-70511760D01*
X112510463Y-70657840D01*
X112532234Y-70686212D01*
X112556358Y-70741036D01*
X112552441Y-70800804D01*
X112521369Y-70852011D01*
X112481110Y-70892271D01*
X112391152Y-71038115D01*
X112337256Y-71200760D01*
X112327000Y-71301161D01*
X112327000Y-71346000D01*
X113413000Y-71346000D01*
X113476000Y-71362881D01*
X113522119Y-71409000D01*
X113539000Y-71472000D01*
X113539000Y-72583000D01*
X113558839Y-72583000D01*
X113659239Y-72572743D01*
X113821884Y-72518847D01*
X113892353Y-72475382D01*
X113955751Y-72456653D01*
X114019906Y-72472599D01*
X114067158Y-72518831D01*
X114084500Y-72582623D01*
X114084500Y-74207377D01*
X114067158Y-74271169D01*
X114019906Y-74317401D01*
X113955751Y-74333347D01*
X113892353Y-74314618D01*
X113821884Y-74271152D01*
X113659239Y-74217256D01*
X113558839Y-74207000D01*
X113539000Y-74207000D01*
X113539000Y-76173000D01*
X113558839Y-76173000D01*
X113659239Y-76162743D01*
X113821884Y-76108847D01*
X113917353Y-76049962D01*
X113980752Y-76031233D01*
X114044906Y-76047179D01*
X114092158Y-76093411D01*
X114109500Y-76157203D01*
X114109500Y-76533709D01*
X114124758Y-76664252D01*
X114124758Y-76664254D01*
X114124759Y-76664255D01*
X114184763Y-76829117D01*
X114184764Y-76829118D01*
X114184765Y-76829121D01*
X114281169Y-76975696D01*
X114401565Y-77089283D01*
X114408782Y-77096092D01*
X114464394Y-77128199D01*
X114560716Y-77183811D01*
X114560718Y-77183811D01*
X114560719Y-77183812D01*
X114728790Y-77234130D01*
X114903935Y-77244331D01*
X115076711Y-77213865D01*
X115237804Y-77144377D01*
X115378530Y-77039610D01*
X115491302Y-76905214D01*
X115570040Y-76748433D01*
X115610500Y-76577721D01*
X115610500Y-75826500D01*
X115627381Y-75763500D01*
X115673500Y-75717381D01*
X115736500Y-75700500D01*
X116395201Y-75700500D01*
X116575799Y-75700500D01*
X116979500Y-75700500D01*
X117042500Y-75717381D01*
X117088619Y-75763500D01*
X117105500Y-75826500D01*
X117105500Y-76572643D01*
X117102620Y-76599426D01*
X117101641Y-76603925D01*
X117105179Y-76653391D01*
X117105500Y-76662380D01*
X117105500Y-76675798D01*
X117107410Y-76689088D01*
X117108370Y-76698019D01*
X117111909Y-76747484D01*
X117113518Y-76751798D01*
X117120178Y-76777891D01*
X117120834Y-76782454D01*
X117120834Y-76782455D01*
X117120835Y-76782457D01*
X117139904Y-76824213D01*
X117141431Y-76827555D01*
X117144872Y-76835865D01*
X117167555Y-76896679D01*
X117175500Y-76940712D01*
X117175500Y-77223075D01*
X117165909Y-77271293D01*
X117138595Y-77312170D01*
X116988170Y-77462595D01*
X116947293Y-77489909D01*
X116899075Y-77499500D01*
X116147619Y-77499500D01*
X116131173Y-77498422D01*
X116100000Y-77494318D01*
X116060639Y-77499500D01*
X115943238Y-77514955D01*
X115797159Y-77575463D01*
X115671717Y-77671718D01*
X115652578Y-77696662D01*
X115641710Y-77709054D01*
X115250538Y-78100225D01*
X115238149Y-78111090D01*
X115213203Y-78130232D01*
X115136615Y-78230044D01*
X115136616Y-78230044D01*
X115116950Y-78255672D01*
X115056442Y-78401751D01*
X115035805Y-78558513D01*
X115039909Y-78589686D01*
X115040987Y-78606132D01*
X115040987Y-78838500D01*
X115024106Y-78901500D01*
X114977987Y-78947619D01*
X114914987Y-78964500D01*
X114532839Y-78964500D01*
X114497372Y-78967291D01*
X114345611Y-79011381D01*
X114209576Y-79091832D01*
X114097832Y-79203576D01*
X114017381Y-79339611D01*
X113973291Y-79491370D01*
X113970500Y-79526841D01*
X113970500Y-80103160D01*
X113973291Y-80138627D01*
X114010454Y-80266546D01*
X114017382Y-80290390D01*
X114081371Y-80398590D01*
X114105933Y-80440121D01*
X114105306Y-80440491D01*
X114128911Y-80481374D01*
X114128911Y-80546596D01*
X114096300Y-80603080D01*
X114017110Y-80682270D01*
X113927152Y-80828114D01*
X113873256Y-80990760D01*
X113863000Y-81091161D01*
X113863000Y-81111000D01*
X115089937Y-81111000D01*
X115134617Y-81119188D01*
X115173487Y-81142685D01*
X115205148Y-81170734D01*
X115355775Y-81249790D01*
X115520944Y-81290500D01*
X115691054Y-81290500D01*
X115691056Y-81290500D01*
X115856225Y-81249790D01*
X116006852Y-81170734D01*
X116014453Y-81164000D01*
X116049799Y-81132687D01*
X116088672Y-81109188D01*
X116133352Y-81101000D01*
X116619936Y-81101000D01*
X116664616Y-81109188D01*
X116703489Y-81132688D01*
X116749549Y-81173494D01*
X116749550Y-81173494D01*
X116749552Y-81173496D01*
X116900179Y-81252552D01*
X117065348Y-81293262D01*
X117235458Y-81293262D01*
X117235460Y-81293262D01*
X117400629Y-81252552D01*
X117551256Y-81173496D01*
X117597318Y-81132688D01*
X117636192Y-81109188D01*
X117680872Y-81101000D01*
X118014487Y-81101000D01*
X118077487Y-81117881D01*
X118123606Y-81164000D01*
X118140487Y-81227000D01*
X118140487Y-82313001D01*
X118174648Y-82347162D01*
X118207260Y-82403646D01*
X118207260Y-82468868D01*
X118174648Y-82525352D01*
X117836905Y-82863095D01*
X117796028Y-82890409D01*
X117747810Y-82900000D01*
X113960559Y-82900000D01*
X113905977Y-82887564D01*
X113862170Y-82852712D01*
X113581719Y-82502149D01*
X113527610Y-82434513D01*
X113507103Y-82397509D01*
X113500000Y-82355802D01*
X113500000Y-81619000D01*
X113863000Y-81619000D01*
X113863000Y-81638839D01*
X113873256Y-81739239D01*
X113927152Y-81901885D01*
X114017111Y-82047731D01*
X114138268Y-82168888D01*
X114284114Y-82258847D01*
X114446760Y-82312743D01*
X114547161Y-82323000D01*
X114592000Y-82323000D01*
X115100000Y-82323000D01*
X115144839Y-82323000D01*
X115245239Y-82312743D01*
X115407884Y-82258847D01*
X115548202Y-82172298D01*
X115614349Y-82153539D01*
X115680496Y-82172298D01*
X115804602Y-82248847D01*
X115967247Y-82302743D01*
X116067648Y-82313000D01*
X116112487Y-82313000D01*
X116112487Y-81609000D01*
X116620487Y-81609000D01*
X116620487Y-82313000D01*
X116665326Y-82313000D01*
X116765726Y-82302743D01*
X116928375Y-82248846D01*
X117060339Y-82167449D01*
X117126486Y-82148689D01*
X117192633Y-82167448D01*
X117324602Y-82248847D01*
X117487247Y-82302743D01*
X117587648Y-82313000D01*
X117632487Y-82313000D01*
X117632487Y-81609000D01*
X116620487Y-81609000D01*
X116112487Y-81609000D01*
X115855639Y-81609000D01*
X115855027Y-81609409D01*
X115806809Y-81619000D01*
X115100000Y-81619000D01*
X115100000Y-82323000D01*
X114592000Y-82323000D01*
X114592000Y-81619000D01*
X113863000Y-81619000D01*
X113500000Y-81619000D01*
X113500000Y-80205287D01*
X113506448Y-80165496D01*
X113525132Y-80129778D01*
X113550445Y-80095962D01*
X113601494Y-79959093D01*
X113608000Y-79898589D01*
X113608000Y-79604000D01*
X112622000Y-79604000D01*
X112559000Y-79587119D01*
X112512881Y-79541000D01*
X112496000Y-79478000D01*
X112496000Y-79222000D01*
X112512881Y-79159000D01*
X112559000Y-79112881D01*
X112622000Y-79096000D01*
X113608000Y-79096000D01*
X113608000Y-78801411D01*
X113601494Y-78740906D01*
X113550445Y-78604037D01*
X113462904Y-78487095D01*
X113388525Y-78431416D01*
X113353446Y-78390933D01*
X113338355Y-78339536D01*
X113345979Y-78286515D01*
X113374937Y-78241454D01*
X113428050Y-78188342D01*
X113485646Y-78075304D01*
X113500500Y-77981519D01*
X113500499Y-77318482D01*
X113485646Y-77224696D01*
X113428050Y-77111658D01*
X113428049Y-77111657D01*
X113428048Y-77111655D01*
X113338344Y-77021951D01*
X113225304Y-76964354D01*
X113191058Y-76958930D01*
X113131519Y-76949500D01*
X113131518Y-76949500D01*
X113126000Y-76949500D01*
X113063000Y-76932619D01*
X113016881Y-76886500D01*
X113000000Y-76823500D01*
X113000000Y-76256191D01*
X113009591Y-76207973D01*
X113031000Y-76175933D01*
X113031000Y-74206999D01*
X113024865Y-74200864D01*
X113010960Y-74198223D01*
X112971193Y-74173113D01*
X111500000Y-72800000D01*
X109723172Y-72800000D01*
X109670829Y-72788613D01*
X109627947Y-72756512D01*
X109624433Y-72752457D01*
X109612907Y-72739155D01*
X109607265Y-72732152D01*
X109599224Y-72721411D01*
X109599223Y-72721410D01*
X109599221Y-72721407D01*
X109589722Y-72711908D01*
X109583604Y-72705336D01*
X109551129Y-72667857D01*
X109547248Y-72665363D01*
X109526275Y-72648461D01*
X109396537Y-72518723D01*
X109379635Y-72497749D01*
X109377143Y-72493872D01*
X109377141Y-72493870D01*
X109363986Y-72482471D01*
X109331885Y-72439589D01*
X109320499Y-72387247D01*
X109320499Y-72143481D01*
X109312775Y-72094709D01*
X109312775Y-72055288D01*
X109320500Y-72006519D01*
X109320500Y-71854000D01*
X112327000Y-71854000D01*
X112327000Y-71898839D01*
X112337256Y-71999239D01*
X112391152Y-72161885D01*
X112481111Y-72307731D01*
X112602268Y-72428888D01*
X112748114Y-72518847D01*
X112910760Y-72572743D01*
X113011161Y-72583000D01*
X113031000Y-72583000D01*
X113031000Y-71854000D01*
X112327000Y-71854000D01*
X109320500Y-71854000D01*
X109320499Y-71643482D01*
X109308815Y-71569707D01*
X109308815Y-71530295D01*
X109320500Y-71456519D01*
X109320499Y-70979617D01*
X109326947Y-70939827D01*
X109345632Y-70904108D01*
X109370446Y-70870961D01*
X109421494Y-70734093D01*
X109428000Y-70673589D01*
X109428000Y-70579000D01*
X109292582Y-70579000D01*
X109244363Y-70569409D01*
X109203489Y-70542097D01*
X109158342Y-70496950D01*
X109158341Y-70496949D01*
X109045304Y-70439354D01*
X109022789Y-70435788D01*
X108951519Y-70424500D01*
X108951517Y-70424500D01*
X107438481Y-70424500D01*
X107367210Y-70435788D01*
X107300810Y-70428369D01*
X107247539Y-70388043D01*
X107159803Y-70273704D01*
X107134372Y-70209350D01*
X107146759Y-70141272D01*
X107193228Y-70090001D01*
X107259765Y-70071000D01*
X107941000Y-70071000D01*
X107941000Y-69509000D01*
X108449000Y-69509000D01*
X108449000Y-70071000D01*
X109428000Y-70071000D01*
X109428000Y-69976411D01*
X109421494Y-69915906D01*
X109370445Y-69779037D01*
X109282904Y-69662095D01*
X109165962Y-69574554D01*
X109029093Y-69523505D01*
X108968589Y-69517000D01*
X108875664Y-69517000D01*
X108841978Y-69509000D01*
X108449000Y-69509000D01*
X107941000Y-69509000D01*
X105753693Y-69509000D01*
X105794223Y-69642609D01*
X105887823Y-69817723D01*
X106013787Y-69971212D01*
X106167278Y-70097177D01*
X106254986Y-70144058D01*
X106296177Y-70179296D01*
X106318751Y-70228580D01*
X106318529Y-70282787D01*
X106295553Y-70331884D01*
X106247302Y-70394765D01*
X106189312Y-70534764D01*
X106169534Y-70685000D01*
X106189312Y-70835235D01*
X106247301Y-70975232D01*
X106263139Y-70995872D01*
X106339549Y-71095451D01*
X106356539Y-71108488D01*
X106398235Y-71165354D01*
X106402847Y-71235720D01*
X106368929Y-71297544D01*
X105718913Y-71947560D01*
X105715822Y-71950549D01*
X105668954Y-71994322D01*
X105647662Y-72029334D01*
X105640406Y-72039995D01*
X105615638Y-72072657D01*
X105609116Y-72089196D01*
X105599563Y-72108431D01*
X105590326Y-72123620D01*
X105579267Y-72163088D01*
X105575157Y-72175309D01*
X105560123Y-72213433D01*
X105558305Y-72231118D01*
X105554296Y-72252214D01*
X105549500Y-72269335D01*
X105549500Y-72310320D01*
X105548839Y-72323205D01*
X105544648Y-72363971D01*
X105547668Y-72381489D01*
X105549500Y-72402896D01*
X105549500Y-74588439D01*
X105549427Y-74592740D01*
X105547238Y-74656827D01*
X105556941Y-74696646D01*
X105559349Y-74709319D01*
X105564929Y-74749918D01*
X105572010Y-74766219D01*
X105578858Y-74786581D01*
X105583067Y-74803853D01*
X105603154Y-74839580D01*
X105608890Y-74851128D01*
X105620058Y-74876837D01*
X105625220Y-74888720D01*
X105636435Y-74902505D01*
X105648522Y-74920264D01*
X105657235Y-74935760D01*
X105686209Y-74964734D01*
X105694853Y-74974311D01*
X105720722Y-75006108D01*
X105735242Y-75016357D01*
X105751675Y-75030200D01*
X106484923Y-75763448D01*
X106518841Y-75825271D01*
X106514230Y-75895637D01*
X106472533Y-75952505D01*
X106339549Y-76054549D01*
X106247301Y-76174767D01*
X106189312Y-76314764D01*
X106169534Y-76464999D01*
X106189312Y-76615235D01*
X106247301Y-76755232D01*
X106295553Y-76818115D01*
X106318528Y-76867212D01*
X106318750Y-76921419D01*
X106296177Y-76970702D01*
X106254987Y-77005941D01*
X106167274Y-77052824D01*
X106013787Y-77178787D01*
X105887823Y-77332276D01*
X105794223Y-77507390D01*
X105753692Y-77640999D01*
X105753693Y-77641000D01*
X108841978Y-77641000D01*
X108875664Y-77633000D01*
X108963500Y-77633000D01*
X109026500Y-77649881D01*
X109072619Y-77696000D01*
X109089500Y-77759000D01*
X109089500Y-78454274D01*
X109087153Y-78475533D01*
X109089438Y-78548230D01*
X109089500Y-78552188D01*
X109089500Y-78580925D01*
X109090041Y-78585210D01*
X109090971Y-78597033D01*
X109092402Y-78642569D01*
X109098280Y-78662800D01*
X109102288Y-78682156D01*
X109104928Y-78703057D01*
X109121699Y-78745415D01*
X109125544Y-78756644D01*
X109138256Y-78800400D01*
X109148979Y-78818531D01*
X109157676Y-78836284D01*
X109165430Y-78855868D01*
X109192204Y-78892720D01*
X109198719Y-78902638D01*
X109216358Y-78932462D01*
X109221919Y-78941865D01*
X109236816Y-78956762D01*
X109249653Y-78971791D01*
X109262037Y-78988837D01*
X109277491Y-79001622D01*
X109297143Y-79017879D01*
X109305923Y-79025869D01*
X109673320Y-79393266D01*
X109705932Y-79449750D01*
X109705932Y-79514972D01*
X109673320Y-79571456D01*
X108772181Y-80472595D01*
X108731304Y-80499909D01*
X108683086Y-80509500D01*
X108575354Y-80509500D01*
X108424240Y-80541620D01*
X108390192Y-80548857D01*
X108217272Y-80625847D01*
X108064129Y-80737111D01*
X107937465Y-80877785D01*
X107842820Y-81041716D01*
X107784325Y-81221742D01*
X107764540Y-81410000D01*
X107784325Y-81598257D01*
X107842820Y-81778283D01*
X107937465Y-81942214D01*
X107987136Y-81997379D01*
X108011131Y-82036536D01*
X108019500Y-82081690D01*
X108019500Y-82566220D01*
X108009909Y-82614439D01*
X107982597Y-82655312D01*
X107966939Y-82670971D01*
X107931830Y-82706079D01*
X107851381Y-82842111D01*
X107807291Y-82993870D01*
X107804500Y-83029341D01*
X107804500Y-83182651D01*
X107794909Y-83230869D01*
X107767596Y-83271746D01*
X106974248Y-84065095D01*
X106933370Y-84092409D01*
X106885152Y-84102000D01*
X105953788Y-84102000D01*
X105895184Y-84087542D01*
X105850030Y-84047486D01*
X105837839Y-84015236D01*
X105835829Y-84016029D01*
X105821695Y-83980188D01*
X105774361Y-83860158D01*
X105774360Y-83860157D01*
X105774360Y-83860156D01*
X105691103Y-83750366D01*
X105672072Y-83714394D01*
X105665500Y-83674232D01*
X105665500Y-83051149D01*
X105665573Y-83046848D01*
X105665951Y-83035786D01*
X105667660Y-82985755D01*
X105658465Y-82948026D01*
X105656059Y-82935362D01*
X105654581Y-82924610D01*
X105650771Y-82896889D01*
X105644200Y-82881762D01*
X105637357Y-82861412D01*
X105633457Y-82845406D01*
X105614425Y-82811558D01*
X105608692Y-82800014D01*
X105593219Y-82764391D01*
X105582819Y-82751608D01*
X105570727Y-82733842D01*
X105562657Y-82719488D01*
X105535205Y-82692036D01*
X105526570Y-82682469D01*
X105502054Y-82652335D01*
X105488583Y-82642826D01*
X105472157Y-82628988D01*
X105376742Y-82533573D01*
X105345669Y-82482367D01*
X105341751Y-82422598D01*
X105365875Y-82367774D01*
X105397372Y-82326725D01*
X105419536Y-82297841D01*
X105480044Y-82151762D01*
X105495500Y-82034361D01*
X105495499Y-81405640D01*
X105480044Y-81288238D01*
X105419536Y-81142159D01*
X105419535Y-81142158D01*
X105419535Y-81142157D01*
X105375775Y-81085128D01*
X105351369Y-81028636D01*
X105356629Y-80967323D01*
X105390301Y-80915813D01*
X105444353Y-80886395D01*
X105505887Y-80886085D01*
X105604944Y-80910500D01*
X105775054Y-80910500D01*
X105775056Y-80910500D01*
X105940225Y-80869790D01*
X106090852Y-80790734D01*
X106218183Y-80677929D01*
X106314818Y-80537930D01*
X106375140Y-80378872D01*
X106395645Y-80210000D01*
X106375140Y-80041128D01*
X106314818Y-79882070D01*
X106218183Y-79742071D01*
X106090852Y-79629266D01*
X105940225Y-79550210D01*
X105775056Y-79509500D01*
X105604944Y-79509500D01*
X105460505Y-79545100D01*
X105412230Y-79547451D01*
X105366621Y-79531455D01*
X105330390Y-79499465D01*
X105328282Y-79496718D01*
X105202842Y-79400464D01*
X105056761Y-79339955D01*
X104939361Y-79324500D01*
X104460638Y-79324500D01*
X104343239Y-79339955D01*
X104197156Y-79400464D01*
X104071716Y-79496718D01*
X104042361Y-79534975D01*
X103994977Y-79572776D01*
X103935425Y-79584077D01*
X103877487Y-79566262D01*
X103834572Y-79523455D01*
X103811418Y-79485154D01*
X103689846Y-79363582D01*
X103542706Y-79274633D01*
X103378555Y-79223481D01*
X103307226Y-79217000D01*
X103304000Y-79217000D01*
X103304000Y-80328000D01*
X103287119Y-80391000D01*
X103241000Y-80437119D01*
X103178000Y-80454000D01*
X102142001Y-80454000D01*
X102142001Y-80532225D01*
X100500500Y-80532225D01*
X100500500Y-79946000D01*
X102142000Y-79946000D01*
X102796000Y-79946000D01*
X102796000Y-79217001D01*
X102792775Y-79217001D01*
X102721443Y-79223481D01*
X102557293Y-79274633D01*
X102410153Y-79363582D01*
X102288582Y-79485153D01*
X102199633Y-79632293D01*
X102148481Y-79796444D01*
X102142000Y-79867774D01*
X102142000Y-79946000D01*
X100500500Y-79946000D01*
X100500500Y-78149000D01*
X101823693Y-78149000D01*
X101864223Y-78282609D01*
X101957823Y-78457723D01*
X102083787Y-78611212D01*
X102237276Y-78737176D01*
X102412390Y-78830776D01*
X102602396Y-78888415D01*
X102750479Y-78903000D01*
X102846000Y-78903000D01*
X102846000Y-78149000D01*
X103354000Y-78149000D01*
X103354000Y-78903000D01*
X103449521Y-78903000D01*
X103597603Y-78888415D01*
X103787609Y-78830776D01*
X103962723Y-78737176D01*
X104116212Y-78611212D01*
X104242176Y-78457723D01*
X104335776Y-78282609D01*
X104376307Y-78149000D01*
X105753693Y-78149000D01*
X105794223Y-78282609D01*
X105887823Y-78457723D01*
X106013787Y-78611212D01*
X106167276Y-78737176D01*
X106342390Y-78830776D01*
X106532396Y-78888415D01*
X106680479Y-78903000D01*
X107026000Y-78903000D01*
X107026000Y-78149000D01*
X107534000Y-78149000D01*
X107534000Y-78903000D01*
X107879521Y-78903000D01*
X108027603Y-78888415D01*
X108217609Y-78830776D01*
X108392723Y-78737176D01*
X108546212Y-78611212D01*
X108672176Y-78457723D01*
X108765776Y-78282609D01*
X108806307Y-78149000D01*
X107534000Y-78149000D01*
X107026000Y-78149000D01*
X105753693Y-78149000D01*
X104376307Y-78149000D01*
X103354000Y-78149000D01*
X102846000Y-78149000D01*
X101823693Y-78149000D01*
X100500500Y-78149000D01*
X100500500Y-77640999D01*
X101823692Y-77640999D01*
X101823693Y-77641000D01*
X102846000Y-77641000D01*
X102846000Y-76887000D01*
X103354000Y-76887000D01*
X103354000Y-77641000D01*
X104376307Y-77641000D01*
X104376307Y-77640999D01*
X104335776Y-77507390D01*
X104242176Y-77332276D01*
X104116212Y-77178787D01*
X103962723Y-77052823D01*
X103787609Y-76959223D01*
X103597603Y-76901584D01*
X103449521Y-76887000D01*
X103354000Y-76887000D01*
X102846000Y-76887000D01*
X102750479Y-76887000D01*
X102602396Y-76901584D01*
X102412390Y-76959223D01*
X102237276Y-77052823D01*
X102083787Y-77178787D01*
X101957823Y-77332276D01*
X101864223Y-77507390D01*
X101823692Y-77640999D01*
X100500500Y-77640999D01*
X100500500Y-69509000D01*
X101823693Y-69509000D01*
X101864223Y-69642609D01*
X101957823Y-69817723D01*
X102083787Y-69971212D01*
X102237276Y-70097176D01*
X102412390Y-70190776D01*
X102602396Y-70248415D01*
X102750479Y-70263000D01*
X102846000Y-70263000D01*
X102846000Y-69509000D01*
X103354000Y-69509000D01*
X103354000Y-70263000D01*
X103449521Y-70263000D01*
X103597603Y-70248415D01*
X103787609Y-70190776D01*
X103962723Y-70097176D01*
X104116212Y-69971212D01*
X104242176Y-69817723D01*
X104335776Y-69642609D01*
X104376307Y-69509000D01*
X103354000Y-69509000D01*
X102846000Y-69509000D01*
X101823693Y-69509000D01*
X100500500Y-69509000D01*
X100500500Y-69000999D01*
X101823692Y-69000999D01*
X101823693Y-69001000D01*
X102846000Y-69001000D01*
X102846000Y-68247000D01*
X103354000Y-68247000D01*
X103354000Y-69001000D01*
X104376307Y-69001000D01*
X104376307Y-69000999D01*
X105753692Y-69000999D01*
X105753693Y-69001000D01*
X107026000Y-69001000D01*
X107026000Y-68247000D01*
X107534000Y-68247000D01*
X107534000Y-69001000D01*
X108806307Y-69001000D01*
X108806307Y-69000999D01*
X108765776Y-68867390D01*
X108672176Y-68692276D01*
X108546212Y-68538787D01*
X108392723Y-68412823D01*
X108217609Y-68319223D01*
X108141055Y-68296000D01*
X112327000Y-68296000D01*
X113031000Y-68296000D01*
X113031000Y-67567000D01*
X113011161Y-67567000D01*
X112910760Y-67577256D01*
X112748114Y-67631152D01*
X112602268Y-67721111D01*
X112481111Y-67842268D01*
X112391152Y-67988114D01*
X112337256Y-68150760D01*
X112327000Y-68251161D01*
X112327000Y-68296000D01*
X108141055Y-68296000D01*
X108027603Y-68261584D01*
X107879521Y-68247000D01*
X107534000Y-68247000D01*
X107026000Y-68247000D01*
X106680479Y-68247000D01*
X106532396Y-68261584D01*
X106342390Y-68319223D01*
X106167276Y-68412823D01*
X106013787Y-68538787D01*
X105887823Y-68692276D01*
X105794223Y-68867390D01*
X105753692Y-69000999D01*
X104376307Y-69000999D01*
X104335776Y-68867390D01*
X104242176Y-68692276D01*
X104116212Y-68538787D01*
X103962723Y-68412823D01*
X103787609Y-68319223D01*
X103597603Y-68261584D01*
X103449521Y-68247000D01*
X103354000Y-68247000D01*
X102846000Y-68247000D01*
X102750479Y-68247000D01*
X102602396Y-68261584D01*
X102412390Y-68319223D01*
X102237276Y-68412823D01*
X102083787Y-68538787D01*
X101957823Y-68692276D01*
X101864223Y-68867390D01*
X101823692Y-69000999D01*
X100500500Y-69000999D01*
X100500500Y-67084000D01*
X102467001Y-67084000D01*
X102467001Y-67162225D01*
X102473481Y-67233556D01*
X102524633Y-67397706D01*
X102613582Y-67544846D01*
X102735153Y-67666417D01*
X102882293Y-67755366D01*
X103046444Y-67806518D01*
X103117774Y-67813000D01*
X103121000Y-67813000D01*
X103121000Y-67084000D01*
X102467001Y-67084000D01*
X100500500Y-67084000D01*
X100500500Y-66576000D01*
X102467000Y-66576000D01*
X103121000Y-66576000D01*
X103121000Y-65847001D01*
X103117775Y-65847001D01*
X103046443Y-65853481D01*
X102882293Y-65904633D01*
X102735153Y-65993582D01*
X102613582Y-66115153D01*
X102524633Y-66262293D01*
X102473481Y-66426444D01*
X102467000Y-66497774D01*
X102467000Y-66576000D01*
X100500500Y-66576000D01*
X100500500Y-65847000D01*
X103629000Y-65847000D01*
X103629000Y-67812999D01*
X103632225Y-67812999D01*
X103703556Y-67806518D01*
X103867706Y-67755366D01*
X104014846Y-67666417D01*
X104136417Y-67544846D01*
X104159571Y-67506545D01*
X104202486Y-67463737D01*
X104260425Y-67445922D01*
X104319978Y-67457223D01*
X104367362Y-67495025D01*
X104396717Y-67533281D01*
X104522157Y-67629535D01*
X104522158Y-67629535D01*
X104522159Y-67629536D01*
X104668238Y-67690044D01*
X104785639Y-67705500D01*
X105264360Y-67705499D01*
X105264361Y-67705499D01*
X105303494Y-67700347D01*
X105381762Y-67690044D01*
X105527841Y-67629536D01*
X105527841Y-67629535D01*
X105527843Y-67629535D01*
X105596186Y-67577093D01*
X105653282Y-67533282D01*
X105703902Y-67467312D01*
X105749085Y-67430548D01*
X105805978Y-67418035D01*
X105862416Y-67432449D01*
X106009775Y-67509790D01*
X106174944Y-67550500D01*
X106345054Y-67550500D01*
X106345056Y-67550500D01*
X106510225Y-67509790D01*
X106660852Y-67430734D01*
X106788183Y-67317929D01*
X106884818Y-67177930D01*
X106945140Y-67018872D01*
X106965645Y-66850000D01*
X106945140Y-66681128D01*
X106884818Y-66522070D01*
X106788183Y-66382071D01*
X106660852Y-66269266D01*
X106510225Y-66190210D01*
X106345056Y-66149500D01*
X106174944Y-66149500D01*
X106009775Y-66190210D01*
X106009774Y-66190210D01*
X106009772Y-66190211D01*
X105884299Y-66256065D01*
X105827858Y-66270480D01*
X105770966Y-66257968D01*
X105725783Y-66221204D01*
X105653282Y-66126718D01*
X105653280Y-66126716D01*
X105653279Y-66126715D01*
X105527842Y-66030464D01*
X105381761Y-65969955D01*
X105264361Y-65954500D01*
X104785638Y-65954500D01*
X104668239Y-65969955D01*
X104522156Y-66030464D01*
X104396716Y-66126718D01*
X104367361Y-66164975D01*
X104319977Y-66202776D01*
X104260425Y-66214077D01*
X104202487Y-66196262D01*
X104159572Y-66153455D01*
X104136418Y-66115154D01*
X104014846Y-65993582D01*
X103867706Y-65904633D01*
X103703555Y-65853481D01*
X103632226Y-65847000D01*
X103629000Y-65847000D01*
X100500500Y-65847000D01*
X100500500Y-62994000D01*
X105977001Y-62994000D01*
X105977001Y-63044669D01*
X105987169Y-63144212D01*
X106040607Y-63305479D01*
X106129797Y-63450077D01*
X106249922Y-63570202D01*
X106394519Y-63659391D01*
X106555788Y-63712830D01*
X106655332Y-63723000D01*
X106668500Y-63723000D01*
X106668500Y-62994000D01*
X105977001Y-62994000D01*
X100500500Y-62994000D01*
X100500500Y-62486000D01*
X105977000Y-62486000D01*
X106668500Y-62486000D01*
X106668500Y-61330000D01*
X105977001Y-61330000D01*
X105977001Y-61380669D01*
X105987169Y-61480212D01*
X106040607Y-61641479D01*
X106129797Y-61786077D01*
X106162625Y-61818905D01*
X106195237Y-61875389D01*
X106195237Y-61940611D01*
X106162625Y-61997095D01*
X106129797Y-62029922D01*
X106040608Y-62174519D01*
X105987169Y-62335788D01*
X105977000Y-62435332D01*
X105977000Y-62486000D01*
X100500500Y-62486000D01*
X100500500Y-60822000D01*
X105977000Y-60822000D01*
X106668500Y-60822000D01*
X106668500Y-60093001D01*
X106655331Y-60093001D01*
X106555787Y-60103169D01*
X106394520Y-60156607D01*
X106249922Y-60245797D01*
X106129797Y-60365922D01*
X106040608Y-60510519D01*
X105987169Y-60671788D01*
X105977000Y-60771332D01*
X105977000Y-60822000D01*
X100500500Y-60822000D01*
X100500500Y-56651000D01*
X100517381Y-56588000D01*
X100563500Y-56541881D01*
X100626500Y-56525000D01*
X104724999Y-56525000D01*
X104725000Y-56525000D01*
X106525000Y-54800000D01*
X106525000Y-50626500D01*
X106541881Y-50563500D01*
X106588000Y-50517381D01*
X106651000Y-50500500D01*
X143348977Y-50500500D01*
X143411977Y-50517381D01*
G37*
G04 #@! TD.AperFunction*
M02*
